<svg width="1440" height="269" viewBox="0 0 1440 269" fill="none" xmlns="http://www.w3.org/2000/svg">
<g clipPath="url(#clip0_31_147)">
<path opacity="0.81" d="M-10 -49.7475L45.443 5.67" stroke="#0CAFF3" stroke-opacity="0.11" strokeWidth="3.5"/>
<path opacity="0.81" d="M45.4431 -49.7475L100.886 5.67" stroke="#0CAFF3" stroke-opacity="0.11" strokeWidth="3.5"/>
<path opacity="0.81" d="M100.886 -49.7475L156.329 5.67" stroke="#0CAFF3" stroke-opacity="0.11" strokeWidth="3.5"/>
<path opacity="0.81" d="M156.329 -49.7475L211.772 5.67" stroke="#0CAFF3" stroke-opacity="0.11" strokeWidth="3.5"/>
<path opacity="0.81" d="M211.772 -49.7475L267.215 5.67" stroke="#0CAFF3" stroke-opacity="0.11" strokeWidth="3.5"/>
<path opacity="0.81" d="M322.658 -49.7475L267.215 5.67" stroke="#0CAFF3" stroke-opacity="0.11" strokeWidth="3.5"/>
<path opacity="0.81" d="M378.101 -49.7475L322.658 5.67" stroke="#0CAFF3" stroke-opacity="0.11" strokeWidth="3.5"/>
<path opacity="0.81" d="M378.101 -49.7475L433.544 5.67" stroke="#0CAFF3" stroke-opacity="0.11" strokeWidth="3.5"/>
<path opacity="0.81" d="M433.544 -49.7475L488.987 5.67" stroke="#0CAFF3" stroke-opacity="0.11" strokeWidth="3.5"/>
<path opacity="0.81" d="M488.987 -49.7475L544.43 5.67" stroke="#0CAFF3" stroke-opacity="0.11" strokeWidth="3.5"/>
<path opacity="0.81" d="M599.873 -49.7475L544.43 5.67" stroke="#0CAFF3" stroke-opacity="0.11" strokeWidth="3.5"/>
<path opacity="0.81" d="M655.317 -49.7475L599.874 5.67" stroke="#0CAFF3" stroke-opacity="0.11" strokeWidth="3.5"/>
<path opacity="0.81" d="M655.316 -49.7475L710.759 5.67" stroke="#0CAFF3" stroke-opacity="0.11" strokeWidth="3.5"/>
<path opacity="0.81" d="M710.76 -49.7475L766.203 5.67" stroke="#0CAFF3" stroke-opacity="0.11" strokeWidth="3.5"/>
<path opacity="0.81" d="M821.646 -49.7475L766.203 5.67" stroke="#0CAFF3" stroke-opacity="0.11" strokeWidth="3.5"/>
<path opacity="0.81" d="M877.089 -49.7475L821.646 5.67" stroke="#0CAFF3" stroke-opacity="0.11" strokeWidth="3.5"/>
<path opacity="0.81" d="M877.089 -49.7475L932.532 5.67" stroke="#0CAFF3" stroke-opacity="0.11" strokeWidth="3.5"/>
<path opacity="0.81" d="M932.532 -49.7475L987.975 5.67" stroke="#0CAFF3" stroke-opacity="0.11" strokeWidth="3.5"/>
<path opacity="0.81" d="M987.975 -49.7475L1043.42 5.67" stroke="#0CAFF3" stroke-opacity="0.11" strokeWidth="3.5"/>
<path opacity="0.81" d="M1043.42 -49.7475L1098.86 5.67" stroke="#0CAFF3" stroke-opacity="0.11" strokeWidth="3.5"/>
<path opacity="0.81" d="M1098.86 -49.7475L1154.3 5.67" stroke="#0CAFF3" stroke-opacity="0.11" strokeWidth="3.5"/>
<path opacity="0.81" d="M1209.75 -49.7475L1154.3 5.67" stroke="#0CAFF3" stroke-opacity="0.11" strokeWidth="3.5"/>
<path opacity="0.81" d="M1265.19 -49.7475L1209.75 5.67" stroke="#0CAFF3" stroke-opacity="0.11" strokeWidth="3.5"/>
<path opacity="0.81" d="M1265.19 -49.7475L1320.63 5.67" stroke="#0CAFF3" stroke-opacity="0.11" strokeWidth="3.5"/>
<path opacity="0.81" d="M1320.63 -49.7475L1376.08 5.67" stroke="#0CAFF3" stroke-opacity="0.11" strokeWidth="3.5"/>
<path opacity="0.81" d="M1376.08 -49.7475L1431.52 5.67" stroke="#0CAFF3" stroke-opacity="0.11" strokeWidth="3.5"/>
<path opacity="0.81" d="M1486.96 -49.7475L1431.52 5.67" stroke="#0CAFF3" stroke-opacity="0.11" strokeWidth="3.5"/>
<path opacity="0.74" d="M45.443 5.67L-10 61.0875" stroke="#0CAFF3" stroke-opacity="0.11" strokeWidth="3.5"/>
<path opacity="0.74" d="M100.886 5.67L45.4431 61.0875" stroke="#0CAFF3" stroke-opacity="0.11" strokeWidth="3.5"/>
<path opacity="0.74" d="M100.886 5.67L156.329 61.0875" stroke="#0CAFF3" stroke-opacity="0.11" strokeWidth="3.5"/>
<path opacity="0.74" d="M211.772 5.67L156.329 61.0875" stroke="#0CAFF3" stroke-opacity="0.11" strokeWidth="3.5"/>
<path opacity="0.74" d="M267.215 5.67L211.772 61.0875" stroke="#0CAFF3" stroke-opacity="0.11" strokeWidth="3.5"/>
<path opacity="0.74" d="M267.215 5.67L322.658 61.0875" stroke="#0CAFF3" stroke-opacity="0.11" strokeWidth="3.5"/>
<path opacity="0.74" d="M322.658 5.67L378.101 61.0875" stroke="#0CAFF3" stroke-opacity="0.11" strokeWidth="3.5"/>
<path opacity="0.74" d="M433.544 5.67L378.101 61.0875" stroke="#0CAFF3" stroke-opacity="0.11" strokeWidth="3.5"/>
<path opacity="0.74" d="M488.987 5.67L433.544 61.0875" stroke="#0CAFF3" stroke-opacity="0.11" strokeWidth="3.5"/>
<path opacity="0.74" d="M488.987 5.67L544.43 61.0875" stroke="#0CAFF3" stroke-opacity="0.11" strokeWidth="3.5"/>
<path opacity="0.74" d="M599.873 5.67L544.43 61.0875" stroke="#0CAFF3" stroke-opacity="0.11" strokeWidth="3.5"/>
<path opacity="0.74" d="M599.874 5.67L655.317 61.0875" stroke="#0CAFF3" stroke-opacity="0.11" strokeWidth="3.5"/>
<path opacity="0.74" d="M710.759 5.67L655.316 61.0875" stroke="#0CAFF3" stroke-opacity="0.11" strokeWidth="3.5"/>
<path opacity="0.74" d="M710.76 5.67L766.203 61.0875" stroke="#0CAFF3" stroke-opacity="0.11" strokeWidth="3.5"/>
<path opacity="0.74" d="M766.203 5.67L821.646 61.0875" stroke="#0CAFF3" stroke-opacity="0.11" strokeWidth="3.5"/>
<path opacity="0.74" d="M877.089 5.67L821.646 61.0875" stroke="#0CAFF3" stroke-opacity="0.11" strokeWidth="3.5"/>
<path opacity="0.74" d="M932.532 5.67L877.089 61.0875" stroke="#0CAFF3" stroke-opacity="0.11" strokeWidth="3.5"/>
<path opacity="0.74" d="M932.532 5.67L987.975 61.0875" stroke="#0CAFF3" stroke-opacity="0.11" strokeWidth="3.5"/>
<path opacity="0.74" d="M1043.42 5.67L987.975 61.0875" stroke="#0CAFF3" stroke-opacity="0.11" strokeWidth="3.5"/>
<path opacity="0.74" d="M1043.42 5.67L1098.86 61.0875" stroke="#0CAFF3" stroke-opacity="0.11" strokeWidth="3.5"/>
<path opacity="0.74" d="M1098.86 5.67L1154.3 61.0875" stroke="#0CAFF3" stroke-opacity="0.11" strokeWidth="3.5"/>
<path opacity="0.74" d="M1154.3 5.67L1209.75 61.0875" stroke="#0CAFF3" stroke-opacity="0.11" strokeWidth="3.5"/>
<path opacity="0.74" d="M1265.19 5.67L1209.75 61.0875" stroke="#0CAFF3" stroke-opacity="0.11" strokeWidth="3.5"/>
<path opacity="0.74" d="M1265.19 5.67L1320.63 61.0875" stroke="#0CAFF3" stroke-opacity="0.11" strokeWidth="3.5"/>
<path opacity="0.74" d="M1376.08 5.67L1320.63 61.0875" stroke="#0CAFF3" stroke-opacity="0.11" strokeWidth="3.5"/>
<path opacity="0.74" d="M1376.08 5.67L1431.52 61.0875" stroke="#0CAFF3" stroke-opacity="0.11" strokeWidth="3.5"/>
<path opacity="0.74" d="M1486.96 5.67L1431.52 61.0875" stroke="#0CAFF3" stroke-opacity="0.11" strokeWidth="3.5"/>
<path opacity="0.68" d="M-10 61.0875L45.443 116.505" stroke="#0CAFF3" stroke-opacity="0.11" strokeWidth="3.5"/>
<path opacity="0.68" d="M45.4431 61.0875L100.886 116.505" stroke="#0CAFF3" stroke-opacity="0.11" strokeWidth="3.5"/>
<path opacity="0.68" d="M100.886 61.0875L156.329 116.505" stroke="#0CAFF3" stroke-opacity="0.11" strokeWidth="3.5"/>
<path opacity="0.68" d="M211.772 61.0875L156.329 116.505" stroke="#0CAFF3" stroke-opacity="0.11" strokeWidth="3.5"/>
<path opacity="0.68" d="M267.215 61.0875L211.772 116.505" stroke="#0CAFF3" stroke-opacity="0.11" strokeWidth="3.5"/>
<path opacity="0.68" d="M267.215 61.0875L322.658 116.505" stroke="#0CAFF3" stroke-opacity="0.11" strokeWidth="3.5"/>
<path opacity="0.68" d="M322.658 61.0875L378.101 116.505" stroke="#0CAFF3" stroke-opacity="0.11" strokeWidth="3.5"/>
<path opacity="0.68" d="M378.101 61.0875L433.544 116.505" stroke="#0CAFF3" stroke-opacity="0.11" strokeWidth="3.5"/>
<path opacity="0.68" d="M433.544 61.0875L488.987 116.505" stroke="#0CAFF3" stroke-opacity="0.11" strokeWidth="3.5"/>
<path opacity="0.68" d="M544.43 61.0875L488.987 116.505" stroke="#0CAFF3" stroke-opacity="0.11" strokeWidth="3.5"/>
<path opacity="0.68" d="M599.873 61.0875L544.43 116.505" stroke="#0CAFF3" stroke-opacity="0.11" strokeWidth="3.5"/>
<path opacity="0.68" d="M599.874 61.0875L655.317 116.505" stroke="#0CAFF3" stroke-opacity="0.11" strokeWidth="3.5"/>
<path opacity="0.68" d="M710.759 61.0875L655.316 116.505" stroke="#0CAFF3" stroke-opacity="0.11" strokeWidth="3.5"/>
<path opacity="0.68" d="M710.76 61.0875L766.203 116.505" stroke="#0CAFF3" stroke-opacity="0.11" strokeWidth="3.5"/>
<path opacity="0.68" d="M821.646 61.0875L766.203 116.505" stroke="#0CAFF3" stroke-opacity="0.11" strokeWidth="3.5"/>
<path opacity="0.68" d="M877.089 61.0875L821.646 116.505" stroke="#0CAFF3" stroke-opacity="0.11" strokeWidth="3.5"/>
<path opacity="0.68" d="M877.089 61.0875L932.532 116.505" stroke="#0CAFF3" stroke-opacity="0.11" strokeWidth="3.5"/>
<path opacity="0.68" d="M987.975 61.0875L932.532 116.505" stroke="#0CAFF3" stroke-opacity="0.11" strokeWidth="3.5"/>
<path opacity="0.68" d="M1043.42 61.0875L987.975 116.505" stroke="#0CAFF3" stroke-opacity="0.11" strokeWidth="3.5"/>
<path opacity="0.68" d="M1043.42 61.0875L1098.86 116.505" stroke="#0CAFF3" stroke-opacity="0.11" strokeWidth="3.5"/>
<path opacity="0.68" d="M1098.86 61.0875L1154.3 116.505" stroke="#0CAFF3" stroke-opacity="0.11" strokeWidth="3.5"/>
<path opacity="0.68" d="M1209.75 61.0875L1154.3 116.505" stroke="#0CAFF3" stroke-opacity="0.11" strokeWidth="3.5"/>
<path opacity="0.68" d="M1265.19 61.0875L1209.75 116.505" stroke="#0CAFF3" stroke-opacity="0.11" strokeWidth="3.5"/>
<path opacity="0.68" d="M1320.63 61.0875L1265.19 116.505" stroke="#0CAFF3" stroke-opacity="0.11" strokeWidth="3.5"/>
<path opacity="0.68" d="M1320.63 61.0875L1376.08 116.505" stroke="#0CAFF3" stroke-opacity="0.11" strokeWidth="3.5"/>
<path opacity="0.68" d="M1431.52 61.0875L1376.08 116.505" stroke="#0CAFF3" stroke-opacity="0.11" strokeWidth="3.5"/>
<path opacity="0.68" d="M1486.96 61.0875L1431.52 116.505" stroke="#0CAFF3" stroke-opacity="0.11" strokeWidth="3.5"/>
<path opacity="0.62" d="M-10 116.505L45.443 171.923" stroke="#0CAFF3" stroke-opacity="0.11" strokeWidth="3.5"/>
<path opacity="0.62" d="M45.4431 116.505L100.886 171.923" stroke="#0CAFF3" stroke-opacity="0.11" strokeWidth="3.5"/>
<path opacity="0.62" d="M156.329 116.505L100.886 171.923" stroke="#0CAFF3" stroke-opacity="0.11" strokeWidth="3.5"/>
<path opacity="0.62" d="M211.772 116.505L156.329 171.923" stroke="#0CAFF3" stroke-opacity="0.11" strokeWidth="3.5"/>
<path opacity="0.62" d="M211.772 116.505L267.215 171.923" stroke="#0CAFF3" stroke-opacity="0.11" strokeWidth="3.5"/>
<path opacity="0.62" d="M267.215 116.505L322.658 171.923" stroke="#0CAFF3" stroke-opacity="0.11" strokeWidth="3.5"/>
<path opacity="0.62" d="M378.101 116.505L322.658 171.923" stroke="#0CAFF3" stroke-opacity="0.11" strokeWidth="3.5"/>
<path opacity="0.62" d="M433.544 116.505L378.101 171.923" stroke="#0CAFF3" stroke-opacity="0.11" strokeWidth="3.5"/>
<path opacity="0.62" d="M488.987 116.505L433.544 171.923" stroke="#0CAFF3" stroke-opacity="0.11" strokeWidth="3.5"/>
<path opacity="0.62" d="M488.987 116.505L544.43 171.923" stroke="#0CAFF3" stroke-opacity="0.11" strokeWidth="3.5"/>
<path opacity="0.62" d="M544.43 116.505L599.873 171.923" stroke="#0CAFF3" stroke-opacity="0.11" strokeWidth="3.5"/>
<path opacity="0.62" d="M655.317 116.505L599.874 171.923" stroke="#0CAFF3" stroke-opacity="0.11" strokeWidth="3.5"/>
<path opacity="0.62" d="M710.759 116.505L655.316 171.923" stroke="#0CAFF3" stroke-opacity="0.11" strokeWidth="3.5"/>
<path opacity="0.62" d="M710.76 116.505L766.203 171.923" stroke="#0CAFF3" stroke-opacity="0.11" strokeWidth="3.5"/>
<path opacity="0.62" d="M766.203 116.505L821.646 171.923" stroke="#0CAFF3" stroke-opacity="0.11" strokeWidth="3.5"/>
<path opacity="0.62" d="M877.089 116.505L821.646 171.923" stroke="#0CAFF3" stroke-opacity="0.11" strokeWidth="3.5"/>
<path opacity="0.62" d="M932.532 116.505L877.089 171.923" stroke="#0CAFF3" stroke-opacity="0.11" strokeWidth="3.5"/>
<path opacity="0.62" d="M932.532 116.505L987.975 171.923" stroke="#0CAFF3" stroke-opacity="0.11" strokeWidth="3.5"/>
<path opacity="0.62" d="M1043.42 116.505L987.975 171.923" stroke="#0CAFF3" stroke-opacity="0.11" strokeWidth="3.5"/>
<path opacity="0.62" d="M1043.42 116.505L1098.86 171.923" stroke="#0CAFF3" stroke-opacity="0.11" strokeWidth="3.5"/>
<path opacity="0.62" d="M1098.86 116.505L1154.3 171.923" stroke="#0CAFF3" stroke-opacity="0.11" strokeWidth="3.5"/>
<path opacity="0.62" d="M1154.3 116.505L1209.75 171.923" stroke="#0CAFF3" stroke-opacity="0.11" strokeWidth="3.5"/>
<path opacity="0.62" d="M1265.19 116.505L1209.75 171.923" stroke="#0CAFF3" stroke-opacity="0.11" strokeWidth="3.5"/>
<path opacity="0.62" d="M1320.63 116.505L1265.19 171.923" stroke="#0CAFF3" stroke-opacity="0.11" strokeWidth="3.5"/>
<path opacity="0.62" d="M1320.63 116.505L1376.08 171.923" stroke="#0CAFF3" stroke-opacity="0.11" strokeWidth="3.5"/>
<path opacity="0.62" d="M1431.52 116.505L1376.08 171.923" stroke="#0CAFF3" stroke-opacity="0.11" strokeWidth="3.5"/>
<path opacity="0.62" d="M1431.52 116.505L1486.96 171.923" stroke="#0CAFF3" stroke-opacity="0.11" strokeWidth="3.5"/>
<path opacity="0.55" d="M-10 171.922L45.443 227.34" stroke="#0CAFF3" stroke-opacity="0.11" strokeWidth="3.5"/>
<path opacity="0.55" d="M45.4431 171.922L100.886 227.34" stroke="#0CAFF3" stroke-opacity="0.11" strokeWidth="3.5"/>
<path opacity="0.55" d="M100.886 171.922L156.329 227.34" stroke="#0CAFF3" stroke-opacity="0.11" strokeWidth="3.5"/>
<path opacity="0.55" d="M211.772 171.922L156.329 227.34" stroke="#0CAFF3" stroke-opacity="0.11" strokeWidth="3.5"/>
<path opacity="0.55" d="M267.215 171.922L211.772 227.34" stroke="#0CAFF3" stroke-opacity="0.11" strokeWidth="3.5"/>
<path opacity="0.55" d="M322.658 171.922L267.215 227.34" stroke="#0CAFF3" stroke-opacity="0.11" strokeWidth="3.5"/>
<path opacity="0.55" d="M322.658 171.922L378.101 227.34" stroke="#0CAFF3" stroke-opacity="0.11" strokeWidth="3.5"/>
<path opacity="0.55" d="M378.101 171.922L433.544 227.34" stroke="#0CAFF3" stroke-opacity="0.11" strokeWidth="3.5"/>
<path opacity="0.55" d="M433.544 171.922L488.987 227.34" stroke="#0CAFF3" stroke-opacity="0.11" strokeWidth="3.5"/>
<path opacity="0.55" d="M544.43 171.922L488.987 227.34" stroke="#0CAFF3" stroke-opacity="0.11" strokeWidth="3.5"/>
<path opacity="0.55" d="M599.873 171.922L544.43 227.34" stroke="#0CAFF3" stroke-opacity="0.11" strokeWidth="3.5"/>
<path opacity="0.55" d="M599.874 171.922L655.317 227.34" stroke="#0CAFF3" stroke-opacity="0.11" strokeWidth="3.5"/>
<path opacity="0.55" d="M655.316 171.922L710.759 227.34" stroke="#0CAFF3" stroke-opacity="0.11" strokeWidth="3.5"/>
<path opacity="0.55" d="M766.203 171.922L710.76 227.34" stroke="#0CAFF3" stroke-opacity="0.11" strokeWidth="3.5"/>
<path opacity="0.55" d="M821.646 171.922L766.203 227.34" stroke="#0CAFF3" stroke-opacity="0.11" strokeWidth="3.5"/>
<path opacity="0.55" d="M877.089 171.922L821.646 227.34" stroke="#0CAFF3" stroke-opacity="0.11" strokeWidth="3.5"/>
<path opacity="0.55" d="M877.089 171.922L932.532 227.34" stroke="#0CAFF3" stroke-opacity="0.11" strokeWidth="3.5"/>
<path opacity="0.55" d="M987.975 171.922L932.532 227.34" stroke="#0CAFF3" stroke-opacity="0.11" strokeWidth="3.5"/>
<path opacity="0.55" d="M987.975 171.922L1043.42 227.34" stroke="#0CAFF3" stroke-opacity="0.11" strokeWidth="3.5"/>
<path opacity="0.55" d="M1098.86 171.922L1043.42 227.34" stroke="#0CAFF3" stroke-opacity="0.11" strokeWidth="3.5"/>
<path opacity="0.55" d="M1098.86 171.922L1154.3 227.34" stroke="#0CAFF3" stroke-opacity="0.11" strokeWidth="3.5"/>
<path opacity="0.55" d="M1209.75 171.922L1154.3 227.34" stroke="#0CAFF3" stroke-opacity="0.11" strokeWidth="3.5"/>
<path opacity="0.55" d="M1265.19 171.922L1209.75 227.34" stroke="#0CAFF3" stroke-opacity="0.11" strokeWidth="3.5"/>
<path opacity="0.55" d="M1265.19 171.922L1320.63 227.34" stroke="#0CAFF3" stroke-opacity="0.11" strokeWidth="3.5"/>
<path opacity="0.55" d="M1320.63 171.922L1376.08 227.34" stroke="#0CAFF3" stroke-opacity="0.11" strokeWidth="3.5"/>
<path opacity="0.55" d="M1376.08 171.922L1431.52 227.34" stroke="#0CAFF3" stroke-opacity="0.11" strokeWidth="3.5"/>
<path opacity="0.55" d="M1486.96 171.922L1431.52 227.34" stroke="#0CAFF3" stroke-opacity="0.11" strokeWidth="3.5"/>
<path opacity="0.49" d="M-10 227.34L45.443 282.757" stroke="#0CAFF3" stroke-opacity="0.11" strokeWidth="3.5"/>
<path opacity="0.49" d="M45.4431 227.34L100.886 282.757" stroke="#0CAFF3" stroke-opacity="0.11" strokeWidth="3.5"/>
<path opacity="0.49" d="M100.886 227.34L156.329 282.757" stroke="#0CAFF3" stroke-opacity="0.11" strokeWidth="3.5"/>
<path opacity="0.49" d="M156.329 227.34L211.772 282.757" stroke="#0CAFF3" stroke-opacity="0.11" strokeWidth="3.5"/>
<path opacity="0.49" d="M267.215 227.34L211.772 282.757" stroke="#0CAFF3" stroke-opacity="0.11" strokeWidth="3.5"/>
<path opacity="0.49" d="M267.215 227.34L322.658 282.757" stroke="#0CAFF3" stroke-opacity="0.11" strokeWidth="3.5"/>
<path opacity="0.49" d="M378.101 227.34L322.658 282.757" stroke="#0CAFF3" stroke-opacity="0.11" strokeWidth="3.5"/>
<path opacity="0.49" d="M433.544 227.34L378.101 282.757" stroke="#0CAFF3" stroke-opacity="0.11" strokeWidth="3.5"/>
<path opacity="0.49" d="M488.987 227.34L433.544 282.757" stroke="#0CAFF3" stroke-opacity="0.11" strokeWidth="3.5"/>
<path opacity="0.49" d="M488.987 227.34L544.43 282.757" stroke="#0CAFF3" stroke-opacity="0.11" strokeWidth="3.5"/>
<path opacity="0.49" d="M544.43 227.34L599.873 282.757" stroke="#0CAFF3" stroke-opacity="0.11" strokeWidth="3.5"/>
<path opacity="0.49" d="M655.317 227.34L599.874 282.757" stroke="#0CAFF3" stroke-opacity="0.11" strokeWidth="3.5"/>
<path opacity="0.49" d="M655.316 227.34L710.759 282.757" stroke="#0CAFF3" stroke-opacity="0.11" strokeWidth="3.5"/>
<path opacity="0.49" d="M710.76 227.34L766.203 282.757" stroke="#0CAFF3" stroke-opacity="0.11" strokeWidth="3.5"/>
<path opacity="0.49" d="M821.646 227.34L766.203 282.757" stroke="#0CAFF3" stroke-opacity="0.11" strokeWidth="3.5"/>
<path opacity="0.49" d="M821.646 227.34L877.089 282.757" stroke="#0CAFF3" stroke-opacity="0.11" strokeWidth="3.5"/>
<path opacity="0.49" d="M877.089 227.34L932.532 282.757" stroke="#0CAFF3" stroke-opacity="0.11" strokeWidth="3.5"/>
<path opacity="0.49" d="M932.532 227.34L987.975 282.757" stroke="#0CAFF3" stroke-opacity="0.11" strokeWidth="3.5"/>
<path opacity="0.49" d="M1043.42 227.34L987.975 282.757" stroke="#0CAFF3" stroke-opacity="0.11" strokeWidth="3.5"/>
<path opacity="0.49" d="M1098.86 227.34L1043.42 282.757" stroke="#0CAFF3" stroke-opacity="0.11" strokeWidth="3.5"/>
<path opacity="0.49" d="M1098.86 227.34L1154.3 282.757" stroke="#0CAFF3" stroke-opacity="0.11" strokeWidth="3.5"/>
<path opacity="0.49" d="M1209.75 227.34L1154.3 282.757" stroke="#0CAFF3" stroke-opacity="0.11" strokeWidth="3.5"/>
<path opacity="0.49" d="M1209.75 227.34L1265.19 282.757" stroke="#0CAFF3" stroke-opacity="0.11" strokeWidth="3.5"/>
<path opacity="0.49" d="M1265.19 227.34L1320.63 282.757" stroke="#0CAFF3" stroke-opacity="0.11" strokeWidth="3.5"/>
<path opacity="0.49" d="M1320.63 227.34L1376.08 282.757" stroke="#0CAFF3" stroke-opacity="0.11" strokeWidth="3.5"/>
<path opacity="0.49" d="M1376.08 227.34L1431.52 282.757" stroke="#0CAFF3" stroke-opacity="0.11" strokeWidth="3.5"/>
<path opacity="0.49" d="M1486.96 227.34L1431.52 282.757" stroke="#0CAFF3" stroke-opacity="0.11" strokeWidth="3.5"/>
</g>
<defs>
<clipPath id="clip0_31_147">
<rect width="1460" height="269" fill="white" transform="translate(-10)"/>
</clipPath>
</defs>
</svg>
