<svg width="55" height="55" viewBox="0 0 55 55" fill="none" xmlns="http://www.w3.org/2000/svg">
<path d="M16.9156 33.106H25.7746V29.4823H20.5395V21.0245C20.5395 17.2433 17.4742 14.1781 13.6931 14.1781H10.2698C6.48852 14.1781 3.42334 17.2434 3.42334 21.0245V22.8364H16.9157V33.106H16.9156ZM27.3859 36.3287H16.9156V41.5639H23.9627V51.0919H29.1978V38.1406C29.1978 37.1414 28.385 36.3287 27.3859 36.3287ZM28.9973 33.372C30.9852 34.0457 32.4205 35.928 32.4205 38.1406V38.6756H35.6431V35.453H38.8658V38.6756H42.0884V41.8983H38.8658V45.121H35.6431V41.8983H32.4205V51.0918H55V29.4822H28.9973V33.372ZM41.3031 26.2595H51.5767V21.0244C51.5767 17.2432 48.5114 14.178 44.7303 14.178H41.307C38.081 14.178 35.3778 16.4098 34.653 19.4131H40.4473L41.3031 26.2595Z" fill="#01AEF3"/>
<path d="M43.0187 14.1779C45.8546 14.1779 48.1536 11.879 48.1536 9.04308C48.1536 6.20716 45.8546 3.9082 43.0187 3.9082C40.1828 3.9082 37.8839 6.20716 37.8839 9.04308C37.8839 11.879 40.1828 14.1779 43.0187 14.1779Z" fill="#01AEF3"/>
<path d="M11.9813 14.1779C14.8172 14.1779 17.1162 11.879 17.1162 9.04308C17.1162 6.20716 14.8172 3.9082 11.9813 3.9082C9.1454 3.9082 6.84644 6.20716 6.84644 9.04308C6.84644 11.879 9.1454 14.1779 11.9813 14.1779Z" fill="#01AEF3"/>
<path d="M38.0554 26.2595L37.6024 22.6357H29.4395L29.8924 26.2595H38.0554ZM13.693 26.059H0V51.0918H3.22266V41.5638H10.4703V51.0918H13.693V26.059Z" fill="#01AEF3"/>
</svg>
