<svg width="482" height="250" viewBox="0 0 482 250" fill="none" xmlns="http://www.w3.org/2000/svg">
<g clip-path="url(#clip0_848_6709)">
<path d="M240.236 207.788C195.01 207.788 158.215 170.994 158.215 125.767C158.215 80.5408 195.01 43.7452 240.236 43.7452C285.463 43.7452 322.258 80.5401 322.258 125.767C322.258 170.994 285.463 207.788 240.236 207.788ZM240.236 44.4812C195.416 44.4812 158.951 80.946 158.951 125.767C158.951 170.588 195.416 207.052 240.236 207.052C285.057 207.052 321.522 170.588 321.522 125.767C321.522 80.946 285.057 44.4812 240.236 44.4812Z" fill="#EBEBEB"/>
<path d="M240.236 198.898C199.911 198.898 167.105 166.091 167.105 125.767C167.105 85.4427 199.912 52.6361 240.236 52.6361C280.56 52.6361 313.367 85.4427 313.367 125.767C313.367 166.092 280.561 198.898 240.236 198.898ZM240.236 53.3715C200.317 53.3715 167.841 85.8479 167.841 125.767C167.841 165.685 200.317 198.162 240.236 198.162C280.155 198.162 312.632 165.686 312.632 125.767C312.632 85.8479 280.155 53.3715 240.236 53.3715Z" fill="#EBEBEB"/>
<path d="M190.01 0.460989L189.328 0.73645L194.396 13.2796L195.078 13.0041L190.01 0.460989Z" fill="#EBEBEB"/>
<path d="M197.326 18.5661L196.645 18.8416L205.003 39.5314L205.685 39.2559L197.326 18.5661Z" fill="#EBEBEB"/>
<path d="M116.112 72.6777L115.824 73.3546L128.277 78.64L128.564 77.9631L116.112 72.6777Z" fill="#EBEBEB"/>
<path d="M134.084 80.307L133.797 80.9839L154.337 89.7021L154.624 89.0252L134.084 80.307Z" fill="#EBEBEB"/>
<path d="M127.473 170.934L114.93 176.002L115.205 176.684L127.748 171.616L127.473 170.934Z" fill="#EBEBEB"/>
<path d="M153.721 160.33L133.031 168.689L133.307 169.371L153.997 161.012L153.721 160.33Z" fill="#EBEBEB"/>
<path d="M192.426 237.432L187.141 249.884L187.818 250.171L193.103 237.719L192.426 237.432Z" fill="#EBEBEB"/>
<path d="M203.488 211.374L194.77 231.914L195.446 232.201L204.165 211.661L203.488 211.374Z" fill="#EBEBEB"/>
<path d="M286.085 238.261L285.402 238.537L290.47 251.08L291.152 250.805L286.085 238.261Z" fill="#EBEBEB"/>
<path d="M275.479 212.015L274.797 212.291L283.156 232.98L283.838 232.705L275.479 212.015Z" fill="#EBEBEB"/>
<path d="M352.182 172.887L351.895 173.564L364.347 178.85L364.634 178.173L352.182 172.887Z" fill="#EBEBEB"/>
<path d="M326.123 161.826L325.836 162.503L346.376 171.221L346.664 170.545L326.123 161.826Z" fill="#EBEBEB"/>
<path d="M365.274 74.8572L352.73 79.9248L353.006 80.6066L365.549 75.5391L365.274 74.8572Z" fill="#EBEBEB"/>
<path d="M347.17 82.1755L326.48 90.5344L326.756 91.2162L347.446 82.8573L347.17 82.1755Z" fill="#EBEBEB"/>
<path d="M292.637 1.35504L287.352 13.8075L288.028 14.0948L293.314 1.64233L292.637 1.35504Z" fill="#EBEBEB"/>
<path d="M285.011 19.3282L276.293 39.8685L276.97 40.1561L285.689 19.6158L285.011 19.3282Z" fill="#EBEBEB"/>
<path d="M240.607 -19.7279H239.871V13.5493H240.607V-19.7279Z" fill="#EBEBEB"/>
<path d="M240.607 21.0508H239.871V32.606H240.607V21.0508Z" fill="#EBEBEB"/>
<path d="M137.614 22.626L137.094 23.1465L160.627 46.6734L161.148 46.1529L137.614 22.626Z" fill="#EBEBEB"/>
<path d="M166.466 51.4559L165.945 51.9764L174.117 60.1472L174.638 59.6267L166.466 51.4559Z" fill="#EBEBEB"/>
<path d="M128.019 125.399H94.7422V126.135H128.019V125.399Z" fill="#EBEBEB"/>
<path d="M147.075 125.399H135.52V126.135H147.075V125.399Z" fill="#EBEBEB"/>
<path d="M160.623 204.863L137.09 228.39L137.61 228.91L161.144 205.383L160.623 204.863Z" fill="#EBEBEB"/>
<path d="M174.117 191.387L165.945 199.557L166.466 200.078L174.638 191.907L174.117 191.387Z" fill="#EBEBEB"/>
<path d="M240.607 237.984H239.871V271.262H240.607V237.984Z" fill="#EBEBEB"/>
<path d="M240.607 218.928H239.871V230.483H240.607V218.928Z" fill="#EBEBEB"/>
<path d="M319.841 204.851L319.32 205.372L342.854 228.899L343.374 228.378L319.841 204.851Z" fill="#EBEBEB"/>
<path d="M306.395 191.375L305.875 191.895L314.047 200.066L314.567 199.545L306.395 191.375Z" fill="#EBEBEB"/>
<path d="M385.734 125.399H352.457V126.135H385.734V125.399Z" fill="#EBEBEB"/>
<path d="M344.954 125.399H333.398V126.135H344.954V125.399Z" fill="#EBEBEB"/>
<path d="M342.862 22.635L319.328 46.162L319.848 46.6825L343.382 23.1555L342.862 22.635Z" fill="#EBEBEB"/>
<path d="M314.043 51.4542L305.871 59.6249L306.392 60.1454L314.563 51.9746L314.043 51.4542Z" fill="#EBEBEB"/>
<path d="M241.914 125.767C241.914 126.693 241.163 127.445 240.236 127.445C239.31 127.445 238.559 126.693 238.559 125.767C238.559 124.84 239.309 124.089 240.236 124.089C241.163 124.089 241.914 124.84 241.914 125.767Z" fill="#EBEBEB"/>
<path d="M397.375 237.677C396.503 236.068 396.497 234.091 397.375 232.483C398.253 234.091 398.248 236.068 397.375 237.677Z" fill="#DBDBDB"/>
<path d="M402.254 239.687C402.752 237.938 404.126 236.534 405.87 236.013C405.378 237.766 403.995 239.162 402.254 239.687Z" fill="#DBDBDB"/>
<path d="M404.305 244.612C405.886 243.74 407.839 243.734 409.419 244.612C407.839 245.491 405.886 245.484 404.305 244.612Z" fill="#DBDBDB"/>
<path d="M402.328 249.569C404.069 250.094 405.452 251.49 405.945 253.243C404.201 252.722 402.826 251.318 402.328 249.569Z" fill="#DBDBDB"/>
<path d="M392.597 249.644C392.099 251.393 390.724 252.797 388.98 253.317C389.473 251.565 390.856 250.169 392.597 249.644Z" fill="#DBDBDB"/>
<path d="M390.545 244.719C388.963 245.591 387.011 245.597 385.43 244.719C387.011 243.84 388.963 243.847 390.545 244.719Z" fill="#DBDBDB"/>
<path d="M392.523 239.762C390.783 239.237 389.4 237.841 388.906 236.088C390.651 236.609 392.025 238.013 392.523 239.762Z" fill="#DBDBDB"/>
<path d="M220.137 5.1906C219.265 3.58142 219.258 1.60426 220.137 -0.00427246C221.015 1.60426 221.009 3.58078 220.137 5.1906Z" fill="#DBDBDB"/>
<path d="M225.016 7.19989C225.514 5.45096 226.888 4.04694 228.632 3.52637C228.14 5.27851 226.757 6.67419 225.016 7.19989Z" fill="#DBDBDB"/>
<path d="M227.066 12.1255C228.648 11.2536 230.601 11.2478 232.181 12.1255C230.601 13.0031 228.648 12.9974 227.066 12.1255Z" fill="#DBDBDB"/>
<path d="M225.09 17.0818C226.83 17.6069 228.213 19.0025 228.707 20.7553C226.962 20.2354 225.588 18.8307 225.09 17.0818Z" fill="#DBDBDB"/>
<path d="M220.239 19.166C221.111 20.7758 221.117 22.7524 220.239 24.3609C219.36 22.7524 219.366 20.7758 220.239 19.166Z" fill="#DBDBDB"/>
<path d="M215.359 17.1569C214.861 18.9058 213.487 20.3098 211.742 20.8304C212.235 19.0783 213.619 17.6826 215.359 17.1569Z" fill="#DBDBDB"/>
<path d="M213.307 12.2312C211.725 13.1031 209.772 13.1095 208.191 12.2312C209.772 11.3535 211.725 11.3599 213.307 12.2312Z" fill="#DBDBDB"/>
<path d="M215.285 7.27485C213.544 6.74978 212.161 5.3541 211.668 3.60132C213.412 4.12125 214.787 5.52592 215.285 7.27485Z" fill="#DBDBDB"/>
<path d="M38.9806 200.8C38.1086 199.191 38.1022 197.214 38.9806 195.606C39.8589 197.214 39.8525 199.191 38.9806 200.8Z" fill="#DBDBDB"/>
<path d="M43.8594 202.81C44.3575 201.061 45.7314 199.657 47.4765 199.136C46.9828 200.889 45.6 202.285 43.8594 202.81Z" fill="#DBDBDB"/>
<path d="M45.9102 207.735C47.4918 206.863 49.4446 206.858 51.0255 207.735C49.4452 208.614 47.4918 208.607 45.9102 207.735Z" fill="#DBDBDB"/>
<path d="M43.9336 212.692C45.6742 213.217 47.0577 214.613 47.5507 216.365C45.8063 215.845 44.4324 214.441 43.9336 212.692Z" fill="#DBDBDB"/>
<path d="M39.0821 214.776C39.954 216.386 39.9604 218.363 39.0821 219.971C38.2038 218.363 38.2102 216.386 39.0821 214.776Z" fill="#DBDBDB"/>
<path d="M34.2024 212.767C33.7043 214.516 32.3304 215.92 30.5859 216.441C31.0789 214.688 32.4618 213.292 34.2024 212.767Z" fill="#DBDBDB"/>
<path d="M32.1499 207.842C30.5683 208.714 28.6155 208.72 27.0352 207.842C28.6155 206.963 30.5683 206.97 32.1499 207.842Z" fill="#DBDBDB"/>
<path d="M34.1288 202.885C32.3882 202.36 31.0054 200.964 30.5117 199.212C32.2562 199.732 33.6307 201.136 34.1288 202.885Z" fill="#DBDBDB"/>
<path d="M447.484 150.274C446.628 149.483 446.622 148.195 447.484 147.406C448.346 148.195 448.34 149.484 447.484 150.274Z" fill="#DBDBDB"/>
<path d="M450.179 151.384C450.118 150.226 451.013 149.308 452.175 149.356C452.241 150.516 451.338 151.426 450.179 151.384Z" fill="#DBDBDB"/>
<path d="M451.309 154.102C452.084 153.247 453.359 153.241 454.132 154.102C453.359 154.963 452.083 154.958 451.309 154.102Z" fill="#DBDBDB"/>
<path d="M450.218 156.839C451.377 156.796 452.28 157.706 452.215 158.867C451.053 158.914 450.157 157.997 450.218 156.839Z" fill="#DBDBDB"/>
<path d="M447.543 157.989C448.398 158.779 448.404 160.068 447.543 160.857C446.681 160.068 446.687 158.779 447.543 157.989Z" fill="#DBDBDB"/>
<path d="M444.847 156.88C444.908 158.038 444.013 158.955 442.851 158.908C442.785 157.747 443.688 156.837 444.847 156.88Z" fill="#DBDBDB"/>
<path d="M443.714 154.161C442.94 155.016 441.664 155.022 440.891 154.161C441.664 153.3 442.939 153.306 443.714 154.161Z" fill="#DBDBDB"/>
<path d="M444.808 151.425C443.65 151.468 442.746 150.558 442.812 149.397C443.973 149.349 444.869 150.267 444.808 151.425Z" fill="#DBDBDB"/>
<path d="M268.23 238.881C267.374 238.09 267.368 236.802 268.23 236.013C269.092 236.802 269.086 238.091 268.23 238.881Z" fill="#DBDBDB"/>
<path d="M270.925 239.991C270.864 238.833 271.76 237.915 272.921 237.963C272.987 239.123 272.084 240.033 270.925 239.991Z" fill="#DBDBDB"/>
<path d="M272.055 242.71C272.83 241.854 274.105 241.849 274.879 242.71C274.105 243.571 272.83 243.565 272.055 242.71Z" fill="#DBDBDB"/>
<path d="M270.964 245.446C272.123 245.403 273.026 246.312 272.96 247.473C271.799 247.521 270.903 246.604 270.964 245.446Z" fill="#DBDBDB"/>
<path d="M268.289 246.596C269.144 247.386 269.15 248.675 268.289 249.463C267.427 248.675 267.433 247.386 268.289 246.596Z" fill="#DBDBDB"/>
<path d="M265.593 245.487C265.654 246.645 264.759 247.562 263.597 247.515C263.532 246.354 264.435 245.444 265.593 245.487Z" fill="#DBDBDB"/>
<path d="M264.46 242.768C263.686 243.623 262.41 243.629 261.637 242.768C262.411 241.907 263.686 241.913 264.46 242.768Z" fill="#DBDBDB"/>
<path d="M265.554 240.032C264.395 240.075 263.492 239.165 263.558 238.004C264.72 237.956 265.615 238.874 265.554 240.032Z" fill="#DBDBDB"/>
<path d="M398.921 10.2374C398.066 9.44693 398.06 8.15831 398.921 7.36975C399.783 8.15831 399.777 9.44693 398.921 10.2374Z" fill="#DBDBDB"/>
<path d="M401.616 11.3466C401.555 10.1888 402.451 9.27134 403.613 9.31878C403.679 10.4798 402.775 11.3895 401.616 11.3466Z" fill="#DBDBDB"/>
<path d="M402.746 14.0655C403.521 13.2102 404.796 13.2045 405.57 14.0655C404.796 14.9265 403.521 14.9213 402.746 14.0655Z" fill="#DBDBDB"/>
<path d="M401.655 16.8016C402.814 16.7587 403.718 17.6684 403.652 18.8294C402.49 18.8775 401.594 17.9601 401.655 16.8016Z" fill="#DBDBDB"/>
<path d="M398.98 17.9524C399.836 18.7429 399.842 20.0315 398.98 20.8201C398.119 20.0315 398.124 18.7429 398.98 17.9524Z" fill="#DBDBDB"/>
<path d="M396.285 16.8434C396.346 18.0012 395.45 18.9186 394.288 18.8712C394.223 17.7102 395.126 16.8004 396.285 16.8434Z" fill="#DBDBDB"/>
<path d="M395.152 14.1238C394.377 14.979 393.101 14.9848 392.328 14.1238C393.101 13.2628 394.377 13.2686 395.152 14.1238Z" fill="#DBDBDB"/>
<path d="M396.243 11.3876C395.083 11.4306 394.18 10.5208 394.246 9.35979C395.408 9.31235 396.303 10.2298 396.243 11.3876Z" fill="#DBDBDB"/>
<path d="M414.375 122.552C412.591 125.412 411.496 128.72 411.114 132.065C410.315 139.129 413.993 145.873 413.316 152.857C412.964 153.623 412.58 154.388 412.151 155.14C412.148 155.154 412.136 155.169 412.128 155.178C412.124 155.183 412.12 155.188 412.121 155.197C412.117 155.202 412.117 155.202 412.117 155.202C412.113 155.207 412.113 155.207 412.114 155.215C412.109 155.252 412.13 155.285 412.155 155.305C412.226 155.226 412.294 155.143 412.357 155.065C412.485 154.917 412.603 154.77 412.717 154.62C412.887 154.41 413.043 154.196 413.198 153.974C413.223 153.994 413.282 153.881 413.292 153.848C417.616 147.643 417.36 139.412 418.061 132.131C418.457 127.967 419.811 124.017 420.275 119.891C420.385 118.905 420.872 117.109 419.411 117.108C417.765 117.113 415.104 121.379 414.375 122.552Z" fill="#263238"/>
<path d="M413.816 128.679C411.179 136.829 416.874 146.089 412.901 153.871C412.781 154.09 412.665 154.303 412.54 154.517C412.453 154.665 412.366 154.813 412.274 154.957C412.274 154.957 412.274 154.957 412.27 154.962C412.232 155.02 412.194 155.078 412.151 155.14C412.148 155.154 412.136 155.169 412.128 155.178C412.124 155.183 412.12 155.188 412.121 155.197C412.117 155.202 412.117 155.202 412.117 155.202C412.113 155.207 412.113 155.207 412.114 155.215C412.109 155.252 412.131 155.285 412.155 155.305C412.165 155.313 412.179 155.316 412.183 155.32C412.211 155.326 412.242 155.318 412.265 155.289C412.425 155.071 412.575 154.845 412.717 154.62C413.078 154.063 413.379 153.49 413.625 152.905C413.634 152.904 413.629 152.9 413.629 152.9C415.397 149.479 416.165 145.816 416.416 141.793C416.721 136.851 416.739 131.985 417.149 127.014C417.199 126.401 417.812 124.092 416.79 124.147C415.496 124.217 414.123 127.738 413.816 128.679ZM414.551 127.559C414.749 127.113 416.174 124.167 416.861 124.698C417.27 125.012 416.7 127.379 416.684 127.73C416.618 129.083 416.55 130.426 416.484 131.779C416.354 134.623 416.241 137.465 416.105 140.305C415.929 143.816 415.49 147.251 414.373 150.487C415.879 143.136 411.345 134.74 414.551 127.559Z" fill="#455A64"/>
<path d="M391.229 201.366C391.205 201.476 391.25 201.65 391.423 201.595C398.758 199.236 405.692 204.6 413.133 202.73C416.119 201.974 418.913 200.545 421.577 199.027C423.541 197.906 425.531 196.693 427.16 195.115C427.38 194.904 428.447 194.093 428.456 193.551C428.49 189.425 416.722 193.281 414.797 193.754C407.284 195.583 400.415 197.244 393.449 200.298C392.722 200.608 391.993 200.94 391.265 201.291C391.243 201.297 391.234 201.329 391.229 201.366Z" fill="#263238"/>
<path d="M391.23 201.366C391.499 201.284 391.763 201.197 392.027 201.12C396.882 200.201 401.868 200.752 406.809 200.806C411.795 200.856 416.306 199.973 420.68 197.509C421.451 197.074 424.606 195.459 424.162 194.107C423.764 192.889 420.672 194.205 419.955 194.394C414.601 195.76 409.34 197.192 403.883 198.144C400.394 198.753 396.867 199.348 393.45 200.297C392.723 200.608 391.994 200.94 391.266 201.29C391.245 201.297 391.236 201.329 391.23 201.366ZM394.619 200.401C398.554 199.401 402.577 198.762 406.593 198.021C409.352 197.517 412.08 196.901 414.788 196.169C416.269 195.765 417.749 195.344 419.236 194.953C419.985 194.757 420.729 194.566 421.475 194.393C421.849 194.299 423.089 193.968 423.229 194.538C423.607 196.077 414.596 200.982 405.207 200.368C401.684 200.138 398.102 199.981 394.619 200.401Z" fill="#455A64"/>
<path d="M404.804 192.288C404.771 192.309 404.771 192.35 404.792 192.374C404.808 192.403 404.846 192.417 404.888 192.395C405.052 192.301 405.213 192.213 405.377 192.119C405.976 191.778 406.559 191.426 407.134 191.065C407.238 190.995 407.343 190.935 407.448 190.866C407.479 190.867 407.502 190.869 407.527 190.858C413.893 187.077 421.887 187.535 427.734 182.746C430.336 180.613 432.357 177.881 434.095 175.017C434.843 173.779 437.86 170.203 436.456 168.69C435.361 167.515 432.829 168.759 431.768 169.293C428.398 170.984 425.565 173.852 422.852 176.412C420.19 178.918 417.672 181.556 415.09 184.133C412.693 186.521 410.109 188.531 407.409 190.464C406.553 191.074 405.683 191.68 404.804 192.288Z" fill="#263238"/>
<path d="M404.804 192.288C404.771 192.309 404.771 192.349 404.792 192.374C405.316 192.054 405.841 191.735 406.367 191.424C406.034 191.656 405.701 191.888 405.377 192.119C405.976 191.778 406.559 191.426 407.134 191.065C407.421 190.869 407.709 190.672 408.001 190.481C411.609 188.464 415.379 186.757 419.256 185.298C421.186 184.57 422.917 183.629 424.51 182.284C427.407 179.838 432.545 173.636 432.203 172.398C431.844 171.081 429.953 173.071 429.459 173.463C425.489 176.658 421.974 180.341 417.826 183.327C415.035 185.331 412.219 187.308 409.408 189.289C408.733 189.665 408.063 190.054 407.409 190.463C406.553 191.074 405.683 191.68 404.804 192.288ZM431.658 172.53C432.149 172.907 430.803 174.581 430.452 175.026C428.747 177.157 426.941 179.294 425.026 181.246C422.993 183.322 420.597 184.409 417.912 185.392C415.709 186.199 413.504 187.158 411.357 188.245C414.113 186.413 416.852 184.553 419.479 182.56C421.659 180.902 423.665 179.048 425.691 177.209C426.701 176.287 427.713 175.374 428.76 174.499C429.042 174.259 431.218 172.192 431.658 172.53Z" fill="#455A64"/>
<path d="M359.114 213.9C359.1 213.933 359.12 213.962 359.148 213.97C359.175 213.984 359.209 213.975 359.229 213.937C359.303 213.785 359.377 213.639 359.45 213.488C359.719 212.935 359.971 212.381 360.211 211.826C360.253 211.722 360.3 211.625 360.342 211.522C360.366 211.507 360.383 211.497 360.397 211.476C363.175 205.484 369.289 201.791 371.177 195.318C372.017 192.437 372.127 189.407 371.963 186.424C371.89 185.136 372.307 180.983 370.511 180.578C369.112 180.265 367.876 182.457 367.364 183.384C365.737 186.328 365.098 189.866 364.392 193.119C363.696 196.304 363.174 199.515 362.572 202.714C362.013 205.679 361.124 208.462 360.111 211.245C359.788 212.125 359.454 213.01 359.114 213.9Z" fill="#263238"/>
<path d="M359.114 213.9C359.1 213.933 359.12 213.962 359.148 213.97C359.373 213.47 359.598 212.971 359.828 212.476C359.7 212.815 359.572 213.154 359.45 213.487C359.718 212.935 359.97 212.381 360.211 211.826C360.323 211.536 360.436 211.247 360.555 210.958C362.194 207.656 364.107 204.498 366.225 201.47C367.278 199.961 368.077 198.396 368.572 196.603C369.471 193.343 370.125 186.188 369.249 185.449C368.321 184.662 367.933 187.079 367.766 187.618C366.456 191.97 365.725 196.453 364.178 200.741C363.135 203.623 362.059 206.498 360.988 209.373C360.681 209.99 360.384 210.613 360.109 211.244C359.788 212.125 359.454 213.01 359.114 213.9ZM361.898 207.622C363.003 204.885 364.08 202.134 365.009 199.344C365.777 197.025 366.318 194.649 366.882 192.274C367.161 191.087 367.445 189.905 367.774 188.732C367.862 188.413 368.42 185.795 368.915 185.822C369.466 185.852 369.319 187.762 369.285 188.266C369.105 190.694 368.853 193.177 368.427 195.58C367.978 198.132 366.763 200.141 365.282 202.218C364.069 203.923 362.93 205.74 361.898 207.622Z" fill="#455A64"/>
<path d="M356.999 218.921C357.109 218.953 357.288 218.952 357.531 218.882C364.587 218.138 371.619 219.898 378.708 219.165C381.803 218.844 384.885 217.979 387.498 216.234C388.616 215.489 392.488 212.926 392.246 211.195C391.535 205.991 365.994 214.975 357.473 218.382C357.307 218.418 357.182 218.462 357.09 218.517C356.819 218.663 356.804 218.852 356.999 218.921Z" fill="#263238"/>
<path d="M356.999 218.921C357.543 218.787 358.092 218.648 358.641 218.517C360.362 218.307 362.087 218.132 363.822 218.054C366.572 217.931 369.31 218.154 372.059 218.192C376.357 218.253 380.591 217.323 384.395 215.304C385.221 214.872 387.629 213.771 387.504 212.514C387.387 211.368 385.501 211.963 384.856 212.081C375.699 213.794 366.605 216.14 357.557 218.418C357.395 218.449 357.242 218.478 357.089 218.517C356.819 218.663 356.804 218.852 356.999 218.921ZM361.321 217.862C364.855 217.007 368.386 216.157 371.92 215.333C374.689 214.685 377.456 214.05 380.233 213.423C381.604 213.116 382.968 212.788 384.346 212.503C384.889 212.391 386.991 211.939 386.987 212.655C386.99 213.312 385.371 214.276 385.077 214.45C380.424 217.231 375.226 217.914 369.909 217.694C367.035 217.57 364.166 217.581 361.321 217.862Z" fill="#455A64"/>
<path d="M402.109 173.002C402.032 173.078 402.005 173.161 402.013 173.241C402.022 173.361 402.113 173.467 402.239 173.512C402.296 173.541 402.363 173.548 402.43 173.545C402.467 173.559 402.507 173.559 402.55 173.537C406.362 171.387 411.712 169.865 415.581 167.857C418.55 166.311 421.204 164.236 423.597 161.893C426.241 159.308 428.702 156.391 430.646 153.233C431.571 151.726 434.016 148.228 433.113 146.264C431.265 142.218 422.521 152.806 421.368 153.944C414.925 160.273 408.486 166.605 402.109 173.002Z" fill="#263238"/>
<path d="M402.012 173.24C402.02 173.36 402.112 173.467 402.237 173.511C402.484 173.306 402.729 173.092 402.976 172.887C404.529 171.814 406.083 170.741 407.698 169.751C410.325 168.138 413.17 166.897 415.744 165.201C420.225 162.242 429.991 151.621 428.46 149.893C427.661 148.992 425.784 151.216 425.27 151.722C423.244 153.73 421.485 155.978 419.431 157.963C417.283 160.052 415.011 162.006 412.747 163.969C409.254 166.983 405.751 169.98 402.29 173.036C402.194 173.105 402.107 173.172 402.012 173.24ZM405.291 170.91C408.392 168.251 411.467 165.563 414.553 162.883C416.68 161.028 418.796 159.149 420.786 157.144C421.896 156.02 422.941 154.835 423.987 153.651C424.498 153.078 425.008 152.496 425.559 151.955C426.032 151.489 427.856 149.504 428.175 150.493C428.483 151.447 425.892 154.665 425.283 155.409C424.285 156.615 423.276 157.804 422.219 158.963C420.136 161.233 417.873 163.365 415.276 165.05C412.687 166.725 409.852 167.975 407.247 169.63C406.594 170.048 405.937 170.471 405.291 170.91Z" fill="#455A64"/>
<path d="M364.253 169.345C368.203 176.873 376.729 180.945 377.177 192.41C377.173 192.455 377.228 192.467 377.252 192.446C377.27 192.444 377.281 192.43 377.279 192.412C377.361 191.29 377.406 190.163 377.402 189.029C377.41 182.934 376.231 176.698 373.95 171.097C372.567 167.735 370.724 164.534 368.401 161.737C367.212 160.308 364.748 156.815 362.808 156.735C358.622 156.564 363.531 167.978 364.253 169.345Z" fill="#263238"/>
<path d="M365.577 165.712C366.646 170.704 370.33 174.738 372.816 179.065C374.528 182.048 375.972 185.193 376.891 188.488C377.035 189.8 377.153 191.116 377.25 192.447C377.268 192.445 377.28 192.43 377.278 192.413C377.359 191.291 377.405 190.164 377.4 189.029C377.38 188.964 377.368 188.898 377.348 188.834C377.036 185.268 376.231 181.701 375.196 178.36C373.742 173.655 371.626 169.151 368.926 165.038C368.46 164.324 367.079 161.391 365.867 161.721C364.707 162.036 365.427 165.017 365.577 165.712ZM366.111 162.201C366.953 162.118 369.576 166.614 370.588 168.433C372.771 172.345 374.447 176.543 375.567 180.881C376.06 182.782 376.4 184.674 376.661 186.582C375.941 184.481 375.031 182.445 373.981 180.474C371.791 176.371 368.657 172.716 366.82 168.445C366.339 167.33 365.969 166.157 365.778 164.953C365.704 164.474 365.344 162.277 366.111 162.201Z" fill="#455A64"/>
<path d="M379.951 138.206C378.801 141.051 377.967 144.045 377.516 147.084C376.63 153.027 377.213 158.968 379.054 164.665C379.087 164.765 379.116 164.869 379.154 164.972C379.127 165.265 379.105 165.563 379.101 165.858C379.094 165.926 379.092 165.989 379.091 166.06C379.093 166.078 379.094 166.087 379.096 166.105L379.101 166.108C379.129 166.164 379.223 166.167 379.241 166.085C379.334 165.74 379.431 165.389 379.532 165.044C381.554 157.916 384.748 151.259 385.7 143.834C385.903 142.212 387.617 131.693 383.57 132.49C381.688 132.861 380.53 136.758 379.951 138.206Z" fill="#263238"/>
<path d="M380.996 140.026C379.572 144.371 379.466 149.417 379.226 153.958C379.038 157.483 378.882 161.098 379.056 164.665C379.065 164.955 379.083 165.253 379.101 165.541C379.098 165.644 379.101 165.751 379.103 165.858C379.094 165.94 379.094 166.021 379.098 166.105L379.103 166.108C379.131 166.164 379.225 166.167 379.243 166.085C379.336 165.74 379.433 165.389 379.534 165.044C379.535 164.761 379.528 164.481 379.529 164.199C380.047 160.165 381.139 156.271 382.225 152.324C382.811 150.196 383.345 148.065 383.726 145.892C384.088 143.801 384.581 141.58 384.47 139.446C384.42 138.517 384.295 136.671 382.924 136.977C381.771 137.234 381.301 139.108 380.996 140.026ZM384.024 139.238C384.162 141.759 383.548 144.511 383.065 146.981C382.61 149.345 381.959 151.672 381.316 153.99C380.635 156.445 379.94 158.947 379.507 161.474C379.488 158.145 379.5 154.818 379.747 151.469C379.937 148.852 380.191 146.236 380.571 143.642C380.764 142.303 381.021 140.975 381.488 139.696C381.65 139.245 381.825 138.788 382.044 138.367C382.741 137.014 383.965 138.1 384.024 139.238Z" fill="#455A64"/>
<path d="M428.869 131.337C428.812 131.446 428.765 131.553 428.708 131.661C428.626 131.83 428.768 131.964 428.911 131.968C428.992 131.969 429.063 131.93 429.109 131.846C429.211 131.653 429.317 131.455 429.419 131.262L429.423 131.257C429.506 131.098 429.59 130.947 429.673 130.787C429.901 130.551 430.138 130.323 430.39 130.107C433.053 127.74 436.991 126.189 439.878 124.332C442.508 122.647 445.053 120.819 447.301 118.639C449.574 116.439 451.573 113.899 452.778 110.948C453.1 110.153 454.041 108.183 453.153 107.393C452.03 106.393 449.386 108.351 448.515 108.814C445.503 110.428 442.749 112.5 440.271 114.849C435.292 119.568 431.873 125.249 428.869 131.337Z" fill="#263238"/>
<path d="M429.828 130.067C429.483 130.475 429.158 130.899 428.869 131.337C428.812 131.446 428.765 131.553 428.708 131.661C428.626 131.83 428.768 131.964 428.911 131.968C428.957 131.892 429.004 131.816 429.055 131.744C429.178 131.585 429.296 131.421 429.419 131.262L429.423 131.257C429.733 130.862 430.055 130.482 430.389 130.107C431.563 128.784 432.873 127.591 434.351 126.423C436.823 124.477 439.365 122.622 441.765 120.584C442.967 119.562 452.214 111.69 449.835 110.068C449.39 109.757 448.736 110.293 448.398 110.495C447.211 111.211 446.154 112.156 445.14 113.088C442.77 115.257 440.477 117.522 438.261 119.851C435.214 123.059 432.363 126.444 429.828 130.067ZM437.259 121.371C439.178 119.294 441.161 117.288 443.193 115.33C444.183 114.378 445.176 113.412 446.22 112.513C446.736 112.066 449.265 110.118 449.693 110.578C450.32 111.25 447.517 114.586 446.699 115.468C445.764 116.473 444.783 117.433 443.778 118.364C441.751 120.237 439.599 121.975 437.416 123.662C435.487 125.159 433.249 126.695 431.336 128.499C433.179 126.018 435.168 123.648 437.259 121.371Z" fill="#455A64"/>
<path d="M396.982 158.807C396.987 158.929 397 159.047 397.005 159.168C397.019 159.356 397.209 159.4 397.335 159.331C397.405 159.292 397.449 159.223 397.446 159.127C397.437 158.909 397.43 158.684 397.421 158.466L397.423 158.461C397.414 158.28 397.411 158.108 397.403 157.929C397.481 157.61 397.572 157.294 397.681 156.98C398.797 153.597 401.425 150.279 402.99 147.225C404.42 144.447 405.703 141.589 406.554 138.576C407.415 135.532 407.871 132.332 407.432 129.174C407.312 128.326 407.137 126.149 405.972 125.911C404.499 125.609 403.195 128.63 402.673 129.468C400.878 132.375 399.536 135.55 398.571 138.825C396.632 145.404 396.526 152.034 396.982 158.807Z" fill="#263238"/>
<path d="M397.177 157.227C397.083 157.753 397.014 158.283 396.984 158.807C396.99 158.929 397.002 159.046 397.007 159.168C397.021 159.355 397.211 159.399 397.338 159.331C397.34 159.242 397.341 159.153 397.35 159.065C397.377 158.866 397.397 158.665 397.424 158.466L397.425 158.46C397.495 157.962 397.583 157.473 397.683 156.98C398.035 155.247 398.57 153.558 399.262 151.805C400.423 148.882 401.691 146.001 402.745 143.034C403.272 141.547 407.32 130.098 404.448 129.889C403.908 129.844 403.61 130.635 403.42 130.98C402.753 132.195 402.313 133.543 401.903 134.858C400.942 137.923 400.094 141.033 399.346 144.159C398.319 148.462 397.551 152.822 397.177 157.227ZM399.241 145.977C399.858 143.218 400.566 140.487 401.342 137.773C401.72 136.453 402.095 135.119 402.547 133.818C402.768 133.173 403.979 130.219 404.58 130.401C405.459 130.669 404.709 134.96 404.444 136.134C404.139 137.472 403.773 138.795 403.371 140.105C402.557 142.742 401.568 145.324 400.526 147.879C399.608 150.142 398.444 152.594 397.694 155.114C398.043 152.043 398.575 148.995 399.241 145.977Z" fill="#455A64"/>
<path d="M380.076 159.446C379.371 165.92 378.923 172.311 378.946 178.827C378.963 183.847 378.975 188.941 377.857 193.864C376.52 199.746 373.109 205.765 368.661 210.563C370.878 209.11 373.084 207.625 375.284 206.106C379.757 203.018 384.239 199.819 387.908 195.772C388.271 195.373 388.613 194.959 388.957 194.546C388.946 194.51 388.943 194.47 388.965 194.427C392.053 188.439 394.05 182.315 395.219 175.888C395.037 172.285 394.519 168.955 393.628 165.352C392.748 161.791 391.916 158.338 391.929 154.642C391.93 154.432 392.238 154.387 392.262 154.606C392.784 159.635 395.178 165.033 396.021 170.327C396.109 169.515 396.19 168.7 396.256 167.877C396.882 160.02 396.298 151.8 401.038 145.042C401.197 144.815 401.508 145.082 401.367 145.307C396.559 152.96 398.17 163.234 397.163 171.844C396.413 178.248 394.943 184.97 391.812 190.714C393.864 187.641 395.61 184.359 397.321 181.082C407.644 161.315 418.676 141.862 433.994 125.48C434.144 125.32 434.41 125.53 434.262 125.696C418.267 143.64 408.106 165.072 396.695 185.963C396.565 186.2 396.431 186.435 396.299 186.671C398.896 184.204 402.014 182.145 404.989 180.479C405.14 180.394 405.295 180.593 405.15 180.702C401.129 183.744 397.718 187.335 393.948 190.625C392.122 193.48 390.077 196.179 387.639 198.58C384.731 201.444 381.476 203.901 378.141 206.242C383.364 203.8 388.614 201.418 393.669 198.59C401.302 194.319 408.748 189.615 415.75 184.366C415.852 184.29 415.961 184.447 415.864 184.526C408.787 190.338 401.418 195.689 393.471 200.261C386.749 204.127 379.619 207.995 372.16 210.348C364.193 215.741 355.793 221.051 346.711 224.133C346.278 224.28 346.068 223.68 346.464 223.481C348.215 222.601 349.938 221.69 351.649 220.763C353.774 218.144 356.344 215.911 358.348 213.149C360.707 209.901 362.634 206.427 364.161 202.719C364.273 202.445 364.666 202.628 364.575 202.899C362.86 208.048 359.966 214.178 355.838 218.431C358.302 217.022 360.736 215.575 363.143 214.079C370.192 207.768 375.879 199.549 377.225 190.107C377.916 185.256 377.778 180.352 377.899 175.467C378.033 170.025 378.762 164.74 379.718 159.39C379.758 159.16 380.102 159.214 380.076 159.446Z" fill="#263238"/>
<path d="M391.524 140.002C395.715 134.931 399.341 129.438 402.762 123.831C406.17 118.214 409.289 112.42 412.165 106.509C413.621 103.56 414.934 100.545 416.282 97.5454C417.533 94.5053 418.853 91.4902 419.994 88.4046C422.426 82.2942 424.396 75.9665 426.051 69.5856C427.684 63.1899 428.899 56.6956 429.838 50.1595C430.673 43.6106 431.196 37.0175 431.239 30.4116C431.186 23.8088 430.894 17.1997 429.986 10.654C429.04 4.14104 427.72 -2.44438 424.821 -8.40088L424.588 -8.29317C425.678 -5.20818 426.489 -2.05715 426.991 1.16696C427.568 4.36864 427.944 7.60814 428.204 10.8534C428.724 17.3439 428.881 23.8633 428.668 30.3699L428.496 35.2487C428.433 36.8745 428.279 38.4965 428.176 40.1198L428.024 42.556L427.793 44.9858C427.63 46.6052 427.502 48.2291 427.311 49.8447C426.545 56.3096 425.506 62.7482 424.051 69.1003C422.537 75.4389 420.727 81.6929 418.428 87.8167C417.355 90.9049 416.102 93.9232 414.919 96.971C413.638 99.9772 412.392 103.001 411.002 105.961C408.296 111.913 405.344 117.758 402.097 123.44C398.839 129.108 395.363 134.685 391.328 139.835L391.524 140.002Z" fill="#37474F"/>
<path d="M402.153 123.767C404.04 123.334 405.682 122.341 407.266 121.31C408.05 120.776 408.821 120.223 409.547 119.617C410.305 119.042 410.998 118.4 411.703 117.766C414.463 115.174 416.955 112.313 419.268 109.325C420.419 107.827 421.532 106.301 422.648 104.774C423.694 103.205 424.735 101.623 425.599 99.9464C427.346 96.603 428.843 93.1321 429.908 89.4855L429.678 89.3713C428.49 90.8651 427.432 92.4121 426.42 93.979C425.389 95.5349 424.353 97.0781 423.377 98.6526C422.4 100.227 421.393 101.774 420.505 103.401C419.572 104.995 418.61 106.578 417.598 108.125C415.542 111.196 413.306 114.149 410.796 116.855C410.168 117.53 409.547 118.217 408.864 118.835C408.209 119.488 407.511 120.087 406.797 120.672C405.357 121.796 403.827 122.92 402.105 123.515L402.153 123.767Z" fill="#37474F"/>
<path d="M410.962 107.788C408.502 102.064 406.806 96.0331 405.521 89.9587C404.226 83.8842 403.304 77.727 402.98 71.5359C402.641 65.346 402.806 59.1574 403.129 52.9887C403.163 49.8903 403.526 46.8188 403.713 43.7145C403.778 42.1573 404.021 40.6244 404.174 39.0729C404.31 37.517 404.493 35.9668 404.589 34.3916L404.338 34.3358C402.426 40.316 401.081 46.5226 400.563 52.8144C399.865 59.1029 400.353 65.4467 400.93 71.7051C401.518 77.9783 402.71 84.1778 404.271 90.2587C405.906 96.321 407.942 102.283 410.732 107.903L410.962 107.788Z" fill="#37474F"/>
<path d="M420.689 84.4676C424.846 81.2242 428.199 77.0737 431.061 72.6475C433.873 68.1746 436.063 63.324 437.777 58.3099C438.53 55.773 439.37 53.2477 439.883 50.6423C440.124 49.3396 440.504 48.0541 440.631 46.7328C440.787 45.416 440.915 44.0947 441.036 42.7753C441.278 40.1352 441.124 37.4766 441.093 34.8423C440.911 32.2073 440.52 29.5846 440.105 26.9945L439.848 27.0118C439.567 29.6416 439.437 32.24 439.284 34.8243C439.128 36.1149 439.023 37.4028 438.894 38.6876C438.782 39.973 438.715 41.2597 438.476 42.5285C438.096 45.0743 437.889 47.6368 437.383 50.1576C437.073 52.7188 436.405 55.2012 435.809 57.7098C434.386 62.6534 432.49 67.4822 429.957 71.9891C427.451 76.4903 424.414 80.8024 420.535 84.2624L420.689 84.4676Z" fill="#37474F"/>
<path d="M426.366 64.1696C426.153 58.953 425.894 53.7389 425.555 48.5216C425.358 45.9142 425.146 43.31 424.849 40.695C424.692 39.3974 424.534 38.0536 424.218 36.7413C423.921 35.4341 423.58 34.1749 423.24 32.9068C421.843 27.8588 420.565 22.7902 418.815 17.8729C417.134 12.9429 415.118 8.09162 413.288 3.24744L413.031 3.26667C413.197 5.95738 413.804 8.50257 414.384 11.0593C414.975 13.6115 415.66 16.1343 416.362 18.648C417.753 23.6807 419.667 28.5461 421.267 33.4922C421.665 34.725 422.066 35.9675 422.408 37.1894C422.765 38.3998 422.974 39.6448 423.193 40.9271C423.612 43.4799 423.952 46.0636 424.276 48.6472C424.954 53.8145 425.555 58.9991 426.11 64.187L426.366 64.1696Z" fill="#37474F"/>
<path d="M397.523 131.679C397.116 128.847 396.839 125.997 396.709 123.147C396.532 120.302 396.489 117.453 396.575 114.616C396.63 111.773 397.044 108.964 397.091 106.142C397.108 103.306 397.27 100.493 397.066 97.5423L396.814 97.4935C395.62 100.189 394.894 103.049 394.526 105.938C394.305 107.381 394.287 108.84 394.289 110.295C394.373 111.751 394.4 113.203 394.517 114.65C394.689 117.545 394.992 120.426 395.43 123.283C395.909 126.133 396.458 128.967 397.272 131.737L397.523 131.679Z" fill="#37474F"/>
<path d="M416.294 111.79C417.83 108.47 419.114 105.048 420.223 101.548C420.758 99.795 421.496 98.0653 421.617 96.1991C421.754 94.3501 421.732 92.4345 421.085 90.5798L420.828 90.5728C420.056 92.3467 419.547 94.0341 419.082 95.7612C418.604 97.4742 418.534 99.2841 418.224 101.059C417.927 102.835 417.571 104.607 417.189 106.377C416.847 108.158 416.441 109.927 416.051 111.705L416.294 111.79Z" fill="#37474F"/>
<path d="M402.008 71.1929C401.055 69.2888 400.12 67.379 399.262 65.4396C398.369 63.5195 397.523 61.5808 396.771 59.6165C396.005 57.6553 395.495 55.6134 394.672 53.7202C393.857 51.8059 393.047 49.9377 392.105 47.9253L391.85 47.9516C391.382 50.1736 391.711 52.4265 392.234 54.5434C392.746 56.6892 393.912 58.5651 394.901 60.4749C395.91 62.3822 397.001 64.2331 398.132 66.0532C399.306 67.8489 400.483 69.6337 401.792 71.332L402.008 71.1929Z" fill="#37474F"/>
<path d="M405.054 90.3849C406.541 86.9993 407.707 83.4873 408.666 79.8952C409.122 78.0975 409.754 76.2992 409.777 74.4086C409.801 72.5289 409.639 70.6011 408.882 68.7759L408.625 68.7849C407.96 70.6261 407.577 72.3622 407.22 74.1265C406.832 75.878 406.874 77.6994 406.645 79.5022C406.424 81.3031 406.143 83.1039 405.817 84.9003C405.531 86.7069 405.171 88.5033 404.809 90.3048L405.054 90.3849Z" fill="#37474F"/>
<path d="M395.928 120.572C394.592 118.287 393.511 115.886 392.569 113.497C392.096 112.293 391.94 110.997 391.353 109.874C390.766 108.734 390.22 107.599 389.272 106.433L389.018 106.476C388.57 107.902 388.62 109.347 388.916 110.699C389.186 112.072 390.02 113.23 390.717 114.394C391.408 115.569 392.173 116.691 393.009 117.752C393.868 118.798 394.736 119.823 395.729 120.736L395.928 120.572Z" fill="#37474F"/>
<path d="M424.518 43.7555C423.632 41.6982 422.673 39.6793 421.739 37.6451L418.786 31.6207C417.775 29.6262 416.938 27.5221 415.626 25.6924C414.327 23.8639 412.91 22.0676 411.041 20.6334L410.832 20.7828C411.519 23.0036 412.424 25.0192 413.42 27.0137C414.393 29.0133 415.798 30.7648 416.999 32.6419L420.616 38.2715L424.292 43.8786L424.518 43.7555Z" fill="#37474F"/>
<path d="M438.769 50.6301C439.628 49.3671 440.407 48.0624 441.212 46.7668C441.995 45.4608 442.749 44.1376 443.465 42.7926C444.183 41.4501 445.103 40.1826 445.501 38.6876C445.912 37.2066 446.217 35.6558 445.998 33.9889L445.753 33.912C444.624 35.1282 443.836 36.3988 443.118 37.7208C442.385 39.0293 442.1 40.5346 441.587 41.9534C440.544 44.7787 439.55 47.6457 438.539 50.5147L438.769 50.6301Z" fill="#37474F"/>
<path d="M430.072 30.8648C431.376 28.6787 432.381 26.3354 433.267 23.9396C434.104 21.5278 434.749 19.0397 435.199 16.5022C435.453 15.236 435.596 13.9512 435.771 12.6607C435.854 11.3669 435.928 10.0584 435.732 8.76532C435.634 8.11908 435.554 7.47413 435.44 6.83431C435.27 6.20026 435.126 5.56621 434.93 4.94434C434.605 3.6897 433.988 2.50173 433.379 1.36377L433.131 1.43237C433.033 4.05192 433.254 6.46119 433.164 8.9147C433.117 11.3406 433.376 13.7832 433.157 16.2451C432.977 18.6999 432.604 21.1579 432.032 23.58C431.496 26.011 430.762 28.4132 429.844 30.7449L430.072 30.8648Z" fill="#37474F"/>
<path d="M150.197 140.661C150.079 134.084 149.258 127.554 148.207 121.07C147.139 114.587 145.737 108.158 144.074 101.797C143.261 98.611 142.296 95.4677 141.367 92.3122C140.339 89.19 139.379 86.0415 138.238 82.9565C136.108 76.734 133.486 70.648 130.59 64.7261C127.669 58.8074 124.365 53.0855 120.825 47.5111C117.198 41.9951 113.305 36.6483 109.038 31.6041C104.701 26.6252 100.179 21.7971 95.2297 17.4177C90.2733 13.0883 84.9862 8.9468 78.9085 6.30994L78.8008 6.5433C81.6357 8.17683 84.3027 10.0405 86.7812 12.1626C89.3027 14.2186 91.696 16.4336 94.0052 18.7281C98.6237 23.3184 102.985 28.1665 107.057 33.2453L110.101 37.0618C111.112 38.3376 112.05 39.6685 113.028 40.9693L114.498 42.9176L115.904 44.9134C116.834 46.2488 117.793 47.565 118.7 48.9165C122.325 54.3235 125.726 59.8883 128.755 65.6589C131.73 71.457 134.426 77.3834 136.665 83.529C137.859 86.5723 138.873 89.6791 139.957 92.7635C140.94 95.8799 141.962 98.9867 142.832 102.138C144.651 108.419 146.214 114.778 147.445 121.205C148.66 127.629 149.649 134.126 149.938 140.662L150.197 140.661Z" fill="#37474F"/>
<path d="M147.702 121.42C148.854 119.864 149.455 118.042 149.986 116.227C150.233 115.312 150.46 114.39 150.616 113.457C150.817 112.527 150.926 111.589 151.048 110.649C151.457 106.884 151.488 103.09 151.3 99.3168C151.199 97.4313 151.051 95.5471 150.905 93.661C150.678 91.789 150.438 89.9099 150.003 88.0751C149.154 84.399 148.032 80.7902 146.468 77.3282L146.219 77.3911C146.289 79.2984 146.492 81.1614 146.743 83.0097C146.973 84.8619 147.19 86.7076 147.473 88.5386C147.756 90.3696 147.998 92.1993 148.382 94.0123C148.711 95.8299 149.011 97.6583 149.249 99.4912C149.686 103.161 149.911 106.859 149.766 110.546C149.728 111.467 149.703 112.393 149.587 113.306C149.515 114.229 149.375 115.138 149.213 116.046C148.851 117.837 148.421 119.686 147.501 121.258L147.702 121.42Z" fill="#37474F"/>
<path d="M143.988 103.556C138.395 100.81 133.183 97.3351 128.254 93.559C123.319 89.7887 118.612 85.7145 114.337 81.2236C110.052 76.7442 106.15 71.9378 102.381 67.0443C100.39 64.6696 98.6675 62.1007 96.7891 59.6222C95.8248 58.3977 95.0119 57.0757 94.1182 55.798C93.2091 54.5286 92.3398 53.2317 91.3871 51.9725L91.1602 52.0937C93.6002 57.8784 96.6172 63.4669 100.318 68.5816C103.881 73.8105 108.379 78.3097 112.89 82.6866C117.419 87.0666 122.359 90.9985 127.501 94.6002C132.688 98.1391 138.113 101.341 143.889 103.793L143.988 103.556Z" fill="#37474F"/>
<path d="M136.202 79.517C137.248 74.3491 137.092 69.0157 136.385 63.7926C135.61 58.5664 134.116 53.458 132.155 48.5356C131.075 46.1193 130.069 43.6556 128.764 41.3431C128.099 40.1968 127.551 38.9736 126.787 37.8882C126.049 36.7868 125.286 35.7007 124.52 34.6192C122.986 32.4574 121.139 30.5386 119.401 28.5582C117.548 26.6759 115.545 24.9392 113.543 23.2428L113.359 23.4229C114.857 25.6027 116.45 27.66 118.015 29.7218C118.736 30.804 119.495 31.8496 120.233 32.9094C120.985 33.9576 121.771 34.9789 122.415 36.0976C123.783 38.278 125.294 40.3577 126.55 42.6016C127.98 44.748 129.09 47.0675 130.269 49.3601C132.405 54.0402 134.107 58.9408 135.117 64.0113C136.144 69.06 136.644 74.3106 135.95 79.4612L136.202 79.517Z" fill="#37474F"/>
<path d="M127.304 60.4121C123.747 56.5899 120.157 52.799 116.505 49.0582C114.658 47.2067 112.803 45.3673 110.875 43.5748C109.912 42.6914 108.917 41.7739 107.824 40.9835C106.747 40.184 105.67 39.4499 104.585 38.7088C100.24 35.7848 95.9716 32.7677 91.4435 30.1725C86.9589 27.5235 82.2712 25.1514 77.729 22.6646L77.5469 22.8466C79.4234 24.7815 81.541 26.3188 83.6451 27.8831C85.7549 29.4365 87.9161 30.9066 90.0856 32.358C94.4163 35.2744 99.0361 37.7228 103.469 40.4379C104.574 41.1149 105.688 41.797 106.741 42.5029C107.801 43.1895 108.769 43.9992 109.77 44.8301C111.749 46.4963 113.688 48.2369 115.615 49.9878C119.492 53.4696 123.322 57.0156 127.12 60.5936L127.304 60.4121Z" fill="#37474F"/>
<path d="M149.335 130.441C147.183 128.554 145.118 126.571 143.165 124.492C141.179 122.447 139.293 120.311 137.512 118.101C135.704 115.906 134.19 113.504 132.389 111.331C130.557 109.166 128.849 106.925 126.775 104.817L126.551 104.944C127.398 107.768 128.708 110.412 130.309 112.845C131.081 114.085 132.016 115.205 132.964 116.308C133.975 117.359 134.941 118.444 135.972 119.466C137.987 121.553 140.092 123.543 142.282 125.428C144.5 127.281 146.762 129.075 149.183 130.649L149.335 130.441Z" fill="#37474F"/>
<path d="M150.645 103.124C149.652 99.6041 148.399 96.1703 146.963 92.7904C146.229 91.1114 145.663 89.3182 144.541 87.8219C143.443 86.3287 142.18 84.8882 140.481 83.9009L140.281 84.0631C140.849 85.9127 141.561 87.525 142.332 89.1393C143.084 90.7511 144.208 92.1705 145.127 93.7207C146.058 95.2625 146.941 96.8396 147.803 98.4315C148.702 100.007 149.545 101.615 150.406 103.219L150.645 103.124Z" fill="#37474F"/>
<path d="M113.38 81.5948C111.418 80.769 109.465 79.9273 107.551 79.0131C105.624 78.136 103.72 77.2148 101.871 76.2121C100.012 75.2216 98.2965 74.0028 96.4392 73.1014C94.5749 72.1776 92.7439 71.2871 90.7199 70.371L90.543 70.5575C91.6335 72.5494 93.3497 74.0458 95.1249 75.3126C96.9098 76.6089 99.0158 77.2744 101.01 78.0809C103.017 78.8727 105.049 79.5683 107.092 80.2145C109.153 80.8139 111.208 81.4031 113.306 81.841L113.38 81.5948Z" fill="#37474F"/>
<path d="M128.184 94.1843C127.109 90.646 125.71 87.2206 124.1 83.8689C123.277 82.2072 122.586 80.4307 121.374 78.9798C120.168 77.5367 118.791 76.1782 117.029 75.2852L116.84 75.4589C117.533 77.2893 118.372 78.8567 119.249 80.4294C120.095 82.0116 121.312 83.3669 122.311 84.8851C123.314 86.3968 124.273 87.947 125.195 89.5228C126.153 91.0807 127.049 92.6796 127.946 94.2824L128.184 94.1843Z" fill="#37474F"/>
<path d="M140.896 123.044C138.395 122.179 136.012 121.058 133.742 119.857C132.6 119.251 131.637 118.369 130.46 117.898C129.273 117.414 128.12 116.907 126.641 116.64L126.477 116.837C127.064 118.212 128.043 119.275 129.147 120.11C130.246 120.977 131.633 121.313 132.92 121.743C134.21 122.186 135.521 122.541 136.846 122.802C138.178 123.037 139.504 123.25 140.853 123.297L140.896 123.044Z" fill="#37474F"/>
<path d="M112.614 46.1142C110.603 45.1281 108.561 44.219 106.528 43.2824L100.365 40.6302C98.2998 39.7736 96.2957 38.7209 94.1089 38.185C91.933 37.642 89.6878 37.1996 87.335 37.3272L87.2734 37.5772C89.2403 38.8158 91.2387 39.7576 93.2928 40.6244C95.3334 41.5091 97.5394 41.9245 99.6737 42.5682L106.083 44.489L112.523 46.3546L112.614 46.1142Z" fill="#37474F"/>
<path d="M127.911 42.0592C127.742 40.541 127.484 39.0434 127.253 37.5356C126.998 36.0341 126.709 34.539 126.378 33.0517C126.049 31.565 125.923 30.0045 125.252 28.6101C124.6 27.2183 123.823 25.8431 122.572 24.7192L122.335 24.8205C122.27 26.4784 122.499 27.9562 122.813 29.4275C123.108 30.8982 123.871 32.2266 124.404 33.6376C125.451 36.4611 126.562 39.2851 127.661 42.1214L127.911 42.0592Z" fill="#37474F"/>
<path d="M108.444 32.7112C108.011 30.2032 107.249 27.7696 106.364 25.3738C105.429 22.9978 104.3 20.6892 102.99 18.4691C102.359 17.342 101.632 16.2733 100.925 15.1802C100.146 14.1435 99.3514 13.1018 98.3603 12.2472C97.8653 11.8208 97.3845 11.383 96.8819 10.9714C96.3408 10.6002 95.8183 10.2129 95.265 9.86803C94.2021 9.12691 92.9609 8.62621 91.7569 8.1582L91.6133 8.37169C93.243 10.4251 94.9791 12.11 96.5068 14.0314C98.0493 15.904 99.8361 17.5901 101.272 19.6019C102.732 21.5829 104.049 23.6922 105.191 25.9027C106.365 28.0978 107.371 30.3994 108.192 32.7676L108.444 32.7112Z" fill="#37474F"/>
<path d="M27.304 84.1245C26.0192 80.8491 38.2944 89.8162 48.5822 92.5102C64.9297 96.7908 82.0414 103.918 89.0154 114.773C92.3228 119.922 86.1894 113.947 73.6763 111.409C63.3321 109.311 38.7765 113.381 27.304 84.1245Z" fill="#455A64"/>
<path d="M27.3281 83.4738C29.2764 85.7785 31.4568 87.8634 33.802 89.7258C36.135 91.601 38.6269 93.2666 41.2497 94.6706C43.8814 96.0522 46.6228 97.228 49.4789 98.0159C50.1886 98.2262 50.9079 98.3942 51.6273 98.575L53.8346 99.0904C55.3059 99.4379 56.7747 99.7969 58.2409 100.173C64.089 101.715 69.9141 103.488 75.461 105.997C78.2305 107.251 80.9219 108.702 83.4273 110.435C85.9045 112.194 88.235 114.22 90.014 116.671C87.9734 114.443 85.5962 112.581 83.0234 111.055C80.468 109.502 77.758 108.221 74.9949 107.08C72.2182 105.964 69.3961 104.957 66.5272 104.083C63.6653 103.19 60.7733 102.378 57.8607 101.638C56.408 101.253 54.9507 100.885 53.489 100.528L51.2952 99.9976C50.5541 99.804 49.8033 99.6302 49.0737 99.3898C46.1368 98.491 43.3115 97.246 40.674 95.7003C35.4041 92.6088 30.7785 88.4365 27.3281 83.4738Z" fill="white"/>
<path d="M36.6602 12.3048C42.2076 9.85514 52.0313 43.6997 50.7709 44.2568C49.5098 44.8133 30.3568 15.0891 36.6602 12.3048Z" fill="#FCC42C"/>
<path d="M49.027 3.52618C55.0848 3.24794 52.0056 38.3548 50.6285 38.4183C49.252 38.4811 42.1428 3.84225 49.027 3.52618Z" fill="#FCC42C"/>
<path d="M63.3938 5.45841C69.1169 7.46507 53.1348 38.8747 51.8347 38.4189C50.5339 37.9624 56.8917 3.17736 63.3938 5.45841Z" fill="#FCC42C"/>
<path d="M70.8596 18.1966C75.6115 21.965 50.2378 46.4212 49.1576 45.5653C48.0773 44.7088 65.4596 13.9153 70.8596 18.1966Z" fill="#FCC42C"/>
<path d="M44.5823 36.1725C44.2252 35.257 47.9679 32.6772 51.8928 32.9445C55.8176 33.2112 59.0334 36.9777 58.5699 37.6457C54.7175 43.2022 51.1068 54.0548 49.822 54.1221C47.6993 54.2324 47.7621 44.3119 44.5823 36.1725Z" fill="#455A64"/>
<path d="M82.4917 48.5343C78.4829 46.4263 69.4382 71.1447 70.3492 71.6243C71.2608 72.1025 87.0474 50.9294 82.4917 48.5343Z" fill="#FCC42C"/>
<path d="M73.7258 41.3622C69.2259 40.8468 69.7317 67.1628 70.7543 67.2801C71.7775 67.3975 78.8392 41.9482 73.7258 41.3622Z" fill="#FCC42C"/>
<path d="M62.9205 42.07C58.554 43.274 68.8623 67.493 69.8541 67.2186C70.8471 66.9455 67.882 40.7019 62.9205 42.07Z" fill="#FCC42C"/>
<path d="M56.7089 51.182C52.9757 53.7477 70.6375 73.2642 71.4857 72.6814C72.3338 72.098 60.9504 48.2662 56.7089 51.182Z" fill="#FCC42C"/>
<path d="M75.3706 65.9152C75.6841 65.2511 73.0261 63.138 70.0879 63.1373C67.1497 63.1367 64.5616 65.7793 64.8732 66.3012C67.4613 70.6376 69.5988 78.9085 70.5527 79.0239C72.1279 79.2137 72.5863 71.8179 75.3706 65.9152Z" fill="#455A64"/>
<path d="M50.2455 48.0566C49.7153 53.0656 49.7415 58.1194 50.4628 63.0578C50.8244 65.5216 51.2898 67.9725 52.0463 70.3312C52.3733 71.5262 52.8387 72.6706 53.2683 73.8252C53.4619 74.4118 53.7735 74.9465 54.0196 75.5094C54.294 76.0588 54.5133 76.6364 54.8313 77.1609C57.1142 81.5043 60.5685 85.0913 64.276 88.409C67.981 91.7402 71.9411 94.8528 75.7851 98.1557C79.601 101.484 83.3412 105.006 86.4845 109.096C88.0443 111.143 89.449 113.326 90.6062 115.645C90.8966 116.223 91.1524 116.82 91.4261 117.406C91.6775 118.004 91.9083 118.61 92.1442 119.213L92.7449 121.062L93.2424 122.905C94.5631 127.815 95.4907 132.836 95.8523 137.9C96.0427 140.431 96.0697 142.971 95.978 145.5C95.8825 148.028 95.6485 150.559 95.0945 153.022C95.6446 148.012 95.4202 142.967 94.7458 138.013C94.6047 136.771 94.3765 135.539 94.1899 134.304C93.9386 133.079 93.7457 131.845 93.4469 130.632C93.1597 129.416 92.9058 128.195 92.5647 126.993L92.0852 125.185L91.5403 123.394C90.8562 120.971 89.983 118.73 88.8361 116.55C87.6962 114.384 86.3204 112.341 84.7882 110.415C81.7346 106.546 78.0937 103.131 74.3016 99.872C70.5345 96.5761 66.5699 93.4532 62.831 89.9919C60.9705 88.2539 59.1626 86.4344 57.5079 84.4566C57.0899 83.9662 56.702 83.4469 56.2994 82.9423C55.9276 82.4109 55.5262 81.9031 55.182 81.3505C54.4453 80.2747 53.8895 79.1008 53.2631 77.9693C52.949 77.4038 52.7374 76.7903 52.4701 76.2037C52.2316 75.6042 51.9277 75.0311 51.7456 74.4124C51.3366 73.1924 50.8936 71.9839 50.6205 70.7293C49.9614 68.2508 49.5941 65.7133 49.3639 63.1809C49.1408 60.6434 49.1646 58.0983 49.2883 55.571C49.4229 53.0431 49.7076 50.5223 50.2455 48.0566Z" fill="#455A64"/>
<path d="M69.2278 69.5387C69.9068 72.6154 70.5774 75.6452 71.2871 78.6571C71.664 80.158 71.9955 81.6645 72.4199 83.1461C72.7969 84.6399 73.2264 86.1151 73.6662 87.5871C74.5778 90.5182 75.5664 93.4134 76.7326 96.2522C77.9558 99.0641 79.3438 101.789 80.9786 104.495C78.6174 102.399 76.7063 99.795 75.1401 97.0273C73.6277 94.2283 72.4218 91.2721 71.4948 88.2416C70.6126 85.199 69.9407 82.1031 69.5509 78.9725C69.1592 75.8465 68.9695 72.6872 69.2278 69.5387Z" fill="#455A64"/>
<path d="M445.795 53.215C441.173 49.2889 422.132 78.9445 423.182 79.8362C424.233 80.7287 451.047 57.6765 445.795 53.215Z" fill="#FCC42C"/>
<path d="M436.434 41.2828C430.705 39.2941 423.676 73.8272 424.978 74.2791C426.28 74.7311 442.944 43.5427 436.434 41.2828Z" fill="#FCC42C"/>
<path d="M422.111 39.0498C416.054 39.3466 422.446 74.0034 423.822 73.9361C425.2 73.8688 428.994 38.7119 422.111 39.0498Z" fill="#FCC42C"/>
<path d="M411.333 49.1408C405.706 51.4026 423.08 82.0641 424.358 81.5499C425.638 81.0357 417.728 46.5706 411.333 49.1408Z" fill="#FCC42C"/>
<path d="M431.411 73.8451C432.013 73.0687 429.159 69.5317 425.32 68.672C421.481 67.8123 417.327 70.5088 417.581 71.2813C419.695 77.7039 420.072 89.1354 421.284 89.5649C423.288 90.2734 426.049 80.744 431.411 73.8451Z" fill="#455A64"/>
<path d="M430.152 87.7859C434.302 89.6015 420.639 112.098 419.695 111.686C418.753 111.273 425.437 85.7228 430.152 87.7859Z" fill="#FCC42C"/>
<path d="M441.229 90.1573C444.441 93.3506 423.568 109.385 422.837 108.659C422.108 107.933 437.58 86.5286 441.229 90.1573Z" fill="#FCC42C"/>
<path d="M447.422 99.0405C449.207 103.203 423.852 110.271 423.447 109.324C423.041 108.378 445.393 94.3104 447.422 99.0405Z" fill="#FCC42C"/>
<path d="M444.18 109.58C444.506 114.097 418.235 112.485 418.16 111.458C418.086 110.432 443.81 104.446 444.18 109.58Z" fill="#FCC42C"/>
<path d="M421.02 104.199C421.343 103.54 424.654 104.297 426.488 106.592C428.323 108.886 427.874 112.558 427.272 112.641C422.269 113.327 414.473 116.82 413.788 116.147C412.657 115.034 418.148 110.059 421.02 104.199Z" fill="#455A64"/>
<path d="M422.605 83.629C421.689 88.5816 420.228 93.42 418.132 97.9494C417.085 100.209 415.942 102.426 414.547 104.472C413.893 105.525 413.122 106.49 412.382 107.474C412.029 107.981 411.578 108.406 411.182 108.875C410.763 109.324 410.388 109.815 409.935 110.228C406.511 113.743 402.179 116.2 397.682 118.327C393.182 120.467 388.501 122.325 383.877 124.399C379.272 126.505 374.685 128.818 370.509 131.845C368.431 133.364 366.463 135.058 364.695 136.952C364.252 137.423 363.837 137.923 363.408 138.407C362.997 138.908 362.604 139.424 362.206 139.935L361.105 141.537L360.104 143.162C357.442 147.493 355.125 152.044 353.338 156.796C352.436 159.168 351.688 161.596 351.057 164.047C350.43 166.498 349.935 168.991 349.766 171.51C350.663 166.551 352.312 161.778 354.367 157.219C354.856 156.069 355.425 154.953 355.955 153.822C356.544 152.72 357.08 151.591 357.711 150.513C358.333 149.429 358.923 148.33 359.592 147.275L360.566 145.677L361.597 144.115C362.942 141.987 364.416 140.087 366.136 138.323C367.844 136.57 369.744 135.003 371.761 133.592C375.788 130.75 380.25 128.511 384.812 126.466C389.361 124.376 394.049 122.509 398.618 120.255C400.896 119.117 403.147 117.887 405.296 116.461C405.836 116.11 406.355 115.722 406.884 115.353C407.391 114.949 407.921 114.576 408.408 114.144C409.42 113.322 410.287 112.355 411.209 111.448C411.671 110.995 412.049 110.468 412.471 109.981C412.87 109.475 413.325 109.011 413.675 108.47C414.414 107.417 415.183 106.384 415.801 105.259C417.138 103.07 418.211 100.741 419.152 98.3789C420.088 96.01 420.788 93.5629 421.389 91.1043C421.976 88.6431 422.419 86.1454 422.605 83.629Z" fill="#455A64"/>
<path d="M422.026 111.263C419.199 112.653 416.413 114.021 413.617 115.347C412.21 115.989 410.825 116.671 409.403 117.265C408.001 117.903 406.581 118.488 405.156 119.063C402.297 120.18 399.418 121.216 396.473 122.077C393.513 122.877 390.518 123.494 387.383 123.906C390.494 124.442 393.721 124.31 396.862 123.805C399.992 123.239 403.055 122.336 406 121.168C408.928 119.957 411.766 118.549 414.455 116.899C417.142 115.254 419.728 113.43 422.026 111.263Z" fill="#455A64"/>
<path d="M96.4926 114.824C97.61 117.905 97.3818 121.704 97.2446 124.916C97.0914 128.601 96.6227 132.253 95.963 135.877C95.3533 139.253 94.577 142.594 93.7422 145.913C93.7333 145.944 93.7236 145.975 93.7147 146.006C93.6621 146.227 93.6063 146.444 93.5499 146.66C93.5191 146.929 93.4839 147.201 93.4371 147.478C93.4217 147.559 93.3608 147.607 93.2941 147.616C93.2037 147.632 93.112 147.581 93.1242 147.464C93.1383 147.316 93.1563 147.164 93.1665 147.02C93.7063 140.788 90.1123 135.099 89.8943 128.925C89.7764 125.542 90.5899 122.151 91.2201 118.847C91.5682 117.018 91.6574 114.646 92.369 112.926C92.5568 112.468 92.6011 111.977 93.1127 111.732C94.6911 110.989 96.1041 113.746 96.4926 114.824Z" fill="#263238"/>
<path d="M95.0153 117.133C94.0357 116.328 93.4594 118.562 93.2683 119.172C91.9848 123.286 91.2674 128.188 92.0021 132.447C92.801 137.128 93.6504 141.814 93.3036 146.556C93.2581 146.71 93.2119 146.865 93.1664 147.019C93.1561 147.164 93.1382 147.316 93.1241 147.464C93.1113 147.58 93.2029 147.632 93.294 147.616C93.31 147.518 93.3254 147.429 93.3369 147.335C93.4735 146.895 93.5979 146.45 93.7145 146.005C93.7235 145.974 93.7331 145.944 93.7421 145.912C94.5582 142.737 94.9275 139.41 95.3814 136.199C96.0212 131.655 96.4803 127.043 96.1116 122.455C96.0257 121.348 95.8969 120.242 95.6968 119.15C95.5987 118.602 95.4962 117.525 95.0153 117.133ZM95.5667 119.908C95.7443 121.067 95.859 122.23 95.9225 123.404C96.1424 127.437 95.7622 131.48 95.2199 135.478C94.757 138.891 94.3787 142.444 93.5023 145.825C93.7229 143.129 93.5408 140.42 93.1587 137.723C92.8773 135.699 92.4528 133.708 92.1515 131.687C91.8066 129.406 92.0547 127.157 92.3945 124.886C92.7022 122.809 92.9824 120.554 93.7588 118.587C93.9171 118.186 94.3723 117.298 94.7192 117.359C95.334 117.468 95.5 119.451 95.5667 119.908Z" fill="#455A64"/>
<path d="M68.5041 162.424C68.5128 162.416 68.5002 162.403 68.4922 162.411L68.5041 162.424Z" fill="#263238"/>
<path d="M93.4585 205.473C93.5348 205.523 93.5515 205.59 93.529 205.656V205.664C93.5149 205.722 93.4656 205.775 93.4027 205.788C93.363 205.794 93.3162 205.792 93.2739 205.77C89.4612 203.842 85.8185 200.775 81.4006 200.551C77.9444 200.369 74.9742 200.798 71.6917 199.382C68.3862 197.957 65.3371 195.733 62.9099 193.081C61.7918 191.863 60.7917 190.529 59.9159 189.125C59.4986 188.449 58.1337 186.767 58.3273 185.898C59.2165 181.845 71.2436 189.055 72.8425 190.028C79.9165 194.33 87.1167 199.17 93.0174 205.016C93.036 205.036 93.0431 205.06 93.0341 205.083C93.029 205.111 93.0162 205.138 92.9918 205.152C93.1463 205.256 93.3027 205.361 93.4585 205.473Z" fill="#263238"/>
<path d="M93.4582 205.473C93.3024 205.361 93.1466 205.256 92.9902 205.152C93.0145 205.137 93.0273 205.11 93.0325 205.083C89.123 202.117 84.9751 199.423 80.8105 196.835C76.3368 194.057 71.7568 191.211 66.9485 189.042C66.292 188.744 63.5583 187.108 62.9852 188.168C62.4332 189.186 65.256 191.655 65.8593 192.197C69.4264 195.387 74.0814 196.85 78.5813 198.169C81.5041 199.03 84.3737 199.849 86.9901 201.463C89.1871 202.817 91.2207 204.419 93.4018 205.788C93.4646 205.775 93.5139 205.723 93.5281 205.664C92.4112 204.955 91.3329 204.173 90.2578 203.403C91.3496 204.15 92.4407 204.905 93.5281 205.657C93.5505 205.591 93.5338 205.523 93.4582 205.473ZM83.6031 199.452C79.225 197.742 74.5283 196.994 70.3105 194.837C68.291 193.808 66.3901 192.49 64.8649 190.797C64.5694 190.475 63.1448 189.044 63.4673 188.475C63.6827 188.094 64.8207 188.442 64.9861 188.509C66.235 188.969 67.4402 189.529 68.6237 190.131C72.746 192.233 76.7471 194.611 80.6752 197.049C82.8569 198.402 84.9924 199.812 87.1119 201.253C86.0028 200.559 84.843 199.935 83.6031 199.452Z" fill="#455A64"/>
<path d="M76.0617 121.57C76.5361 125.226 75.7982 129.043 74.8025 132.563C72.4907 140.7 68.0267 148.261 66.6118 156.656C66.5547 156.986 66.5054 157.317 66.4598 157.644C66.5355 158.078 66.4772 157.973 66.3387 157.462C66.3387 157.462 66.331 157.462 66.3348 157.458C65.7213 155.228 63.6005 145.387 64.5705 138.323C65.1808 133.918 66.6971 129.755 68.221 125.6C69.0929 123.229 69.9423 120.85 70.8296 118.488C71.1168 117.729 71.5182 115.566 72.6645 115.4C74.8827 115.068 75.8725 120.136 76.0617 121.57Z" fill="#263238"/>
<path d="M72.2151 122.302C71.8124 122.1 71.5054 122.24 71.229 122.561C70.9194 122.936 70.861 123.567 70.7489 124.001C70.5238 124.868 70.2994 125.727 70.0783 126.591C68.5364 132.55 66.465 138.634 65.8893 144.787C65.5078 148.861 65.7239 152.989 66.3291 157.059C66.331 157.192 66.3336 157.325 66.3355 157.458C66.3316 157.462 66.3393 157.462 66.3393 157.462C66.4778 157.973 66.5362 158.077 66.4605 157.644C66.506 157.317 66.5554 156.986 66.6124 156.656C66.6124 156.198 66.6278 155.74 66.6554 155.28C66.8497 152.098 67.7587 149.048 68.7364 146.033C70.5854 140.303 72.224 134.465 72.9376 128.471C73.0876 127.147 73.2248 125.767 73.0741 124.433C73.0075 123.827 72.8587 122.627 72.2151 122.302ZM72.7517 124.227C72.8055 124.531 72.8286 124.81 72.8388 125.115C72.8703 125.746 72.8356 126.387 72.7927 127.02C72.6843 128.553 72.4439 130.066 72.1798 131.577C71.2297 136.978 69.6353 142.136 68.0113 147.359C67.2087 149.936 66.5413 152.562 66.3746 155.267C66.1502 153.003 66.0278 150.735 66.0335 148.477C66.054 142.668 67.6741 137.171 69.1057 131.591C69.4622 130.213 69.8186 128.827 70.1744 127.449C70.3488 126.755 70.527 126.066 70.7053 125.377L70.9687 124.339C71.1431 123.646 71.0418 123.356 71.8144 123.142C72.7696 122.881 72.6215 123.423 72.7517 124.227Z" fill="#455A64"/>
<path d="M81.8546 155.595C82.8611 158.299 83.6023 161.103 84.0773 163.946C85.0255 169.656 84.1485 176.258 85.6487 181.946C85.782 182.315 85.9025 182.697 86.0058 183.078C86.0494 183.221 86.0846 183.363 86.1199 183.505C86.1372 183.585 86.0154 183.625 85.9814 183.553C85.8634 183.312 85.7455 183.071 85.6192 182.83C85.6153 182.826 85.6198 182.822 85.6153 182.817C85.5544 182.69 85.4852 182.564 85.4249 182.437C82.5944 176.898 78.9613 171.835 77.7573 165.613C77.0136 161.786 75.8289 151.235 78.3542 150.433C79.4787 150.076 81.2379 153.954 81.8546 155.595Z" fill="#263238"/>
<path d="M79.5603 156.155C78.9564 156.44 78.9789 157.62 78.9417 158.115C78.8455 159.394 78.9628 160.769 79.0821 162.049C79.3013 164.484 79.845 166.874 80.5066 169.22C81.7722 173.703 83.3506 178.231 85.4271 182.438C85.488 182.565 85.5566 182.692 85.6175 182.819C85.6213 182.823 85.6175 182.827 85.6213 182.832C85.7476 183.073 85.8656 183.314 85.9836 183.555C86.0175 183.626 86.1394 183.586 86.122 183.507C86.0868 183.364 86.0515 183.222 86.0079 183.08C84.1468 178.2 83.3679 173.071 82.7197 167.879C82.5787 166.713 81.6343 155.171 79.5603 156.155ZM81.4465 160.837C81.6279 161.925 81.7799 163.016 81.9235 164.114C82.2658 166.666 82.5537 169.228 82.9255 171.776C83.3333 174.546 83.8557 177.328 84.6603 180.02C83.3762 176.935 82.1677 173.83 81.1958 170.61C80.5656 168.496 79.9944 166.362 79.6322 164.186C79.4385 163.006 79.3026 161.812 79.2674 160.615C79.2424 160.043 79.0013 156.738 79.6847 156.455C80.5355 156.105 81.3715 160.367 81.4465 160.837Z" fill="#455A64"/>
<path d="M105.982 144.326C107.377 146.04 106.719 149.461 105.964 151.265C104.883 153.85 102.91 155.872 100.743 157.584C97.5993 160.073 94.0886 161.99 91.4408 165.059C88.8097 168.098 89.6592 167.183 87.8179 171.082C87.7833 171.159 87.7089 171.16 87.6493 171.094C87.5589 171.004 87.4865 170.786 87.5352 170.471C87.5365 170.44 87.5461 170.401 87.5512 170.366C89.245 163.959 92.5332 158.913 96.8921 153.912C99.3655 151.078 100.857 147.485 103.432 144.752C104.387 143.741 105.023 143.142 105.982 144.326Z" fill="#263238"/>
<path d="M104.505 147.696C103.561 147.248 102.376 149.163 101.892 149.855C100.495 151.858 99.1301 153.856 97.3889 155.582C95.8528 157.098 94.3174 158.575 92.9922 160.28C90.9714 162.879 89.3559 165.781 88.2185 168.861C87.9653 169.378 87.739 169.916 87.5351 170.472C87.4864 170.786 87.5595 171.005 87.6492 171.095C87.6717 171.021 87.6941 170.956 87.7172 170.883C89.2546 166.767 91.8716 163.606 95.4835 160.867C99.0756 158.147 102.457 155.124 104.377 150.951C104.719 150.21 105.376 148.113 104.505 147.696ZM104.354 150.418C104.045 151.137 103.686 151.834 103.286 152.51C102.557 153.727 101.694 154.865 100.749 155.921C99.0603 157.794 97.0889 159.32 95.0867 160.835C92.7319 162.63 90.6778 164.711 89.1654 167.136C90.3329 164.54 91.8081 162.082 93.6211 159.853C95.2399 157.871 97.219 156.264 98.8827 154.338C99.6488 153.447 100.328 152.494 101.006 151.54C101.369 151.019 101.732 150.498 102.094 149.985C102.415 149.526 103.443 147.89 104.131 148.025C105.02 148.191 104.48 150.129 104.354 150.418Z" fill="#455A64"/>
<path d="M47.2825 128.15C52.9479 134.549 58.2159 141.276 63.2293 148.191C63.296 148.28 63.2877 148.386 63.2338 148.457C63.2293 148.477 63.2204 148.492 63.2082 148.504C63.2415 148.548 63.2749 148.593 63.3005 148.636C63.3332 148.689 63.312 148.739 63.2716 148.768C63.2595 148.772 63.2518 148.779 63.2396 148.782C63.2351 148.786 63.2274 148.786 63.2274 148.786C63.196 148.792 63.1569 148.782 63.1268 148.758C59.5949 145.296 56.2727 142.054 51.8254 139.762C47.7576 137.671 43.7487 135.93 40.2156 132.957C37.2005 130.41 28.6462 117.847 30.0387 114.849C30.9773 112.831 42.7704 123.065 47.2825 128.15Z" fill="#263238"/>
<path d="M40.2652 123.878C39.5279 123.166 37.3584 120.353 35.9755 120.924C34.5888 121.499 36.7968 124.337 37.2058 124.938C38.7207 127.136 40.3235 129.299 42.2442 131.169C44.1573 133.032 46.4262 134.268 48.6341 135.724C54.0668 139.318 58.8591 143.989 63.2269 148.787C63.2269 148.787 63.2346 148.787 63.2391 148.784C63.2513 148.781 63.259 148.773 63.2712 148.77C63.3116 148.74 63.3334 148.69 63.3 148.638C63.2744 148.593 63.2411 148.549 63.2077 148.505C63.2199 148.493 63.2282 148.478 63.2334 148.459C56.3941 139.562 48.2899 131.677 40.2652 123.878ZM62.7519 148.179C59.7784 144.842 56.5389 141.666 53.111 138.799C49.1156 135.455 44.2913 133.299 40.8357 129.324C39.19 127.433 37.4142 125.294 36.3044 123.04C36.1531 122.736 35.5896 121.714 35.971 121.31C36.3076 120.949 37.2827 121.398 38.5034 122.514C39.5131 123.442 40.4729 124.43 41.4538 125.392C45.3171 129.165 49.1598 132.958 52.8718 136.886C56.3094 140.525 59.6015 144.29 62.7519 148.179Z" fill="#455A64"/>
<path d="M70.857 175.045C70.8634 175.077 70.8545 175.107 70.8378 175.138C70.807 175.211 70.7346 175.263 70.6493 175.236C70.4717 175.173 70.2896 175.122 70.1089 175.064C70.0967 175.075 70.0845 175.079 70.0608 175.077C66.0077 174.556 62.7182 175.242 58.8197 176.238C55.9187 176.98 52.9574 176.936 50.0519 176.225C46.8983 175.456 43.9396 173.967 41.2111 172.231C40.0981 171.518 36.5374 169.921 37.1183 167.969C38.0735 164.757 48.8755 168.94 50.7443 169.545C54.0883 170.626 57.4054 171.59 60.8616 172.254C64.2472 172.907 67.6368 173.466 70.7878 174.936C70.8372 174.958 70.8589 174.998 70.857 175.045Z" fill="#263238"/>
<path d="M68.7077 174.554C68.7039 174.55 68.7077 174.546 68.7077 174.546C66.7498 174.099 64.7995 173.569 62.8256 173.227C60.615 172.839 58.3539 172.888 56.135 172.507C51.9813 171.786 48.0289 170.278 43.9226 169.364C43.3873 169.247 42.3314 169.038 42.6135 169.95C42.7295 170.346 43.3033 170.668 43.6033 170.881C44.5111 171.534 45.4895 172.093 46.4979 172.578C49.9201 174.212 53.8892 175.402 57.7134 175.233C62.1454 175.03 66.4555 174.196 70.8349 175.139C70.8516 175.108 70.8612 175.077 70.8541 175.046C70.1527 174.819 69.4309 174.663 68.7077 174.554ZM59.1097 174.822C54.322 175.201 49.3329 173.955 45.1689 171.538C44.7753 171.306 43.7405 170.645 43.3822 170.345C43.0392 170.059 42.5455 169.447 43.8502 169.611C44.1579 169.65 44.4547 169.754 44.7567 169.83C45.8177 170.094 46.8704 170.389 47.9257 170.689C50.1727 171.329 52.4147 172.004 54.7034 172.485C56.744 172.916 58.7802 173.089 60.8574 173.217C63.3641 173.371 65.8208 173.96 68.2724 174.488C65.2502 174.117 62.1261 174.583 59.1097 174.822Z" fill="#455A64"/>
<path d="M59.1771 166.262C59.1951 166.321 59.1977 166.388 59.1804 166.45C59.1759 166.485 59.163 166.512 59.147 166.543C59.1304 166.581 59.1021 166.616 59.0746 166.643C59.0662 166.658 59.0585 166.666 59.0464 166.67C58.9746 166.723 58.8765 166.748 58.7604 166.698C58.1514 166.477 57.5782 166.213 57.0339 165.915C50.3216 163.355 43.4438 160.653 37.9822 155.911C35.1941 153.488 32.779 150.67 30.6813 147.634C29.6517 146.147 26.8213 143.022 27.7573 140.935C28.6651 138.906 30.5281 140.194 31.784 141.044C35.0389 143.235 38.2246 145.562 41.1852 148.141C44.1304 150.705 46.741 153.543 49.0471 156.687C51.7929 160.435 54.4259 164.321 58.956 166.022C59.0842 166.068 59.1521 166.156 59.1771 166.262Z" fill="#263238"/>
<path d="M46.7808 156.771C43.0124 152.753 38.8209 149.084 34.5107 145.66C33.9536 145.213 32.3374 144.065 32.0848 145.353C31.7918 146.872 34.035 148.661 34.8903 149.565C38.1484 152.993 41.6135 156.245 45.3935 159.098C49.6075 162.285 54.1522 164.859 59.1484 166.542C59.165 166.512 59.1772 166.484 59.1817 166.449C51.0557 163.434 44.0068 158.15 37.8586 152.129C36.3783 150.675 34.8787 149.208 33.5221 147.635C33.3048 147.384 32.0611 145.689 32.5451 145.227C32.9689 144.822 34.721 146.208 34.9281 146.385C35.9071 147.194 36.8822 148.006 37.8567 148.827C41.5174 151.931 44.8876 155.236 48.1951 158.708C51.3807 162.044 54.9588 164.646 59.1817 166.449C59.199 166.387 59.1965 166.32 59.1785 166.261C54.2561 164.095 50.4537 160.682 46.7808 156.771Z" fill="#455A64"/>
<path d="M46.8356 96.4433C49.0955 99.5418 51.0624 102.797 52.1375 106.502C53.7749 112.17 53.6787 118.1 54.4923 123.901C54.491 123.925 54.4981 123.949 54.5013 123.969C54.7199 125.54 55.0097 127.106 55.4213 128.65C55.5052 128.979 55.5969 129.308 55.6963 129.637C55.72 129.72 55.7053 129.794 55.6642 129.839C55.6277 129.873 55.5835 129.898 55.5322 129.908C55.4886 129.917 55.4379 129.919 55.3918 129.902L55.3879 129.898C55.3225 129.876 55.2616 129.826 55.2302 129.742C55.0661 129.277 54.9218 128.809 54.7814 128.338C54.7507 128.329 54.7276 128.312 54.7096 128.276C51.2445 121.035 47.3132 113.72 43.3788 106.557C41.6388 103.386 40.0213 100.103 38.9039 96.6543C38.239 94.6136 37.43 91.4671 38.9199 89.581C39.0109 89.4598 39.1532 89.3444 39.3161 89.3668C42.5921 89.9246 45.045 93.995 46.8356 96.4433Z" fill="#263238"/>
<path d="M43.2207 96.9037C41.6532 96.3985 41.9731 98.2519 42.227 99.1905C42.9001 101.674 44.0176 104.109 44.9921 106.503C46.0903 109.204 47.2289 111.891 48.4066 114.556C50.6306 119.587 53.7367 124.597 55.3831 129.873C55.3825 129.881 55.3901 129.889 55.3901 129.897L55.394 129.901C55.4402 129.918 55.4908 129.917 55.5344 129.906C55.5857 129.897 55.6299 129.871 55.6665 129.838C55.5857 129.439 55.5043 129.048 55.4235 128.649C55.11 127.089 54.8087 125.526 54.5035 123.967C54.5003 123.947 54.4939 123.924 54.4945 123.9C53.0104 116.387 51.3781 108.943 47.4321 102.054C46.5102 100.453 45.1479 97.5224 43.2207 96.9037ZM47.9085 103.472C50.2472 107.835 51.8115 112.474 52.8924 117.233C53.7521 121.032 54.3355 124.881 55.1247 128.692C54.0342 125.632 52.4353 122.722 51.0588 119.758C48.8964 115.106 46.8506 110.4 44.9389 105.644C44.4747 104.501 44.0227 103.354 43.5784 102.2C43.1835 101.181 42.3392 99.5912 42.336 98.475C42.3264 96.3139 44.1311 97.7807 44.7183 98.4199C45.2306 98.9783 45.6338 99.6297 46.0371 100.265C46.7045 101.311 47.3283 102.383 47.9085 103.472Z" fill="#455A64"/>
<path d="M94.7197 135.503C93.7298 142.623 92.3713 149.493 90.4358 156.418C88.6753 162.719 86.8444 169.02 85.9885 175.522C84.8518 184.157 85.632 193.62 90.0326 201.129C82.6778 192.612 76.9194 182.755 72.6958 172.148C65.6026 154.335 59.1775 136.026 50.5662 118.867C50.4232 118.581 50.0283 118.804 50.1354 119.087C53.6653 128.456 57.81 137.594 61.422 146.935C65.009 156.212 68.337 165.606 72.09 174.815C72.4958 175.811 72.9189 176.796 73.3542 177.771C67.8555 170.957 59.7936 165.938 51.8811 163.027C51.7798 162.989 51.7381 163.142 51.833 163.184C57.4555 165.659 62.583 169.168 67.09 173.325C71.0289 176.957 74.0261 181.165 77.1977 185.419C84.3671 198.177 94.3741 208.76 107.132 216.659C107.265 216.741 107.39 216.541 107.26 216.454C102.185 213.042 97.5739 209.137 93.415 204.831C86.3385 195.465 86.0064 182.96 88.1163 171.596C89.2229 165.636 90.8 159.787 92.211 153.896C93.642 147.923 95.2056 141.701 95.0556 135.517C95.0505 135.298 94.7492 135.289 94.7197 135.503Z" fill="#263238"/>
<path d="M390.045 24.0018L78.2734 43.181L90.4036 240.365L402.175 221.186L390.045 24.0018Z" fill="#FCC42C"/>
<path d="M98.2797 231.467L87.1758 51.0454L382.186 32.8887L382.206 33.2086L393.29 213.311L392.97 213.33L98.2797 231.467ZM87.8547 51.6461L98.8798 230.788L392.61 212.71L381.585 33.5682L87.8547 51.6461Z" fill="white"/>
<path d="M141.968 123.403L141.81 124.314C141.82 124.485 141.908 124.637 142.073 124.77C142.238 124.903 142.435 124.962 142.664 124.948C142.891 124.934 143.069 124.809 143.199 124.572C147.097 118.669 150.309 113.488 152.839 109.027C155.367 104.567 157.217 101.286 158.389 99.1828C159.561 97.0806 160.495 95.406 161.191 94.1623C163.049 90.9016 164.914 87.9699 166.785 85.3657C159.211 87.7775 153.244 89.1168 148.885 89.3848C144.525 89.6534 141.374 89.5681 139.431 89.1296C137.487 88.6917 136.195 88.1423 135.554 87.4807C134.913 86.8197 134.57 86.1254 134.525 85.399C134.48 84.6727 134.465 83.9655 134.48 83.2776C134.506 81.8467 135.296 80.6254 136.85 79.6137C138.403 78.6033 139.707 78.0648 140.763 78C141.816 77.9353 142.353 78.0597 142.373 78.3732C142.392 78.6867 142.183 79.1213 141.745 79.6772C141.307 80.2337 141.094 80.6113 141.106 80.8106C141.163 81.7229 144.482 81.9755 151.064 81.571C157.646 81.1658 165.157 79.8317 173.598 77.5673C178.253 73.2764 182.361 71.0216 185.925 70.8024C188.289 70.6568 189.898 71.23 190.749 72.5218C191.311 73.2879 191.616 74.0701 191.666 74.8683C191.715 75.6664 191.3 76.4928 190.424 77.3468C189.547 78.202 188.342 78.9623 186.811 79.6285C184.024 80.8299 180.711 81.8486 176.874 82.6852C175.377 84.8656 173.275 88.2411 170.568 92.8121C167.86 97.3838 166.013 100.471 165.024 102.077C164.035 103.682 162.459 106.525 160.293 110.605C158.127 114.685 156.249 118.212 154.659 121.184C153.069 124.156 151.362 127.101 149.539 130.015C145.818 136.022 142.363 139.124 139.172 139.32C137.833 139.402 136.656 139.117 135.645 138.465C134.632 137.812 134.076 136.681 133.977 135.071C133.878 133.461 134.645 131.397 136.278 128.879C137.91 126.362 139.118 124.736 139.903 124.001C140.687 123.267 141.221 122.89 141.506 122.873C141.791 122.856 141.946 123.033 141.968 123.403Z" fill="white"/>
<path d="M209.131 120.256C209.412 121.555 209.575 122.582 209.622 123.336C209.669 124.091 209.573 124.754 209.337 125.327C209.099 125.899 208.549 126.72 207.686 127.788C206.822 128.857 205.781 129.943 204.562 131.048C201.58 133.72 198.451 135.156 195.174 135.358C190.472 135.647 187.994 133.712 187.738 129.551C187.515 125.933 190.22 118.53 195.852 107.343C196.055 106.93 196.195 106.636 196.27 106.46C194.17 108.134 190.233 112.588 184.458 119.821C178.682 127.056 174.856 132.161 172.98 135.136C172.824 135.403 172.414 135.713 171.75 136.07C171.085 136.425 170.561 136.615 170.176 136.639C169.792 136.662 169.371 136.566 168.914 136.351C168.458 136.136 168.173 136.033 168.058 136.04C167.689 136.062 167.496 135.953 167.481 135.71C167.466 135.469 167.891 134.127 168.757 131.685C169.621 129.243 170.772 126.205 172.206 122.57C176.137 112.547 182.095 99.4526 190.082 83.2865C192.879 77.623 195.091 73.5975 196.718 71.2088C197.871 69.5073 199.929 68.5655 202.894 68.3834C203.519 68.345 203.888 68.5084 203.996 68.8732C204.105 69.2387 204.172 69.6349 204.198 70.0618C204.224 70.4895 204.165 70.9222 204.021 71.3601L199.886 78.7789C191.695 93.4698 185.591 105.601 181.576 115.172C185.688 109.485 189.748 105.044 193.755 101.852C196.234 99.8399 198.122 98.7942 199.419 98.7141C200.714 98.6346 201.902 98.7692 202.983 99.1167C204.062 99.4654 204.65 100.423 204.746 101.989C204.782 102.559 203.985 104.725 202.358 108.486C197.475 119.77 195.07 126.017 195.145 127.228C195.219 128.439 195.755 129.013 196.752 128.952C198.206 128.862 200.355 127.314 203.202 124.308C205.35 122.03 206.705 120.574 207.266 119.938C207.593 119.661 207.898 119.513 208.183 119.496C208.725 119.466 209.041 119.719 209.131 120.256Z" fill="white"/>
<path d="M237.312 98.5718C239.477 98.4384 240.606 99.1135 240.697 100.594C240.746 101.393 240.596 101.988 240.249 102.381C239.901 102.775 239.186 104.055 238.104 106.224C237.021 108.393 235.848 111.154 234.581 114.506C233.314 117.859 232.539 120.703 232.253 123.037C232.186 123.327 232.167 123.728 232.198 124.241C232.295 125.808 232.77 126.566 233.625 126.513C234.48 126.46 235.466 125.992 236.585 125.108C237.703 124.224 238.69 123.291 239.545 122.309C240.399 121.328 241.231 120.325 242.041 119.303C242.85 118.281 243.337 117.693 243.499 117.54C243.661 117.387 243.913 117.3 244.254 117.279C244.795 117.245 245.149 117.638 245.314 118.458C245.479 119.277 245.588 120.128 245.643 121.012C245.697 121.895 245.649 122.513 245.499 122.865C244.773 124.54 243.076 126.604 240.41 129.056C237.744 131.509 235.263 132.805 232.97 132.947C230.676 133.088 228.945 132.493 227.777 131.164C226.608 129.835 225.971 128.322 225.867 126.627C225.762 124.931 225.955 123.425 226.447 122.107C224.271 125.33 221.718 128.104 218.786 130.43C215.855 132.755 213.42 133.977 211.483 134.097C209.544 134.216 207.927 133.729 206.63 132.636C204.974 131.28 204.067 129.312 203.908 126.733C203.749 124.154 204.166 121.526 205.16 118.847C206.153 116.169 207.524 113.697 209.272 111.43C211.021 109.163 212.966 107.077 215.108 105.172C219.61 101.177 223.855 99.0558 227.845 98.8103C229.383 98.7154 230.653 98.8949 231.653 99.3482C232.654 99.8014 233.306 100.405 233.609 101.159C234.23 100.091 234.767 99.4072 235.221 99.1071C235.674 98.809 236.371 98.6295 237.312 98.5718ZM231.919 103.666C227.047 103.966 222.17 106.984 217.289 112.718C215.556 114.77 213.997 117.197 212.611 119.999C211.224 122.802 210.562 124.701 210.623 125.698C210.685 126.696 211 127.177 211.57 127.141C212.367 127.092 214.493 125.381 217.947 122.008C221.4 118.636 223.679 116.171 224.785 114.615C225.994 112.883 228.372 109.233 231.919 103.666Z" fill="white"/>
<path d="M264.254 122.913C264.331 124.167 265.224 124.74 266.934 124.635C267.846 124.579 268.964 124.053 270.29 123.055C271.616 122.059 272.801 120.985 273.846 119.834C276.629 116.717 278.219 115.146 278.619 115.121C279.359 115.076 279.795 116.121 279.927 118.259C280.058 120.396 279.479 121.905 278.189 122.784C274.341 126.711 271.33 129.141 269.157 130.076C267.929 130.581 266.56 130.865 265.047 130.93C263.535 130.994 261.999 130.431 260.439 129.24C258.879 128.048 258.041 126.534 257.928 124.696C257.816 122.858 258.171 120.741 258.997 118.345C259.821 115.949 260.688 113.886 261.598 112.157C262.506 110.428 263.634 108.414 264.979 106.114C266.325 103.815 267.024 102.392 267.076 101.845L266.985 101.765C266.051 101.909 263.835 103.904 260.339 107.751C256.844 111.599 253.966 114.937 251.71 117.764C249.453 120.592 246.78 124.345 243.695 129.025C242.83 130.309 242.098 130.969 241.5 131.005C240.901 131.042 240.084 130.899 239.049 130.577C238.014 130.254 237.377 130.015 237.139 129.858C236.9 129.701 236.771 129.451 236.75 129.109C236.728 128.768 236.803 128.341 236.971 127.83C237.14 127.319 237.307 126.894 237.471 126.555C237.637 126.216 237.912 125.692 238.297 124.981C238.683 124.271 239.441 122.773 240.573 120.487C241.705 118.201 243.446 114.783 245.798 110.233C248.149 105.684 249.553 102.938 250.01 101.994C250.977 100.047 251.776 98.6243 252.407 97.7274C253.589 96.0246 255.705 95.079 258.754 94.8911C259.438 94.8488 259.806 95.2553 259.859 96.1105C259.942 97.4504 258.857 100.048 256.607 103.904L254.977 106.707C259.569 100.934 263.516 97.2151 266.817 95.5534C268.426 94.7398 269.893 94.2917 271.218 94.2096C272.543 94.1282 273.62 94.4199 274.447 95.0834C275.274 95.7476 275.715 96.5144 275.768 97.3831C275.821 98.2524 275.586 99.3109 275.063 100.558C274.539 101.807 273.999 102.927 273.446 103.919C272.892 104.912 272.162 106.164 271.253 107.679C270.345 109.194 269.852 110.017 269.775 110.151C269.697 110.284 269.497 110.64 269.176 111.217C268.854 111.795 268.615 112.217 268.46 112.484C268.305 112.752 268.048 113.217 267.688 113.883C267.328 114.549 267.04 115.103 266.825 115.546C266.609 115.988 266.343 116.534 266.025 117.182C265.707 117.831 265.456 118.39 265.27 118.859C265.084 119.328 264.894 119.84 264.7 120.396C264.362 121.419 264.213 122.258 264.254 122.913Z" fill="white"/>
<path d="M277.286 129.747L274.514 129.317C273.682 129.283 272.966 128.798 272.365 127.862C272.207 127.614 272.104 127.464 272.059 127.409C272.012 127.354 271.986 127.284 271.981 127.199C271.976 127.114 271.997 126.991 272.044 126.83C272.092 126.67 272.164 126.451 272.261 126.173C272.358 125.896 272.44 125.612 272.508 125.321C272.982 123.262 277.397 113.436 285.753 95.8471C294.109 78.2577 298.492 69.1861 298.901 68.6316C299.31 68.077 299.615 67.6725 299.813 67.4173C300.012 67.1628 300.241 66.941 300.501 66.7531C300.762 66.5653 300.954 66.4396 301.079 66.3742C301.203 66.3095 301.454 66.2011 301.831 66.0492C302.207 65.8973 302.598 65.7376 303.003 65.5696C303.407 65.4017 303.829 65.1831 304.271 64.9125C304.712 64.6426 305.015 64.4528 305.18 64.3419C305.344 64.2323 305.562 64.1682 305.833 64.1515C306.103 64.1349 306.367 64.247 306.626 64.4887C306.883 64.7304 307.025 65.0504 307.05 65.4498L307.068 65.7492C306.959 66.2992 303.663 73.2808 297.181 86.6934C290.698 100.107 287.167 107.446 286.588 108.711C288.756 107.691 291.898 105.31 296.016 101.567C300.132 97.8242 302.177 95.3816 302.15 94.2392C302.123 93.0974 302.463 92.2466 303.173 91.6876C303.882 91.1292 304.671 90.8234 305.54 90.7695C306.409 90.7163 307.168 90.9631 307.817 91.5094C308.465 92.0556 308.816 92.9922 308.869 94.3187C308.922 95.6458 308.285 97.3729 306.957 99.4988C305.629 101.626 304.007 103.62 302.091 105.483C297.959 109.456 294.477 112.13 291.645 113.505C294.337 119.603 297.179 122.56 300.171 122.376C301.781 122.048 303.693 120.601 305.91 118.033C306.739 117.096 307.539 116.152 308.31 115.204C309.081 114.256 309.554 113.69 309.729 113.508C309.903 113.326 310.162 113.224 310.503 113.203C311.044 113.17 311.398 113.563 311.562 114.382C311.727 115.201 311.837 116.053 311.891 116.936C311.946 117.82 311.898 118.437 311.748 118.79C311.019 120.437 309.329 122.493 306.679 124.958C304.027 127.423 301.448 128.734 298.941 128.888C297.146 128.999 295.7 128.745 294.604 128.125C293.508 127.506 292.647 126.987 292.02 126.568C291.393 126.15 290.742 125.567 290.067 124.822C289.392 124.077 288.832 123.461 288.388 122.973C287.942 122.486 287.429 121.803 286.845 120.923C286.261 120.044 285.844 119.419 285.593 119.049C285.341 118.678 284.968 118.072 284.473 117.23C283.978 116.389 283.699 115.926 283.637 115.844C283.189 116.93 282.689 118.106 282.138 119.369C281.586 120.633 281.087 121.808 280.639 122.893C280.191 123.979 279.78 124.97 279.406 125.866C279.032 126.761 278.727 127.502 278.492 128.088C278.256 128.675 278.124 128.983 278.099 129.013C277.927 129.478 277.656 129.724 277.286 129.747Z" fill="white"/>
<path d="M212.172 197.042C212.037 197.193 211.648 197.939 211.001 199.281C210.354 200.622 209.658 201.98 208.913 203.356C208.168 204.732 207.228 206.056 206.091 207.327C204.953 208.598 203.981 209.309 203.176 209.459C202.37 209.608 201.852 209.689 201.625 209.703C199.003 209.865 197.611 208.621 197.448 205.971C197.257 202.865 198.642 199.133 201.607 194.775C202.735 193.132 204.17 191.349 205.911 189.426C207.651 187.502 208.599 186.414 208.756 186.161C208.912 185.909 210.803 181.781 214.429 173.778C211.877 176.938 209.491 179.524 207.27 181.533C205.048 183.543 202.861 184.729 200.71 185.091L200.41 185.109C199.299 185.178 198.179 184.882 197.052 184.222C195.924 183.562 195.305 182.321 195.193 180.497C195.026 177.79 195.591 175.124 196.888 172.499C197.347 171.584 198.145 170.033 199.283 167.846C200.421 165.66 201.472 163.55 202.434 161.517C203.363 159.888 204.305 157.999 205.26 155.852C206.214 153.706 206.949 152.166 207.464 151.233C207.978 150.3 208.492 149.818 209.005 149.786C209.518 149.755 210.2 150.035 211.052 150.626C211.903 151.217 212.356 151.955 212.411 152.837C212.465 153.722 210.834 157.669 207.519 164.679C204.203 171.691 202.575 175.666 202.633 176.606C202.647 176.835 202.768 176.941 202.996 176.928C203.765 176.88 205.401 175.686 207.902 173.344C210.403 171.003 213.145 168.023 216.126 164.407C219.454 160.399 222.034 156.765 223.864 153.506C224.096 153.092 224.283 152.773 224.427 152.549C224.57 152.326 224.753 152.029 224.972 151.657C225.192 151.287 225.375 150.996 225.519 150.787C225.663 150.578 225.835 150.331 226.032 150.047C226.228 149.765 226.408 149.546 226.57 149.392C226.732 149.24 226.909 149.086 227.1 148.931C227.395 148.627 227.735 148.463 228.12 148.439C228.504 148.415 229.094 148.465 229.888 148.588C230.682 148.71 231.164 148.867 231.333 149.057C231.501 149.247 231.677 149.422 231.859 149.582C232.162 149.879 232.323 150.162 232.34 150.431C232.357 150.703 232.264 151.066 232.064 151.521C231.862 151.978 230.676 154.317 228.506 158.54C222.122 171.003 217.761 180.081 215.423 185.773C219.529 181.86 225.295 176.085 232.719 168.448C233.016 168.173 233.322 168.025 233.636 168.006C234.519 167.952 235.044 169.278 235.211 171.985C235.26 172.783 235.149 173.318 234.881 173.592C226.765 180.671 219.195 188.487 212.172 197.042Z" fill="white"/>
<path d="M259.511 147.193C260.366 147.14 261.266 147.471 262.21 148.185C263.155 148.899 263.676 150.046 263.774 151.628C263.871 153.209 263.442 155.295 262.486 157.885C261.53 160.476 260.163 163.134 258.385 165.86C256.608 168.586 254.63 171.169 252.449 173.604C250.267 176.041 247.876 178.076 245.273 179.709C242.671 181.342 240.273 182.226 238.078 182.361C235.884 182.496 234.082 181.913 232.673 180.613C231.262 179.313 230.482 177.43 230.33 174.965C230.179 172.501 230.615 169.736 231.643 166.669C232.67 163.603 234.067 160.864 235.835 158.452C237.602 156.042 239.542 153.856 241.652 151.895C246.066 147.877 250.027 145.76 253.531 145.544C255.098 145.448 256.304 145.76 257.15 146.48C257.451 146.719 257.607 146.939 257.619 147.137L257.635 147.394C258.031 147.313 258.657 147.245 259.511 147.193ZM255.544 153.143L255.245 153.162C254.248 153.223 253.704 152.527 253.615 151.074C251.577 151.885 249.471 153.216 247.297 155.067C245.122 156.917 243.21 159.065 241.559 161.512C238.199 166.41 236.59 170.47 236.731 173.693C236.829 175.289 237.462 176.051 238.631 175.979C239.8 175.907 241.49 175.031 243.703 173.35C245.916 171.669 248.069 169.334 250.158 166.345C252.248 163.357 253.791 160.78 254.788 158.617C255.784 156.453 256.259 154.994 256.213 154.239C256.165 153.484 255.943 153.119 255.544 153.143Z" fill="white"/>
<path d="M299.931 163.926C300.472 163.893 300.825 164.286 300.99 165.105C301.155 165.924 301.265 166.776 301.319 167.659C301.374 168.543 301.326 169.16 301.176 169.513C300.447 171.16 298.758 173.216 296.107 175.681C293.455 178.146 290.876 179.457 288.369 179.611C286.83 179.706 285.377 179.33 284.009 178.485C282.641 177.64 281.887 176.063 281.745 173.755C281.603 171.447 282.076 169.145 283.165 166.847C276.643 176.144 271.374 180.915 267.357 181.162C265.761 181.26 264.437 180.769 263.384 179.691C262.331 178.612 261.767 177.467 261.693 176.256C261.618 175.045 261.712 173.78 261.974 172.463C262.236 171.145 262.528 169.962 262.85 168.913C263.171 167.863 263.663 166.561 264.326 165.004C264.987 163.447 265.483 162.315 265.812 161.608C266.139 160.902 266.668 159.833 267.395 158.401C268.122 156.969 269.076 155.045 270.257 152.626C271.438 150.208 272.428 148.41 273.228 147.23C274.027 146.052 274.84 145.43 275.666 145.365C276.491 145.3 277.239 145.589 277.907 146.235C278.576 146.88 278.924 147.417 278.951 147.844C278.977 148.272 278.14 150.253 276.443 153.79C271.428 164.338 268.973 170.453 269.077 172.134C269.103 172.562 269.272 172.765 269.587 172.746C270.953 172.662 274.176 169.489 279.254 163.227C284.331 156.966 287.246 152.975 287.999 151.255C288.751 149.535 289.499 148.081 290.24 146.891C290.983 145.702 291.544 144.966 291.928 144.685C293.104 143.812 294.658 143.288 296.594 143.111C296.907 143.091 297.15 143.091 297.323 143.109C297.495 143.127 297.71 143.357 297.966 143.798C298.221 144.24 298.357 144.589 298.373 144.845C298.166 145.659 297.164 147.852 295.367 151.423C293.571 154.995 292.573 157.016 292.373 157.484C289.438 164.644 288.036 169.278 288.166 171.387C288.24 172.583 288.732 173.153 289.644 173.098C291.283 172.769 293.196 171.32 295.383 168.755C296.184 167.819 296.976 166.869 297.761 165.905C298.545 164.942 299.032 164.376 299.222 164.206C299.408 164.037 299.646 163.943 299.931 163.926Z" fill="white"/>
<path d="M302.938 177.319C302.826 175.51 303.48 173.825 304.9 172.264C306.32 170.704 307.864 169.872 309.53 169.77C311.198 169.667 312.081 170.443 312.183 172.095C312.285 173.748 311.624 175.433 310.2 177.151C308.775 178.869 307.237 179.779 305.584 179.881C303.931 179.982 303.05 179.128 302.938 177.319ZM340.939 110.219L344.256 110.444C344.968 110.4 345.338 110.607 345.366 111.062C345.371 111.147 345.326 111.336 345.23 111.628C337.195 125.137 328.304 141 318.557 159.218C318.02 160.253 317.471 160.872 316.911 161.078C316.883 161.08 316.855 161.097 316.829 161.126C316.802 161.156 316.754 161.195 316.686 161.242C316.617 161.289 316.527 161.331 316.415 161.366C315.998 161.564 315.504 161.68 314.935 161.715C314.364 161.75 313.971 161.86 313.754 162.045C313.535 162.23 313.1 162.342 312.444 162.383C311.39 162.448 310.83 161.939 310.763 160.856C310.646 158.947 312.789 153.917 317.192 145.766C321.595 137.616 325.94 130.026 330.227 122.998C334.514 115.97 337.281 111.902 338.528 110.796C338.881 110.489 339.684 110.296 340.939 110.219Z" fill="white"/>
<g opacity="0.1">
<path d="M88.0583 202.152L86.9922 184.832L395.891 118.909L400.158 188.246L88.0583 202.152Z" fill="white"/>
<path d="M86.2616 172.93L85.2461 156.436L391.827 52.8572L394.64 98.5551L86.2616 172.93Z" fill="white"/>
</g>
<path d="M395.283 108.605C402.838 118.835 420.643 130.244 423.547 139.238C426.17 147.359 419.834 151.631 419.834 151.631C419.834 151.631 429.918 154.419 431.208 163.017C431.872 167.441 425.387 172.387 425.387 172.387C425.387 172.387 433.371 174.974 434.047 182.69C434.585 188.837 428.008 192.874 428.008 192.874C428.008 192.874 434.51 198.925 433.05 205.364C430.089 218.42 378.101 228.574 366.33 210.991C360.843 202.797 373.676 201.006 373.676 201.006C373.676 201.006 354.6 199.125 352.233 188.46C349.865 177.796 366.68 176.476 366.68 176.476C366.68 176.476 348.209 174.491 346.87 163.187C345.476 151.419 362.521 152.979 362.521 152.979C362.521 152.979 349.43 147.399 350.387 138.51C351.966 123.832 382.81 137.432 393.706 132.489L395.283 108.605Z" fill="#EB9481"/>
<path d="M427.06 193.662C427.229 193.615 427.33 193.843 427.164 193.92C410.878 201.426 390.684 204.682 372.986 201.188C372.405 201.073 372.339 200.08 373.003 200.084C391.933 200.198 408.743 198.791 427.06 193.662Z" fill="#263238"/>
<path d="M425.66 172.447C425.858 172.391 425.955 172.719 425.753 172.811C408.929 180.454 386.082 183.496 366.157 177.065C365.474 176.845 365.082 175.962 365.888 176.156C379.462 179.427 409.194 177.147 425.66 172.447Z" fill="#263238"/>
<path d="M361.216 152.053C380.56 157.48 399.697 156.16 419.159 151.98C419.412 151.926 419.464 152.289 419.264 152.393C410.302 157.032 397.618 158.404 387.66 158.636C378.12 158.859 369.468 157.144 361.026 152.729C360.698 152.558 360.802 151.937 361.216 152.053Z" fill="#263238"/>
<path d="M83.4606 127.797C77.2176 138.875 60.9457 152.382 59.1666 161.665C57.5594 170.046 64.3717 173.509 64.3717 173.509C64.3717 173.509 54.7058 177.512 54.4795 186.203C54.3628 190.675 61.4047 194.788 61.4047 194.788C61.4047 194.788 53.7987 198.335 54.0737 206.075C54.2929 212.242 61.3156 215.442 61.3156 215.442C61.3156 215.442 55.6053 222.245 57.844 228.456C62.3837 241.05 115.225 244.753 124.751 225.859C129.191 217.053 116.235 216.85 116.235 216.85C116.235 216.85 134.936 212.643 135.978 201.769C137.02 190.895 120.17 191.647 120.17 191.647C120.17 191.647 138.258 187.411 138.201 176.028C138.142 164.179 121.417 167.817 121.417 167.817C121.417 167.817 133.724 160.674 131.684 151.969C128.317 137.596 99.3741 154.875 87.9541 151.306L83.4606 127.797Z" fill="#EB9481"/>
<path d="M62.3557 216.109C62.1813 216.083 62.1095 216.322 62.2839 216.378C79.368 221.83 99.809 222.586 116.945 216.946C117.507 216.762 117.452 215.768 116.793 215.853C98.019 218.288 81.1631 218.952 62.3557 216.109Z" fill="#263238"/>
<path d="M61.1425 194.882C60.9387 194.85 60.8842 195.188 61.0951 195.254C78.7287 200.777 101.776 200.994 120.763 192.168C121.413 191.866 121.694 190.941 120.918 191.232C107.848 196.144 78.0606 197.527 61.1425 194.882Z" fill="#263238"/>
<path d="M122.601 166.739C104.068 174.498 84.9142 175.535 65.0861 173.772C64.8277 173.75 64.822 174.117 65.0329 174.195C74.4969 177.701 87.2529 177.506 97.1644 176.516C106.659 175.567 115.035 172.804 122.873 167.387C123.177 167.177 122.998 166.574 122.601 166.739Z" fill="#263238"/>
<path d="M104.888 59.251C104.017 57.6412 104.01 55.6647 104.888 54.0562C105.767 55.6647 105.761 57.6418 104.888 59.251ZM109.769 61.2609C111.51 60.7352 112.893 59.3395 113.386 57.5874C111.641 58.1073 110.267 59.5119 109.769 61.2609ZM111.821 66.1865C113.403 67.0584 115.356 67.0642 116.936 66.1865C115.356 65.3082 113.403 65.3146 111.821 66.1865ZM109.843 71.1429C110.341 72.8918 111.716 74.2964 113.46 74.8164C112.967 73.0636 111.583 71.6679 109.843 71.1429ZM104.993 73.2271C104.121 74.8369 104.115 76.8134 104.993 78.422C105.871 76.8134 105.865 74.8369 104.993 73.2271ZM100.112 71.2179C98.3716 71.7436 96.9881 73.1393 96.4957 74.8914C98.2402 74.3708 99.6141 72.9662 100.112 71.2179ZM98.0607 66.2923C96.4791 65.4204 94.5263 65.4146 92.9453 66.2923C94.5263 67.1699 96.4791 67.1642 98.0607 66.2923ZM100.039 61.3352C99.541 59.5863 98.1665 58.1817 96.422 57.6617C96.915 59.4145 98.2979 60.8102 100.039 61.3352ZM131.328 195.164C130.456 193.554 130.449 191.578 131.328 189.969C132.206 191.577 132.199 193.554 131.328 195.164ZM136.208 197.173C137.948 196.647 139.332 195.252 139.824 193.5C138.08 194.019 136.706 195.424 136.208 197.173ZM138.26 202.099C139.841 202.971 141.794 202.976 143.375 202.099C141.794 201.221 139.841 201.227 138.26 202.099ZM136.281 207.055C136.78 208.804 138.154 210.208 139.898 210.728C139.405 208.976 138.023 207.581 136.281 207.055ZM131.431 209.139C130.56 210.749 130.553 212.726 131.431 214.334C132.31 212.726 132.303 210.749 131.431 209.139ZM126.551 207.13C124.811 207.656 123.427 209.051 122.935 210.804C124.679 210.284 126.053 208.879 126.551 207.13ZM124.499 202.204C122.918 201.333 120.965 201.327 119.384 202.204C120.965 203.083 122.918 203.076 124.499 202.204ZM126.478 197.248C125.979 195.499 124.605 194.094 122.861 193.575C123.354 195.327 124.737 196.722 126.478 197.248ZM345.316 184.675C346.188 183.066 346.194 181.089 345.316 179.48C344.438 181.089 344.444 183.066 345.316 184.675ZM350.196 186.685C351.937 186.16 353.32 184.764 353.813 183.012C352.069 183.532 350.694 184.936 350.196 186.685ZM352.248 191.611C353.83 192.483 355.783 192.489 357.363 191.611C355.783 190.733 353.83 190.739 352.248 191.611ZM350.27 196.567C350.768 198.316 352.142 199.72 353.887 200.24C353.394 198.488 352.011 197.092 350.27 196.567ZM345.42 198.651C344.548 200.261 344.542 202.238 345.42 203.846C346.298 202.238 346.292 200.261 345.42 198.651ZM340.54 196.642C338.799 197.168 337.416 198.564 336.923 200.316C338.667 199.795 340.042 198.391 340.54 196.642ZM338.488 191.717C336.906 190.845 334.953 190.838 333.373 191.717C334.953 192.594 336.906 192.588 338.488 191.717ZM340.466 186.76C339.968 185.011 338.593 183.607 336.849 183.087C337.342 184.839 338.725 186.235 340.466 186.76ZM355.392 57.4034C356.248 56.6129 356.254 55.3243 355.392 54.5357C354.531 55.3243 354.536 56.6129 355.392 57.4034ZM358.086 58.5125C359.245 58.5554 360.149 57.6457 360.083 56.4847C358.922 56.4372 358.026 57.3546 358.086 58.5125ZM359.219 61.2314C359.994 62.0866 361.269 62.0924 362.042 61.2314C361.269 60.3704 359.994 60.3762 359.219 61.2314ZM358.127 63.9676C358.066 65.1255 358.962 66.0429 360.124 65.9954C360.19 64.8344 359.286 63.9247 358.127 63.9676ZM355.45 65.1184C354.594 65.9089 354.588 67.1975 355.45 67.9861C356.312 67.1969 356.306 65.9082 355.45 65.1184ZM352.756 64.0093C351.597 63.9663 350.694 64.8761 350.76 66.0371C351.921 66.0845 352.816 65.1671 352.756 64.0093ZM351.622 61.2897C350.848 60.4345 349.572 60.4287 348.799 61.2897C349.573 62.1507 350.848 62.1456 351.622 61.2897ZM352.715 58.5535C352.775 57.3957 351.88 56.4782 350.718 56.5257C350.653 57.6867 351.557 58.5965 352.715 58.5535ZM167.968 154.92C168.824 154.129 168.83 152.841 167.968 152.052C167.106 152.841 167.112 154.13 167.968 154.92ZM170.662 156.029C171.821 156.072 172.724 155.162 172.659 154.001C171.497 153.954 170.602 154.871 170.662 156.029ZM171.795 158.748C172.57 159.603 173.845 159.609 174.618 158.748C173.845 157.887 172.57 157.893 171.795 158.748ZM170.703 161.485C170.642 162.643 171.538 163.56 172.699 163.513C172.765 162.351 171.861 161.442 170.703 161.485ZM168.026 162.635C167.17 163.425 167.164 164.714 168.026 165.503C168.887 164.714 168.882 163.425 168.026 162.635ZM165.332 161.526C164.173 161.483 163.269 162.393 163.335 163.554C164.496 163.601 165.392 162.684 165.332 161.526ZM164.199 158.807C163.424 157.952 162.149 157.946 161.375 158.807C162.149 159.668 163.424 159.662 164.199 158.807ZM165.291 156.071C165.352 154.913 164.456 153.995 163.294 154.043C163.228 155.204 164.132 156.114 165.291 156.071Z" fill="#FCC42C"/>
<path opacity="0.8" d="M104.888 59.251C104.017 57.6412 104.01 55.6647 104.888 54.0562C105.767 55.6647 105.761 57.6418 104.888 59.251ZM109.769 61.2609C111.51 60.7352 112.893 59.3395 113.386 57.5874C111.641 58.1073 110.267 59.5119 109.769 61.2609ZM111.821 66.1865C113.403 67.0584 115.356 67.0642 116.936 66.1865C115.356 65.3082 113.403 65.3146 111.821 66.1865ZM109.843 71.1429C110.341 72.8918 111.716 74.2964 113.46 74.8164C112.967 73.0636 111.583 71.6679 109.843 71.1429ZM104.993 73.2271C104.121 74.8369 104.115 76.8134 104.993 78.422C105.871 76.8134 105.865 74.8369 104.993 73.2271ZM100.112 71.2179C98.3716 71.7436 96.9881 73.1393 96.4957 74.8914C98.2402 74.3708 99.6141 72.9662 100.112 71.2179ZM98.0607 66.2923C96.4791 65.4204 94.5263 65.4146 92.9453 66.2923C94.5263 67.1699 96.4791 67.1642 98.0607 66.2923ZM100.039 61.3352C99.541 59.5863 98.1665 58.1817 96.422 57.6617C96.915 59.4145 98.2979 60.8102 100.039 61.3352ZM131.328 195.164C130.456 193.554 130.449 191.578 131.328 189.969C132.206 191.577 132.199 193.554 131.328 195.164ZM136.208 197.173C137.948 196.647 139.332 195.252 139.824 193.5C138.08 194.019 136.706 195.424 136.208 197.173ZM138.26 202.099C139.841 202.971 141.794 202.976 143.375 202.099C141.794 201.221 139.841 201.227 138.26 202.099ZM136.281 207.055C136.78 208.804 138.154 210.208 139.898 210.728C139.405 208.976 138.023 207.581 136.281 207.055ZM131.431 209.139C130.56 210.749 130.553 212.726 131.431 214.334C132.31 212.726 132.303 210.749 131.431 209.139ZM126.551 207.13C124.811 207.656 123.427 209.051 122.935 210.804C124.679 210.284 126.053 208.879 126.551 207.13ZM124.499 202.204C122.918 201.333 120.965 201.327 119.384 202.204C120.965 203.083 122.918 203.076 124.499 202.204ZM126.478 197.248C125.979 195.499 124.605 194.094 122.861 193.575C123.354 195.327 124.737 196.722 126.478 197.248ZM345.316 184.675C346.188 183.066 346.194 181.089 345.316 179.48C344.438 181.089 344.444 183.066 345.316 184.675ZM350.196 186.685C351.937 186.16 353.32 184.764 353.813 183.012C352.069 183.532 350.694 184.936 350.196 186.685ZM352.248 191.611C353.83 192.483 355.783 192.489 357.363 191.611C355.783 190.733 353.83 190.739 352.248 191.611ZM350.27 196.567C350.768 198.316 352.142 199.72 353.887 200.24C353.394 198.488 352.011 197.092 350.27 196.567ZM345.42 198.651C344.548 200.261 344.542 202.238 345.42 203.846C346.298 202.238 346.292 200.261 345.42 198.651ZM340.54 196.642C338.799 197.168 337.416 198.564 336.923 200.316C338.667 199.795 340.042 198.391 340.54 196.642ZM338.488 191.717C336.906 190.845 334.953 190.838 333.373 191.717C334.953 192.594 336.906 192.588 338.488 191.717ZM340.466 186.76C339.968 185.011 338.593 183.607 336.849 183.087C337.342 184.839 338.725 186.235 340.466 186.76ZM355.392 57.4034C356.248 56.6129 356.254 55.3243 355.392 54.5357C354.531 55.3243 354.536 56.6129 355.392 57.4034ZM358.086 58.5125C359.245 58.5554 360.149 57.6457 360.083 56.4847C358.922 56.4372 358.026 57.3546 358.086 58.5125ZM359.219 61.2314C359.994 62.0866 361.269 62.0924 362.042 61.2314C361.269 60.3704 359.994 60.3762 359.219 61.2314ZM358.127 63.9676C358.066 65.1255 358.962 66.0429 360.124 65.9954C360.19 64.8344 359.286 63.9247 358.127 63.9676ZM355.45 65.1184C354.594 65.9089 354.588 67.1975 355.45 67.9861C356.312 67.1969 356.306 65.9082 355.45 65.1184ZM352.756 64.0093C351.597 63.9663 350.694 64.8761 350.76 66.0371C351.921 66.0845 352.816 65.1671 352.756 64.0093ZM351.622 61.2897C350.848 60.4345 349.572 60.4287 348.799 61.2897C349.573 62.1507 350.848 62.1456 351.622 61.2897ZM352.715 58.5535C352.775 57.3957 351.88 56.4782 350.718 56.5257C350.653 57.6867 351.557 58.5965 352.715 58.5535ZM167.968 154.92C168.824 154.129 168.83 152.841 167.968 152.052C167.106 152.841 167.112 154.13 167.968 154.92ZM170.662 156.029C171.821 156.072 172.724 155.162 172.659 154.001C171.497 153.954 170.602 154.871 170.662 156.029ZM171.795 158.748C172.57 159.603 173.845 159.609 174.618 158.748C173.845 157.887 172.57 157.893 171.795 158.748ZM170.703 161.485C170.642 162.643 171.538 163.56 172.699 163.513C172.765 162.351 171.861 161.442 170.703 161.485ZM168.026 162.635C167.17 163.425 167.164 164.714 168.026 165.503C168.887 164.714 168.882 163.425 168.026 162.635ZM165.332 161.526C164.173 161.483 163.269 162.393 163.335 163.554C164.496 163.601 165.392 162.684 165.332 161.526ZM164.199 158.807C163.424 157.952 162.149 157.946 161.375 158.807C162.149 159.668 163.424 159.662 164.199 158.807ZM165.291 156.071C165.352 154.913 164.456 153.995 163.294 154.043C163.228 155.204 164.132 156.114 165.291 156.071Z" fill="white"/>
</g>
<defs>
<clipPath id="clip0_848_6709">
<rect width="480.828" height="250" fill="white" transform="translate(0.585938)"/>
</clipPath>
</defs>
</svg>
