<svg width="55" height="55" viewBox="0 0 55 55" fill="none" xmlns="http://www.w3.org/2000/svg">
<g clipPath="url(#clip0_13_971)">
<g clipPath="url(#clip1_13_971)">
<path d="M6.46733 35.7764L0.0607986 42.1829C-0.0469456 42.2856 -0.00666238 42.4713 0.143513 42.5159L7.85941 44.8597C8.39773 45.023 8.88747 45.3166 9.28525 45.7144C9.68303 46.1121 9.97657 46.6019 10.1399 47.1402L12.4837 54.8561C12.5282 55.0063 12.714 55.0466 12.8167 54.9388L21.3888 46.3668C15.0465 44.7913 9.81041 40.8373 6.46733 35.7764ZM54.9392 42.1829L48.5327 35.7764C45.2134 40.8011 39.9936 44.7813 33.611 46.3669L42.1831 54.9389C42.2858 55.0467 42.4716 55.0064 42.5161 54.8562L44.8599 47.1403C45.0232 46.602 45.3168 46.1122 45.7146 45.7144C46.1124 45.3167 46.6021 45.0231 47.1405 44.8599L54.8564 42.516C55.007 42.4712 55.0467 42.2853 54.9392 42.1829Z" fill="#01AEF3"/>
<path d="M49.4425 21.9428C49.4425 9.84417 39.5997 0.000244141 27.5 0.000244141C15.4003 0.000244141 5.55746 9.84417 5.55746 21.9428C5.55746 32.8821 13.6118 41.9996 24.1281 43.6275C37.4492 45.6997 49.4425 35.3311 49.4425 21.9428ZM10.3956 27.2901C6.77692 15.7207 15.4882 4.02523 27.5 4.02523C40.9184 4.02523 49.7875 18.4465 43.2465 30.4901C35.6954 44.3423 15.1482 42.4071 10.3956 27.2901Z" fill="#01AEF3"/>
<path d="M27.5 7.2478C19.3974 7.2478 12.8039 13.8402 12.8039 21.9428C12.8039 33.8636 26.3194 40.8155 35.9979 33.9254C38.0716 32.4535 39.7603 30.4413 40.8469 28.0903C45.3619 18.3702 38.1643 7.2478 27.5 7.2478ZM34.9173 19.8815L25.7544 26.6822C25.1095 27.1629 24.1922 27.0984 23.6189 26.491C19.5178 22.1205 19.8459 22.4695 19.7475 22.3661C19.0584 21.6323 19.2022 20.4454 20.0644 19.8998C20.0654 19.8988 20.0665 19.8977 20.0676 19.8977C20.7078 19.4959 21.5618 19.5894 22.0979 20.1609C22.9651 21.0851 22.3814 20.4631 24.9863 23.2384C25.2671 23.029 28.5712 20.5779 33.1169 17.2046C33.8312 16.674 34.841 16.8233 35.3705 17.5376C35.8558 18.189 35.8541 19.1873 34.9173 19.8815Z" fill="#01AEF3"/>
</g>
</g>
<defs>
<clipPath id="clip0_13_971">
<rect width="55" height="55" fill="white"/>
</clipPath>
<clipPath id="clip1_13_971">
<rect width="55" height="55" fill="white"/>
</clipPath>
</defs>
</svg>
