<svg width="38" height="39" viewBox="0 0 38 39" fill="none" xmlns="http://www.w3.org/2000/svg">
<g id="doctor (2) 1" clipPath="url(#clip0_211_22797)">
<g id="Group">
<g id="Group_2">
<g id="Group_3">
<g id="Group_4">
<path id="Vector" d="M15.8018 22.9741H22.7501V29.0539H15.8018V22.9741Z" fill="url(#paint0_linear_211_22797)"/>
<g id="Group_5">
<path id="Vector_2" d="M15.8018 26.448C16.5942 27.2916 17.8553 27.8956 19.2759 27.8956C20.729 27.8956 21.9618 27.3246 22.7501 26.448V37.4498H19.2759H15.8018V26.448Z" fill="url(#paint1_linear_211_22797)"/>
<path id="Vector_3" d="M15.8015 26.448C16.5939 27.2916 17.8551 27.8956 19.2757 27.8956C20.7288 27.8956 21.9615 27.3246 22.7499 26.448C23.0707 26.5189 23.4676 26.6148 23.9152 26.7303C23.2418 28.0826 21.4216 29.0536 19.2757 29.0536C17.1298 29.0536 15.3096 28.0826 14.6362 26.7303C15.0838 26.6148 15.4807 26.5192 15.8015 26.448Z" fill="url(#paint2_linear_211_22797)"/>
<g id="Group_6">
<path id="Vector_4" d="M10.8799 29.6327L5.66865 29.054C5.66865 29.054 2.7735 31.9491 1.32593 37.4499H10.8799V29.6327Z" fill="url(#paint3_linear_211_22797)"/>
<g id="Group_7">
<path id="Vector_5" d="M14.6437 26.1589C12.5797 26.6161 7.38002 27.799 5.6687 29.0541L8.56385 37.45H18.1178L14.6437 26.1589Z" fill="url(#paint4_linear_211_22797)"/>
</g>
</g>
<g id="Group_8">
<path id="Vector_6" d="M27.6719 29.6327L32.8831 29.054C32.8831 29.054 35.7783 31.9491 37.2259 37.4499H27.6719V29.6327Z" fill="url(#paint5_linear_211_22797)"/>
<g id="Group_9">
<path id="Vector_7" d="M23.908 26.1589C25.972 26.6161 31.1716 27.799 32.883 29.0541L29.9878 37.45H20.4338L23.908 26.1589Z" fill="url(#paint6_linear_211_22797)"/>
</g>
</g>
</g>
<g id="Group_10">
<path id="Vector_8" d="M29.6985 16.274C29.6985 17.5531 28.7911 18.9211 27.6719 18.9211C26.5526 18.9211 25.6453 17.5531 25.6453 16.274C25.6453 14.9949 26.5526 14.2888 27.6719 14.2888C28.7911 14.2888 29.6985 14.9949 29.6985 16.274Z" fill="url(#paint7_linear_211_22797)"/>
<path id="Vector_9" d="M12.6169 16.274C12.6169 17.5531 11.7096 18.9211 10.5903 18.9211C9.47106 18.9211 8.56372 17.5531 8.56372 16.274C8.56372 14.9949 9.47106 14.2888 10.5903 14.2888C11.7096 14.2888 12.6169 14.9949 12.6169 16.274Z" fill="url(#paint8_linear_211_22797)"/>
</g>
<path id="Vector_10" d="M26.5137 9.07739H12.0379C11.39 9.2346 10.8799 9.85821 10.8799 10.525V16.3173C10.8799 21.237 14.6436 25.0007 19.2758 25.0007C23.908 25.0007 27.6717 21.237 27.6717 16.3173V10.525C27.6717 9.85619 27.1642 9.23286 26.5137 9.07739Z" fill="url(#paint9_linear_211_22797)"/>
<path id="Vector_11" d="M19.2758 1.55005C23.8169 1.55005 28.8298 5.07865 28.8298 10.525C28.8148 13.9737 27.6718 16.3153 27.6718 16.3153C27.6718 14.5782 26.8032 10.525 26.8032 10.525C21.8815 11.6831 12.038 9.36695 12.038 9.36695C12.038 9.36695 10.8799 11.104 10.8799 16.3153C10.8799 16.3153 9.14282 14.2887 9.14282 10.8145C9.14282 6.48222 11.1694 5.60325 11.1694 5.60325C11.1694 5.60325 11.7485 1.55005 19.2758 1.55005Z" fill="url(#paint10_linear_211_22797)"/>
<g id="Group_11">
<g id="Group_12">
<g id="Group_13">
<path id="Vector_12" d="M19.2707 22.9741C18.6164 22.9741 17.9638 22.7633 17.3709 22.3424C17.2406 22.2497 17.2099 22.0691 17.3025 21.9385C17.3952 21.8079 17.5759 21.7778 17.7064 21.8702C18.6974 22.5746 19.8419 22.5743 20.8468 21.8693C20.9774 21.7772 21.1583 21.8091 21.2501 21.9399C21.3419 22.0708 21.3103 22.2515 21.1794 22.3432C20.5799 22.7636 19.9244 22.9741 19.2707 22.9741Z" fill="url(#paint11_linear_211_22797)"/>
</g>
</g>
<g id="Group_14">
<path id="Vector_13" d="M15.5121 17.4734C15.9918 17.4734 16.3806 17.0846 16.3806 16.6049C16.3806 16.1252 15.9918 15.7363 15.5121 15.7363C15.0324 15.7363 14.6436 16.1252 14.6436 16.6049C14.6436 17.0846 15.0324 17.4734 15.5121 17.4734Z" fill="url(#paint12_linear_211_22797)"/>
<path id="Vector_14" d="M23.0397 17.4734C23.5194 17.4734 23.9082 17.0846 23.9082 16.6049C23.9082 16.1252 23.5194 15.7363 23.0397 15.7363C22.56 15.7363 22.1711 16.1252 22.1711 16.6049C22.1711 17.0846 22.56 17.4734 23.0397 17.4734Z" fill="url(#paint13_linear_211_22797)"/>
<g id="Group_15">
<path id="Vector_15" d="M17.2489 14.2869C17.1965 14.2869 17.1439 14.2727 17.0961 14.2432C15.4867 13.2411 14.4383 13.9151 13.9908 14.2032L13.93 14.2423C13.7945 14.3277 13.6158 14.2872 13.5304 14.1523C13.445 14.017 13.4853 13.8384 13.6205 13.7527L13.6778 13.7162C14.1711 13.3986 15.4826 12.5562 17.4024 13.7519C17.5382 13.8364 17.5796 14.015 17.495 14.1505C17.44 14.2385 17.3456 14.2869 17.2489 14.2869Z" fill="url(#paint14_linear_211_22797)"/>
</g>
<g id="Group_16">
<path id="Vector_16" d="M21.3026 14.2868C21.2059 14.2868 21.1115 14.2385 21.0565 14.1504C20.972 14.0147 21.0134 13.836 21.1492 13.7518C23.0692 12.5555 24.3804 13.3989 24.8741 13.7162L24.9311 13.7526C25.0663 13.8381 25.1063 14.017 25.0211 14.1522C24.9357 14.2874 24.7568 14.3276 24.6216 14.2422L24.5608 14.2034C24.1135 13.9156 23.0646 13.2414 21.4552 14.2434C21.4077 14.2726 21.355 14.2868 21.3026 14.2868Z" fill="url(#paint15_linear_211_22797)"/>
</g>
<g id="Group_17">
<path id="Vector_17" d="M19.2746 20.3685C19.274 20.3685 19.2738 20.3685 19.2732 20.3685C18.9909 20.3679 18.7185 20.2362 18.4854 19.9875C18.3763 19.8709 18.382 19.6876 18.4987 19.5782C18.6154 19.4693 18.7987 19.4748 18.9081 19.5915C18.9926 19.6815 19.1247 19.7892 19.274 19.7895H19.2746C19.4252 19.7895 19.5586 19.6815 19.6443 19.5906C19.7541 19.4742 19.9373 19.469 20.0537 19.5787C20.1698 19.6885 20.1753 19.8717 20.0656 19.9881C19.8305 20.2371 19.5572 20.3685 19.2746 20.3685Z" fill="url(#paint16_linear_211_22797)"/>
</g>
</g>
</g>
</g>
<g id="Group_18">
<path id="Vector_18" d="M15.8018 25.2903L18.1179 37.4499L13.4857 33.1072L14.0647 30.7911L12.0381 30.5013L14.3542 26.1585C14.5893 25.7332 15.2589 25.2906 15.8018 25.2903Z" fill="url(#paint17_linear_211_22797)"/>
<path id="Vector_19" d="M22.75 25.2903L20.4338 37.4499L25.0661 33.1072L24.487 30.7911L26.5136 30.5013L24.1975 26.1585C23.9624 25.7332 23.2928 25.2906 22.75 25.2903Z" fill="url(#paint18_linear_211_22797)"/>
</g>
</g>
</g>
<g id="Group_19">
<g id="Group_20">
<path id="Vector_20" d="M14.3541 35.4234H12.9065C12.7467 35.4234 12.617 35.294 12.617 35.1339C12.617 34.9738 12.7467 34.8444 12.9065 34.8444H14.3541C14.6734 34.8444 14.9331 34.5847 14.9331 34.2654V31.3702C14.9331 29.9333 13.7641 28.7646 12.3275 28.7646C10.8909 28.7646 9.72185 29.9333 9.72185 31.3702V34.2654C9.72185 34.5847 9.98155 34.8444 10.3009 34.8444H11.4589C11.6188 34.8444 11.7485 34.9738 11.7485 35.1339C11.7485 35.294 11.6188 35.4234 11.4589 35.4234H10.3009C9.66221 35.4234 9.14282 34.904 9.14282 34.2654V31.3702C9.14282 29.6143 10.5716 28.1855 12.3275 28.1855C14.0834 28.1855 15.5121 29.6143 15.5121 31.3702V34.2654C15.5121 34.904 14.9928 35.4234 14.3541 35.4234Z" fill="url(#paint19_linear_211_22797)"/>
<path id="Vector_21" d="M12.3275 28.1855C10.5716 28.1855 9.14282 29.6143 9.14282 31.3702H9.72185C9.72185 29.9333 10.8909 28.7646 12.3275 28.7646C13.7641 28.7646 14.9331 29.9333 14.9331 31.3702H15.5121C15.5121 29.6143 14.0834 28.1855 12.3275 28.1855Z" fill="url(#paint20_linear_211_22797)"/>
<path id="Vector_22" d="M11.4589 34.8442H10.8799V35.4233H11.4589C11.6187 35.4233 11.7484 35.2939 11.7484 35.1338C11.7484 34.9737 11.6187 34.8442 11.4589 34.8442Z" fill="url(#paint21_linear_211_22797)"/>
<path id="Vector_23" d="M12.9065 34.8442H13.4855V35.4233H12.9065C12.7466 35.4233 12.6169 35.2939 12.6169 35.1338C12.6169 34.9737 12.7466 34.8442 12.9065 34.8442Z" fill="url(#paint22_linear_211_22797)"/>
</g>
<path id="Vector_24" d="M23.9033 23.5925C23.6074 23.7917 23.2985 23.9721 22.978 24.1322H23.3292C25.5643 24.1322 27.3824 25.9503 27.3824 28.1854V31.6596C27.3824 31.8197 27.5121 31.9491 27.6719 31.9491C27.8317 31.9491 27.9614 31.8197 27.9614 31.6596V28.1854C27.9614 25.8261 26.187 23.8768 23.9033 23.5925Z" fill="url(#paint23_linear_211_22797)"/>
<path id="Vector_25" d="M14.6672 23.605C13.1756 23.8687 12.0381 25.1715 12.0381 26.7378V28.4749C12.0381 28.635 12.1678 28.7644 12.3276 28.7644C12.4874 28.7644 12.6171 28.635 12.6171 28.4749V26.7378C12.6171 25.301 13.7862 24.1322 15.2227 24.1322C15.2995 24.1322 15.3684 24.1012 15.4202 24.0523C15.1611 23.9162 14.9098 23.7671 14.6672 23.605Z" fill="url(#paint24_linear_211_22797)"/>
<g id="Group_21">
<path id="Vector_26" d="M27.6717 34.2653C28.4712 34.2653 29.1193 33.6172 29.1193 32.8177C29.1193 32.0182 28.4712 31.3701 27.6717 31.3701C26.8722 31.3701 26.2241 32.0182 26.2241 32.8177C26.2241 33.6172 26.8722 34.2653 27.6717 34.2653Z" fill="url(#paint25_linear_211_22797)"/>
<g id="Group_22">
<g id="Group_23">
<g id="Group_24">
<path id="Vector_27" d="M27.6717 34.2653C28.4712 34.2653 29.1193 33.6172 29.1193 32.8177C29.1193 32.0182 28.4712 31.3701 27.6717 31.3701C26.8722 31.3701 26.2241 32.0182 26.2241 32.8177C26.2241 33.6172 26.8722 34.2653 27.6717 34.2653Z" fill="url(#paint26_linear_211_22797)"/>
<g id="Clip path group">
<mask id="mask0_211_22797" style="mask-type:luminance" maskUnits="userSpaceOnUse" x="26" y="31" width="4" height="4">
<g id="SVGID_29_">
<path id="Vector_28" d="M27.6717 34.2653C28.4712 34.2653 29.1193 33.6172 29.1193 32.8177C29.1193 32.0182 28.4712 31.3701 27.6717 31.3701C26.8722 31.3701 26.2241 32.0182 26.2241 32.8177C26.2241 33.6172 26.8722 34.2653 27.6717 34.2653Z" fill="white"/>
</g>
</mask>
<g mask="url(#mask0_211_22797)">
<path id="Vector_29" d="M26.2241 31.3701H29.1193V34.2653H26.2241V31.3701Z" fill="url(#paint27_linear_211_22797)"/>
</g>
</g>
</g>
<path id="Vector_30" d="M27.6719 34.5547C26.7139 34.5547 25.9348 33.7757 25.9348 32.8177C25.9348 31.8597 26.7139 31.0806 27.6719 31.0806C28.6299 31.0806 29.409 31.8597 29.409 32.8177C29.409 33.7757 28.6299 34.5547 27.6719 34.5547ZM27.6719 31.6596C27.0332 31.6596 26.5138 32.179 26.5138 32.8177C26.5138 33.4563 27.0332 33.9757 27.6719 33.9757C28.3106 33.9757 28.83 33.4563 28.83 32.8177C28.83 32.179 28.3106 31.6596 27.6719 31.6596Z" fill="url(#paint28_linear_211_22797)"/>
</g>
</g>
</g>
</g>
</g>
</g>
<defs>
<linearGradient id="paint0_linear_211_22797" x1="19.2759" y1="28.137" x2="19.2759" y2="25.0971" gradientUnits="userSpaceOnUse">
<stop stopColor="#F6CFBE"/>
<stop offset="1" stopColor="#EDAD99"/>
</linearGradient>
<linearGradient id="paint1_linear_211_22797" x1="19.031" y1="22.7651" x2="18.9554" y2="19.929" gradientUnits="userSpaceOnUse">
<stop stopColor="#FFCF97"/>
<stop offset="1" stopColor="#FFAC6A"/>
</linearGradient>
<linearGradient id="paint2_linear_211_22797" x1="19.8906" y1="16.3795" x2="19.6011" y2="21.2529" gradientUnits="userSpaceOnUse">
<stop stopColor="#FFCF97"/>
<stop offset="1" stopColor="#FFAC6A"/>
</linearGradient>
<linearGradient id="paint3_linear_211_22797" x1="5.30415" y1="45.1287" x2="6.294" y2="35.6158" gradientUnits="userSpaceOnUse">
<stop stopColor="#EFF0F0"/>
<stop offset="1" stopColor="#E4E5E6"/>
</linearGradient>
<linearGradient id="paint4_linear_211_22797" x1="10.763" y1="42.9725" x2="9.85306" y2="50.7987" gradientUnits="userSpaceOnUse">
<stop stopColor="#EFF0F0"/>
<stop offset="1" stopColor="#E4E5E6"/>
</linearGradient>
<linearGradient id="paint5_linear_211_22797" x1="33.2479" y1="45.1287" x2="32.2581" y2="35.6158" gradientUnits="userSpaceOnUse">
<stop stopColor="#EFF0F0"/>
<stop offset="1" stopColor="#E4E5E6"/>
</linearGradient>
<linearGradient id="paint6_linear_211_22797" x1="27.7887" y1="42.9725" x2="28.6986" y2="50.7987" gradientUnits="userSpaceOnUse">
<stop stopColor="#EFF0F0"/>
<stop offset="1" stopColor="#E4E5E6"/>
</linearGradient>
<linearGradient id="paint7_linear_211_22797" x1="27.6719" y1="7.82309" x2="27.6719" y2="21.9149" gradientUnits="userSpaceOnUse">
<stop stopColor="#F6CFBE"/>
<stop offset="1" stopColor="#EDAD99"/>
</linearGradient>
<linearGradient id="paint8_linear_211_22797" x1="10.5903" y1="7.82309" x2="10.5903" y2="21.9149" gradientUnits="userSpaceOnUse">
<stop stopColor="#F6CFBE"/>
<stop offset="1" stopColor="#EDAD99"/>
</linearGradient>
<linearGradient id="paint9_linear_211_22797" x1="20.682" y1="6.52098" x2="21.4781" y2="2.39539" gradientUnits="userSpaceOnUse">
<stop stopColor="#F6CFBE"/>
<stop offset="1" stopColor="#EDAD99"/>
</linearGradient>
<linearGradient id="paint10_linear_211_22797" x1="18.9863" y1="-4.02311" x2="18.9863" y2="20.0642" gradientUnits="userSpaceOnUse">
<stop stopColor="#957E7F"/>
<stop offset="1" stopColor="#373638"/>
</linearGradient>
<linearGradient id="paint11_linear_211_22797" x1="19.6265" y1="16.8477" x2="19.4817" y2="19.019" gradientUnits="userSpaceOnUse">
<stop stopColor="#F6CFBE"/>
<stop offset="1" stopColor="#EDAD99"/>
</linearGradient>
<linearGradient id="paint12_linear_211_22797" x1="15.4415" y1="26.0144" x2="15.4776" y2="21.2015" gradientUnits="userSpaceOnUse">
<stop stopColor="#58595B"/>
<stop offset="1" stopColor="#414042"/>
</linearGradient>
<linearGradient id="paint13_linear_211_22797" x1="22.9688" y1="26.0569" x2="23.0049" y2="21.2438" gradientUnits="userSpaceOnUse">
<stop stopColor="#58595B"/>
<stop offset="1" stopColor="#414042"/>
</linearGradient>
<linearGradient id="paint14_linear_211_22797" x1="15.3961" y1="29.4404" x2="15.4444" y2="23.023" gradientUnits="userSpaceOnUse">
<stop stopColor="#58595B"/>
<stop offset="1" stopColor="#414042"/>
</linearGradient>
<linearGradient id="paint15_linear_211_22797" x1="22.9227" y1="29.497" x2="22.9711" y2="23.0794" gradientUnits="userSpaceOnUse">
<stop stopColor="#58595B"/>
<stop offset="1" stopColor="#414042"/>
</linearGradient>
<linearGradient id="paint16_linear_211_22797" x1="12.6074" y1="21.2466" x2="14.9056" y2="20.7762" gradientUnits="userSpaceOnUse">
<stop stopColor="#F6CFBE"/>
<stop offset="1" stopColor="#EDAD99"/>
</linearGradient>
<linearGradient id="paint17_linear_211_22797" x1="18.0869" y1="46.8779" x2="17.514" y2="44.2677" gradientUnits="userSpaceOnUse">
<stop stopColor="#EFF0F0"/>
<stop offset="1" stopColor="#E4E5E6"/>
</linearGradient>
<linearGradient id="paint18_linear_211_22797" x1="20.4651" y1="46.8779" x2="21.0381" y2="44.2677" gradientUnits="userSpaceOnUse">
<stop stopColor="#EFF0F0"/>
<stop offset="1" stopColor="#E4E5E6"/>
</linearGradient>
<linearGradient id="paint19_linear_211_22797" x1="12.7539" y1="37.7198" x2="12.6885" y2="36.961" gradientUnits="userSpaceOnUse">
<stop stopColor="#D0D3D3"/>
<stop offset="1" stopColor="#AAAEB1"/>
</linearGradient>
<linearGradient id="paint20_linear_211_22797" x1="11.3518" y1="23.4641" x2="11.4242" y2="24.0432" gradientUnits="userSpaceOnUse">
<stop stopColor="#58595B"/>
<stop offset="1" stopColor="#414042"/>
</linearGradient>
<linearGradient id="paint21_linear_211_22797" x1="11.344" y1="35.617" x2="11.3385" y2="35.5527" gradientUnits="userSpaceOnUse">
<stop stopColor="#58595B"/>
<stop offset="1" stopColor="#414042"/>
</linearGradient>
<linearGradient id="paint22_linear_211_22797" x1="13.0214" y1="35.617" x2="13.0269" y2="35.5527" gradientUnits="userSpaceOnUse">
<stop stopColor="#58595B"/>
<stop offset="1" stopColor="#414042"/>
</linearGradient>
<linearGradient id="paint23_linear_211_22797" x1="24.9389" y1="21.7657" x2="25.0113" y2="22.3447" gradientUnits="userSpaceOnUse">
<stop stopColor="#58595B"/>
<stop offset="1" stopColor="#414042"/>
</linearGradient>
<linearGradient id="paint24_linear_211_22797" x1="13.3467" y1="23.2147" x2="13.4191" y2="23.7937" gradientUnits="userSpaceOnUse">
<stop stopColor="#58595B"/>
<stop offset="1" stopColor="#414042"/>
</linearGradient>
<linearGradient id="paint25_linear_211_22797" x1="30.6163" y1="33.8625" x2="31.3176" y2="34.1112" gradientUnits="userSpaceOnUse">
<stop stopColor="#6C6F73"/>
<stop offset="1" stopColor="#56585B"/>
</linearGradient>
<linearGradient id="paint26_linear_211_22797" x1="22.0114" y1="32.065" x2="24.2795" y2="32.3666" gradientUnits="userSpaceOnUse">
<stop stopColor="#58595B"/>
<stop offset="1" stopColor="#414042"/>
</linearGradient>
<linearGradient id="paint27_linear_211_22797" x1="22.0114" y1="32.065" x2="24.2795" y2="32.3666" gradientUnits="userSpaceOnUse">
<stop stopColor="#6C6F73"/>
<stop offset="1" stopColor="#56585B"/>
</linearGradient>
<linearGradient id="paint28_linear_211_22797" x1="22.0116" y1="32.0649" x2="24.2797" y2="32.3666" gradientUnits="userSpaceOnUse">
<stop stopColor="#D0D3D3"/>
<stop offset="1" stopColor="#AAAEB1"/>
</linearGradient>
<clipPath id="clip0_211_22797">
<rect width="37.0579" height="37.0579" fill="white" transform="translate(0.746826 0.970947)"/>
</clipPath>
</defs>
</svg>
