<svg width="55" height="47" viewBox="0 0 55 47" fill="none" xmlns="http://www.w3.org/2000/svg">
<path d="M47.0604 25.3606H42.807C43.2405 26.5477 43.4774 27.8287 43.4774 29.1638V45.2395C43.4774 45.7962 43.3805 46.3305 43.2042 46.8274H50.2362C52.8629 46.8274 54.9999 44.6904 54.9999 42.0637V33.3001C55 28.9223 51.4383 25.3606 47.0604 25.3606ZM11.5226 29.1639C11.5226 27.8287 11.7595 26.5478 12.193 25.3608H7.93955C3.56168 25.3608 0 28.9224 0 33.3003V42.0639C0 44.6906 2.13694 46.8276 4.76373 46.8276H11.7958C11.6148 46.3177 11.5224 45.7806 11.5226 45.2396V29.1639ZM32.362 21.2244H22.638C18.2601 21.2244 14.6984 24.786 14.6984 29.1639V45.2396C14.6984 46.1165 15.4093 46.8275 16.2863 46.8275H38.7137C39.5907 46.8275 40.3016 46.1166 40.3016 45.2396V29.1639C40.3016 24.786 36.7399 21.2244 32.362 21.2244ZM27.5 0.172363C22.235 0.172363 17.9517 4.4557 17.9517 9.72077C17.9517 13.292 19.9228 16.411 22.8337 18.0485C24.2144 18.8252 25.8062 19.2691 27.5 19.2691C29.1938 19.2691 30.7856 18.8252 32.1663 18.0485C35.0773 16.411 37.0483 13.2919 37.0483 9.72077C37.0483 4.45581 32.765 0.172363 27.5 0.172363ZM10.7334 9.07216C6.79583 9.07216 3.59251 12.2755 3.59251 16.213C3.59251 20.1506 6.79583 23.3539 10.7334 23.3539C11.701 23.3547 12.6586 23.1578 13.5473 22.7751C15.0411 22.132 16.2728 20.9935 17.035 19.5675C17.5871 18.5357 17.8754 17.3833 17.8742 16.213C17.8742 12.2756 14.6709 9.07216 10.7334 9.07216ZM44.2666 9.07216C40.3291 9.07216 37.1258 12.2755 37.1258 16.213C37.1246 17.3833 37.4129 18.5357 37.965 19.5675C38.7272 20.9936 39.9589 22.1321 41.4527 22.7751C42.3414 23.1578 43.299 23.3547 44.2666 23.3539C48.2042 23.3539 51.4075 20.1506 51.4075 16.213C51.4075 12.2755 48.2042 9.07216 44.2666 9.07216Z" fill="#01AEF3"/>
</svg>
