<svg width="55" height="55" viewBox="0 0 55 55" fill="none" xmlns="http://www.w3.org/2000/svg">
<path d="M21.0963 30.3372H38.3555C42.1113 30.3372 45.1445 27.2973 45.1445 23.5481V13.1927C45.1445 9.43738 42.1052 6.40368 38.3555 6.40368H36.515V1.11133C36.515 0.221445 35.7936 -0.5 34.9037 -0.5H24.5482C23.6583 -0.5 22.9369 0.221445 22.9369 1.11133V6.40368H21.0964C17.3406 6.40368 14.3074 9.44372 14.3074 13.1927V23.5481C14.3073 27.3034 17.3465 30.3372 21.0963 30.3372ZM26.1595 2.72266H33.2924V6.40368H26.1595V2.72266ZM26.2741 16.7592H28.1146V14.9186C28.1146 14.0287 28.8361 13.3073 29.7259 13.3073C30.6158 13.3073 31.3373 14.0287 31.3373 14.9186V16.7592H33.1777C34.0676 16.7592 34.7891 17.4806 34.7891 18.3705C34.7891 19.2604 34.0676 19.9818 33.1777 19.9818H31.3373V21.8223C31.3373 22.7121 30.6158 23.4336 29.7259 23.4336C28.8361 23.4336 28.1146 22.7121 28.1146 21.8223V19.9818H26.2741C25.3842 19.9818 24.6627 19.2604 24.6627 18.3705C24.6627 17.4806 25.3842 16.7592 26.2741 16.7592ZM51.1571 12.908L54.6089 11.182C55.4049 10.784 55.7275 9.81615 55.3295 9.02026C54.9314 8.22437 53.9638 7.90157 53.1677 8.29968L49.7159 10.0256C48.9199 10.4236 48.5973 11.3915 48.9953 12.1874C49.3958 12.9883 50.3663 13.3036 51.1571 12.908ZM54.6089 25.5588L51.1571 23.833C50.3613 23.4349 49.3933 23.7577 48.9953 24.5536C48.5973 25.3495 48.92 26.3174 49.7159 26.7153L53.1677 28.4412C53.9609 28.838 54.9302 28.5191 55.3295 27.7206C55.7275 26.9247 55.4048 25.9567 54.6089 25.5588ZM9.73592 10.0256L6.28413 8.29968C5.48803 7.90157 4.52037 8.22437 4.12227 9.02026C3.72427 9.81615 4.04686 10.784 4.84285 11.182L8.29464 12.908C9.08548 13.3036 10.056 12.9883 10.4565 12.1874C10.8545 11.3915 10.5319 10.4236 9.73592 10.0256ZM8.29475 23.833L4.84296 25.5588C4.04696 25.9567 3.72438 26.9247 4.12237 27.7206C4.52166 28.5191 5.49093 28.838 6.28424 28.4412L9.73602 26.7153C10.532 26.3174 10.8546 25.3495 10.4566 24.5536C10.0586 23.7577 9.09063 23.4349 8.29475 23.833ZM44.0962 34.8683L36.303 42.6618C35.3455 43.6183 34.0746 44.1445 32.7237 44.1445H26.8758C26.0082 44.1445 25.2616 43.4778 25.2208 42.6111C25.1772 41.6858 25.9145 40.9219 26.8303 40.9219H32.0484C33.9548 40.9219 35.5002 39.3764 35.5002 37.4701C35.5002 35.5638 33.9547 34.0183 32.0484 34.0183H21.5391C16.6509 34.0183 15.1021 38.136 14.8453 39.196H12.3521V51.0482H34.5716C36.5753 51.0482 38.4596 50.2677 39.8775 48.8503L51.5761 37.1513C51.7264 37.001 51.8456 36.8225 51.9266 36.626C52.0077 36.4295 52.049 36.2189 52.0483 36.0063C52.0475 35.7938 52.0048 35.5835 51.9224 35.3875C51.84 35.1916 51.7196 35.0139 51.5682 34.8647C49.426 32.7278 46.1009 32.8636 44.0962 34.8683ZM7.51819 35.7441H2.11133C1.22145 35.7441 0.5 36.4656 0.5 37.3555V52.8887C0.5 53.7786 1.22145 54.5 2.11133 54.5H7.51819C8.40808 54.5 9.12952 53.7786 9.12952 52.8887V37.3555C9.12952 36.4656 8.40818 35.7441 7.51819 35.7441Z" fill="#01AEF3"/>
</svg>
