<svg width="38" height="39" viewBox="0 0 38 39" fill="none" xmlns="http://www.w3.org/2000/svg">
<g id="hospital-bed 1" clipPath="url(#clip0_211_23079)">
<g id="Group">
<path id="Vector" d="M9.64349 20.0791H3.8532C3.533 20.0791 3.27417 20.3385 3.27417 20.6581V22.9742C3.27417 23.2939 3.533 23.5533 3.8532 23.5533H10.8016C11.1218 23.5533 11.3806 23.2939 11.3806 22.9742V21.8162C11.3806 20.8585 10.6012 20.0791 9.64349 20.0791Z" fill="#7FC6F0"/>
<path id="Vector_2" d="M33.9627 25.8694H3.8532C3.533 25.8694 3.27417 26.1288 3.27417 26.4484V28.7645C3.27417 29.0842 3.533 29.3436 3.8532 29.3436H33.9627C34.2829 29.3436 34.5418 29.0842 34.5418 28.7645V26.4484C34.5418 26.1288 34.2829 25.8694 33.9627 25.8694Z" fill="#D7D7D9"/>
<path id="Vector_3" d="M33.3838 34.5548H4.4323C4.1121 34.5548 3.85327 34.2954 3.85327 33.9758C3.85327 33.6561 4.1121 33.3967 4.4323 33.3967H33.3838C33.704 33.3967 33.9628 33.6561 33.9628 33.9758C33.9628 34.2954 33.704 34.5548 33.3838 34.5548Z" fill="#D7D7D9"/>
<path id="Vector_4" d="M14.2757 22.3953H3.8532C3.533 22.3953 3.27417 22.6547 3.27417 22.9743V26.4485C3.27417 26.7681 3.533 27.0275 3.8532 27.0275H14.2757C14.5959 27.0275 14.8548 26.7681 14.8548 26.4485V22.9743C14.8548 22.6547 14.5959 22.3953 14.2757 22.3953Z" fill="white"/>
<path id="Vector_5" d="M2.69534 15.4468C1.73763 15.4468 0.958252 16.2262 0.958252 17.1839V32.6897C0.958252 32.9184 1.09259 33.1257 1.3022 33.2189C1.50949 33.3122 1.75558 33.2734 1.92523 33.1199C2.35719 32.7302 3.03349 32.7302 3.46545 33.1199C3.57431 33.2172 3.71327 33.2687 3.8534 33.2687C3.93331 33.2687 4.01321 33.2525 4.08848 33.2189C4.29809 33.1257 4.43243 32.9184 4.43243 32.6897V17.1839C4.43243 16.2262 3.65305 15.4468 2.69534 15.4468Z" fill="#D7D7D9"/>
<path id="Vector_6" d="M2.69527 36.2919C3.97442 36.2919 5.01139 35.2549 5.01139 33.9758C5.01139 32.6966 3.97442 31.6597 2.69527 31.6597C1.41611 31.6597 0.37915 32.6966 0.37915 33.9758C0.37915 35.2549 1.41611 36.2919 2.69527 36.2919Z" fill="#7FC6F0"/>
<path id="Vector_7" d="M33.9628 20.0791H15.4339C14.4744 20.0791 13.6968 20.8567 13.6968 21.8162V27.0275H33.9628C34.2824 27.0275 34.5418 26.768 34.5418 26.4484V20.6581C34.5418 20.3385 34.2824 20.0791 33.9628 20.0791Z" fill="#7FC6F0"/>
<path id="Vector_8" d="M18.908 17.763C23.0653 17.763 26.4354 14.3929 26.4354 10.2356C26.4354 6.07838 23.0653 2.70825 18.908 2.70825C14.7507 2.70825 11.3806 6.07838 11.3806 10.2356C11.3806 14.3929 14.7507 17.763 18.908 17.763Z" fill="#FF3D62"/>
<path id="Vector_9" d="M22.3824 8.49849H20.6453V6.7614C20.6453 6.44178 20.3864 6.18237 20.0662 6.18237H17.7501C17.4299 6.18237 17.1711 6.44178 17.1711 6.7614V8.49849H15.434C15.1138 8.49849 14.855 8.7579 14.855 9.07752V11.3936C14.855 11.7133 15.1138 11.9727 15.434 11.9727H17.1711V13.7098C17.1711 14.0294 17.4299 14.2888 17.7501 14.2888H20.0662C20.3864 14.2888 20.6453 14.0294 20.6453 13.7098V11.9727H22.3824C22.7026 11.9727 22.9614 11.7133 22.9614 11.3936V9.07752C22.9614 8.7579 22.7026 8.49849 22.3824 8.49849Z" fill="white"/>
<path id="Vector_10" d="M35.1209 17.7629C34.1632 17.7629 33.3838 18.5423 33.3838 19.5V32.6897C33.3838 32.9185 33.5181 33.1257 33.7277 33.219C33.9356 33.3122 34.1805 33.2734 34.3508 33.12C34.7827 32.7303 35.459 32.7303 35.891 33.12C35.9998 33.2178 36.1388 33.2688 36.2789 33.2688C36.3588 33.2688 36.4387 33.2526 36.514 33.219C36.7236 33.1257 36.858 32.9185 36.858 32.6897V19.5C36.858 18.5423 36.0786 17.7629 35.1209 17.7629Z" fill="#D7D7D9"/>
<path id="Vector_11" d="M35.1208 36.2919C36.4 36.2919 37.4369 35.2549 37.4369 33.9758C37.4369 32.6966 36.4 31.6597 35.1208 31.6597C33.8416 31.6597 32.8047 32.6966 32.8047 33.9758C32.8047 35.2549 33.8416 36.2919 35.1208 36.2919Z" fill="#7FC6F0"/>
</g>
</g>
<defs>
<clipPath id="clip0_211_23079">
<rect width="37.0579" height="37.0579" fill="white" transform="translate(0.37915 0.970947)"/>
</clipPath>
</defs>
</svg>
