<svg width="400" height="272" viewBox="0 0 400 272" fill="none" xmlns="http://www.w3.org/2000/svg">
<path d="M51.7999 205.236C51.7631 205.017 51.65 204.819 51.4807 204.675C51.3113 204.532 51.0967 204.454 50.8749 204.454C50.6531 204.454 50.4385 204.532 50.2692 204.675C50.0998 204.819 49.9867 205.017 49.9499 205.236C49.1659 208.746 52.1999 212.474 50.6099 215.892C49.1699 218.986 44.2639 217.158 44.4779 212.42C44.6219 209.202 47.6959 206.876 48.8239 202.93C49.7992 199.59 49.4303 196.001 47.7959 192.93C47.2199 191.862 45.5059 192.612 46.0619 193.73C47.0942 195.682 47.5179 197.899 47.2783 200.094C47.0387 202.289 46.1469 204.362 44.7179 206.046C43.0225 208.023 42.0054 210.492 41.8159 213.09C41.8159 221.96 55.2159 222.996 53.5239 212.09C53.1679 209.812 52.2419 207.566 51.7999 205.236Z" fill="#0CAFF3"/>
<path d="M26.4601 125.564C26.3441 126.832 26.2601 128.1 26.1681 129.364C22.9247 129.565 19.6704 129.223 16.5401 128.35C16.5401 127.488 16.6461 126.628 16.6661 125.816C16.6921 124.676 14.8841 124.662 14.7401 125.702C13.8042 132.348 13.4482 139.064 13.6761 145.772C13.6406 147.509 14.2843 149.191 15.4702 150.46C16.6561 151.73 18.2905 152.486 20.0256 152.569C21.7608 152.651 23.4597 152.053 24.7608 150.902C26.0619 149.752 26.8624 148.138 26.9921 146.406C28.0365 139.575 28.6504 132.686 28.8301 125.778C28.8761 124.386 26.5841 124.21 26.4601 125.564Z" fill="#0CAFF3"/>
<path d="M30.9999 30.41C29.4299 30.094 28.9859 31.132 29.9239 31.892C30.4375 32.1623 30.8733 32.5596 31.1899 33.046C31.7479 34.174 30.2279 35.58 29.1759 34.82C28.9935 34.6534 28.8598 34.4403 28.7893 34.2035C28.7189 33.9667 28.7142 33.7152 28.7759 33.476C29.1759 32.374 27.6659 31.94 27.1039 32.906C25.2719 36.052 30.0139 38.93 32.6019 36.14C33.009 35.7029 33.2969 35.1685 33.438 34.5882C33.5792 34.0078 33.5689 33.4009 33.408 32.8257C33.2472 32.2504 32.9413 31.7262 32.5196 31.3032C32.0979 30.8802 31.5746 30.5726 30.9999 30.41Z" fill="#0CAFF3"/>
<path d="M18.5041 59.236C19.1244 59.5423 19.8033 59.7118 20.4948 59.7329C21.1863 59.754 21.8743 59.6262 22.5121 59.3582C23.1499 59.0902 23.7227 58.6883 24.1916 58.1796C24.6606 57.671 25.0147 57.0675 25.2301 56.41C25.367 55.9604 25.4134 55.4881 25.3667 55.0204C25.32 54.5528 25.181 54.099 24.9578 53.6854C24.7347 53.2718 24.4317 52.9065 24.0665 52.6107C23.7013 52.3149 23.281 52.0944 22.8301 51.962C21.0841 51.44 20.1281 52.944 21.7701 53.762C22.4541 54.102 23.2301 54.53 23.0381 55.714C22.9714 56.0191 22.8426 56.3072 22.6598 56.5603C22.4769 56.8134 22.2438 57.0262 21.9752 57.1853C21.7065 57.3444 21.4079 57.4465 21.098 57.4851C20.7881 57.5238 20.4736 57.4982 20.1741 57.41C19.9106 57.372 19.6607 57.2688 19.4472 57.1098C19.2336 56.9509 19.0631 56.7411 18.9511 56.4996C18.8391 56.2581 18.7891 55.9925 18.8057 55.7268C18.8223 55.4611 18.9049 55.2037 19.0461 54.978C19.4641 54.116 19.1821 53.122 18.0701 53.61C15.9641 54.536 16.4541 58.052 18.5041 59.236Z" fill="#0CAFF3"/>
<path d="M34.9359 66.572C33.8219 65.812 32.8199 66.876 33.6699 67.838C33.9484 68.1162 34.1359 68.4726 34.2073 68.8597C34.2788 69.2469 34.2308 69.6467 34.0699 70.006C33.5259 71.19 31.6699 71.678 30.9539 70.386C30.7566 70.0988 30.651 69.7585 30.651 69.41C30.651 69.0615 30.7566 68.7213 30.9539 68.434C31.9799 66.234 30.1299 65.916 29.1159 67.42C28.5581 68.2264 28.3325 69.2167 28.486 70.1851C28.6394 71.1535 29.1601 72.0255 29.9399 72.62C30.3832 72.9447 30.8887 73.1745 31.4248 73.2951C31.9609 73.4158 32.5161 73.4247 33.0558 73.3213C33.5955 73.2179 34.1081 73.0044 34.5616 72.6942C35.0152 72.3839 35.3999 71.9835 35.6919 71.518C36.186 70.7418 36.3818 69.8126 36.2428 68.903C36.1037 67.9934 35.6394 67.1651 34.9359 66.572Z" fill="#0CAFF3"/>
<path d="M29.6399 83.904C29.0662 88.9491 28.8544 94.0287 29.0059 99.104C29.0579 100.372 31.0839 99.826 31.1739 98.838C31.5859 94.314 31.3739 88.862 31.6159 84.178C31.6327 83.9257 31.5532 83.6764 31.3936 83.4803C31.2339 83.2842 31.0059 83.1558 30.7554 83.1211C30.505 83.0864 30.2506 83.1478 30.0437 83.2931C29.8367 83.4384 29.6924 83.6566 29.6399 83.904Z" fill="#0CAFF3"/>
<path d="M31.3998 78.304C27.1019 78.5073 22.7945 78.2485 18.5518 77.532C16.6378 77.038 16.3218 79.508 17.1958 80.23C19.7958 82.042 28.2958 82.042 31.6658 81.902C35.0358 81.762 34.9258 78.116 31.3998 78.304Z" fill="#0CAFF3"/>
<path d="M20.1239 96.31C20.4639 91.91 20.4799 87.44 20.6059 83.068C20.5953 82.8372 20.503 82.6176 20.3457 82.4484C20.1883 82.2792 19.976 82.1713 19.7465 82.1439C19.5171 82.1165 19.2853 82.1715 19.0926 82.299C18.8998 82.4264 18.7586 82.6181 18.6939 82.84C17.9876 87.3097 17.7449 91.8404 17.9699 96.36C18.1479 97.422 20.0419 97.388 20.1239 96.31Z" fill="#0CAFF3"/>
<path d="M163.3 168.276C162.972 171.352 163.13 175.652 163.122 179.06C163.122 180.326 165.628 180.33 165.468 178.704C165.112 175.138 165.28 171.75 165.176 168.214C165.152 167.416 163.426 167.098 163.3 168.276Z" fill="#0CAFF3"/>
<path d="M170.814 207.48C169.852 205.87 167.468 207.542 168.414 209.152L172.48 215.968C162.23 216.368 152.816 215.41 142.88 215.474C144.856 211.674 147.384 208.014 149 204.074C149.093 203.842 149.102 203.585 149.027 203.347C148.952 203.109 148.796 202.905 148.586 202.769C148.377 202.633 148.127 202.574 147.879 202.602C147.631 202.63 147.4 202.743 147.226 202.922C142.728 208.122 135.18 224.688 132.3 231.886C129.792 238.156 130.516 241.75 138.3 242.486C151.3 243.722 166.796 242.218 180.112 241.75C185.18 241.572 185.608 238.65 184.712 234.072C183.28 226.692 174.9 214.318 170.814 207.48Z" fill="#0CAFF3"/>
<path d="M149.262 166C151.662 167.04 164.462 166.33 167.228 166.178C169.994 166.026 170.004 162.414 167.812 162.378C164.922 162.328 151.188 161.796 149.16 162.658C148.236 163.132 148.184 165.528 149.262 166Z" fill="#0CAFF3"/>
<path d="M151.77 168.734C151.758 171.534 151.714 174.508 151.77 177.298C151.816 179.498 154.304 179.832 154.228 177.058C154.152 174.284 154.136 171.418 153.988 168.594C153.93 167.49 151.776 167.34 151.77 168.734Z" fill="#0CAFF3"/>
<path d="M277.638 122.042C279.274 122.598 290.488 123.042 292.038 122.042C293.038 121.412 293.424 118.498 292.038 118.368C287.247 117.979 282.433 117.954 277.638 118.292C276.142 118.52 276.22 121.56 277.638 122.042Z" fill="#0CAFF3"/>
<path d="M362 188.08C361.886 186.294 359.27 186.662 359.276 188.384C359.276 191.16 359.364 193.934 359.466 196.71C356.031 196.476 352.581 196.624 349.178 197.152C349.178 193.53 349.222 189.906 349.178 186.294C349.162 185.028 347.102 185.028 346.978 186.294C345.824 197.586 346.28 212.37 346.624 224.052C347.224 244.692 363.364 240.866 362.854 224.166C362.492 212.548 362.728 199.648 362 188.08Z" fill="#0CAFF3"/>
<path d="M311.29 175.702C309.917 176.075 308.696 176.868 307.798 177.971C306.9 179.074 306.371 180.431 306.284 181.851C306.198 183.27 306.558 184.681 307.316 185.885C308.073 187.089 309.189 188.025 310.506 188.562C317.736 191.682 321.43 184.634 320.046 179.934C319.399 178.247 318.133 176.87 316.506 176.084C314.879 175.297 313.014 175.161 311.29 175.702ZM317.448 183.406C316.106 188.766 309.584 186.318 309.022 183.216C307.828 176.612 319.2 176.374 317.448 183.4V183.406Z" fill="#0CAFF3"/>
<path d="M318.842 123.424C315.722 117.876 305.442 120.484 306.514 126.984C307.944 135.6 323.31 131.37 318.842 123.424ZM316.7 125.742C317.1 129.924 308.964 130.38 309.276 126.072C309.558 122.182 316.346 121.966 316.7 125.742Z" fill="#0CAFF3"/>
<path d="M361.668 174.738C356.322 174.75 350.964 174.828 345.628 174.916C344.17 174.94 344.142 178.4 345.628 178.716C348.536 179.336 357.306 178.55 360.692 179.07C363.73 179.538 364.836 174.732 361.668 174.738Z" fill="#0CAFF3"/>
<path d="M389.252 133.662C386.098 123.234 357.234 121.144 353.598 144.292C349.503 141.509 346.024 137.912 343.377 133.727C340.731 129.542 338.974 124.857 338.216 119.964C336.616 110.486 337.836 99.502 334.098 90.456C340.37 77.784 334.91 68.114 325.52 64.988C314.89 61.448 299.32 65.834 291.956 76.112C284.426 86.626 283.114 102.87 283.922 115.1C284.028 116.682 286.36 116.442 286.342 114.9C286.214 103.37 287.31 86.88 294.49 77.384C300.49 69.446 315.206 64.558 324.76 67.602C331.792 69.842 335.858 77.054 332.438 87.152C326.876 77.89 317.6 76.292 311.696 79.638C310.351 80.3602 309.182 81.3687 308.269 82.5924C307.357 83.8161 306.725 85.2251 306.417 86.7199C306.109 88.2148 306.133 89.759 306.487 91.2436C306.841 92.7282 307.516 94.117 308.466 95.312C313.532 101.204 325.666 101.976 332.172 93.564C336.732 107.716 331.232 120.662 341.724 136.478C344.674 140.934 348.595 144.664 353.192 147.388C352.409 155.18 352.239 163.021 352.684 170.84C352.786 172.714 355.646 172.44 355.562 170.6C355.232 163.362 355.41 156.109 356.094 148.896C370.132 155.416 394.586 151.298 389.252 133.662ZM310.986 93.826C307.44 90.252 309.092 84.208 313.33 81.928C320.44 78.104 327.902 84.018 330.918 90.43C326.824 97.108 316.728 99.614 310.986 93.826ZM386.92 138.564C385.082 150.88 365.32 150.336 356.398 145.876C359.084 122 388.528 127.8 386.92 138.564Z" fill="#0CAFF3"/>
<path d="M291.436 139.25C291.31 136.132 291.246 133.016 291.036 129.91C291.024 129.642 290.91 129.39 290.716 129.204C290.523 129.019 290.265 128.916 289.997 128.916C289.729 128.916 289.472 129.019 289.278 129.204C289.085 129.39 288.97 129.642 288.958 129.91C288.88 133.284 288.57 136.374 288.742 139.31C288.828 140.754 288.342 141.938 291.63 142.06C297.43 142.272 301.044 148.902 301.23 154.184L268.098 153.666C268.569 150.607 269.926 147.753 272.003 145.458C274.079 143.163 276.783 141.528 279.78 140.754C281.308 140.34 281.326 139.954 281.312 137.144C281.463 134.533 281.404 131.914 281.136 129.312C280.882 128.148 279.084 127.958 278.982 129.236C278.73 132.38 278.804 135.572 278.728 138.702C272.392 139.74 267.302 145.702 265.74 151.65C259.006 177.308 306.216 186.46 304.12 153.704C303.726 147.546 299.736 139.92 291.436 139.25Z" fill="#0CAFF3"/>
<path d="M194.432 64.6C194.179 68.0042 193.153 71.3058 191.432 74.254C190.297 75.8152 188.625 76.9016 186.738 77.3041C184.85 77.7066 182.881 77.3967 181.208 76.434C179.171 75.1015 177.744 73.0159 177.242 70.634C175.886 66.834 173.162 66.74 171.198 70.192C170.064 72.192 168.998 74.874 166.422 76.07C162.932 77.696 158.958 75.894 156.526 72.586C154.094 69.278 153.992 66.01 153.51 62.272C153.5 62.0738 153.414 61.887 153.27 61.7503C153.126 61.6136 152.935 61.5373 152.737 61.5373C152.538 61.5373 152.348 61.6136 152.204 61.7503C152.06 61.887 151.974 62.0738 151.964 62.272C150.586 73.22 159.494 81.684 167.296 78.162C171.756 76.146 172.224 71.952 173.25 70.634C174.276 69.316 174.612 69.65 175.228 71.002C176.042 72.792 176.216 75.72 179.712 78.06C181.821 79.4616 184.389 79.9985 186.883 79.5596C189.378 79.1207 191.608 77.7395 193.112 75.702C195.34 72.702 195.84 68.502 196.24 64.782C196.38 63.4 194.646 63.252 194.432 64.6Z" fill="#0CAFF3"/>
<path d="M195.812 58.83C181.397 59.6804 166.934 59.2266 152.6 57.474C151.2 57.31 151.154 60.124 152.46 60.338C166.856 62.6785 181.478 63.3076 196.022 62.212C197.816 62.078 197.612 58.716 195.812 58.83Z" fill="#0CAFF3"/>
<path d="M175.248 88.022C177.57 88.608 182.75 87.848 182.848 83.524C182.874 82.436 181.432 81.65 180.884 83.272C179.8 86.472 177.484 86.288 175.222 86.49C173.64 86.63 173.868 87.674 175.248 88.022Z" fill="#191919"/>
<path d="M175.122 81.814C176.388 81.614 175.742 80.128 174.818 80.066C173.894 80.004 172.284 80.218 172.094 79.824C171.904 79.43 174.062 75.108 173.494 74.452C172.4 73.178 170.238 79.356 170.174 79.976C169.962 82.13 174.438 81.926 175.122 81.814Z" fill="#191919"/>
<path d="M165.834 66.356C164.7 64.276 162.034 68.206 163.592 70.246C165.15 72.286 167.08 68.636 165.834 66.356Z" fill="#191919"/>
<path d="M183.574 71.564C184.638 71.198 185.154 68.64 183.574 67.332C181.34 65.486 180.23 72.71 183.574 71.564Z" fill="#191919"/>
<path d="M183.256 96.652C183.151 101.214 183.414 105.778 184.042 110.298C177.378 113.426 169.468 112.414 164.492 111.006C163.87 110.83 162.642 111.436 164.25 112.49C168.762 115.44 179.284 115.04 184.524 112.78C186.858 111.78 186.124 111.222 186.032 108.726C185.864 104.582 185.36 95.65 185.632 94.916L188.534 91.516C201.902 92.644 214.368 89.54 220.64 85.408C210.504 81.974 220.64 23.732 177.372 21.296C137.58 19.06 143.168 70.8 124.3 80.078C134.49 85.7935 145.867 89.068 157.536 89.644C158.746 91.8117 160.376 93.7161 162.332 95.2457C164.287 96.7753 166.528 97.8993 168.923 98.552C171.319 99.2046 173.82 99.3727 176.281 99.0465C178.742 98.7202 181.113 97.9062 183.256 96.652ZM155.178 77.81C148.178 78.444 146.322 73.488 145.942 69.55C145.476 64.708 147.424 61.832 150.342 62.264C149.79 61.3567 149.476 60.3253 149.427 59.2647C149.378 58.2041 149.596 57.1483 150.062 56.194C147.034 55.142 146.388 55.394 147.96 50.05C149.317 46.2839 151.239 42.7461 153.66 39.558C154.56 38.634 154.952 39.454 154.446 40.558C152.499 44.6917 150.926 48.9915 149.746 53.406C165.052 57.498 186.098 56.94 201.808 55.052C201.54 50.1556 200.514 45.3303 198.768 40.748C198.06 38.856 200.452 39.912 201.834 44.042C203.328 48.502 204.368 51.01 204.204 55.674C204.418 57.966 202.804 57.674 198.844 58.056C199.302 59.0227 199.472 60.1011 199.332 61.1618C199.193 62.2225 198.75 63.2205 198.058 64.036C202.15 64.036 203.258 68.34 202.15 73.462C200.87 79.338 193.84 80.374 191.824 80.418C191.166 80.432 190.318 80.33 190.076 81.218C188.82 85.796 187.53 90.218 183.74 93.432C175.212 100.65 158.658 96.71 156.424 78.722C156.403 78.5796 156.355 78.4428 156.281 78.3195C156.207 78.1962 156.109 78.0889 155.993 78.0039C155.877 77.919 155.745 77.8581 155.605 77.8248C155.465 77.7915 155.32 77.7864 155.178 77.81Z" fill="#191919"/>
<path d="M164.568 98.26C164.515 98.1323 164.43 98.02 164.322 97.9335C164.214 97.847 164.086 97.7892 163.95 97.7653C163.813 97.7414 163.673 97.7521 163.542 97.7967C163.411 97.8412 163.293 97.918 163.2 98.02C162.418 98.86 161.336 107.802 161.046 109.676C161.075 109.85 161.157 110.011 161.282 110.136C161.407 110.262 161.568 110.345 161.742 110.374C161.916 110.403 162.095 110.377 162.254 110.3C162.413 110.222 162.544 110.097 162.628 109.942C163.042 109.16 165.176 99.528 164.568 98.26Z" fill="#191919"/>
<path d="M160.69 187.714C157.054 187.858 150.26 187.616 148.02 185.04C147.02 183.896 145.62 184.862 146.652 186.396C148.872 189.676 157.466 191.346 161.312 190.096C163.228 189.472 163.06 187.62 160.69 187.714Z" fill="#191919"/>
<path d="M147.348 190.716C146.734 190.338 145.24 190.834 146.424 192.236C149.264 195.604 157.08 196.886 161.21 196.304C162.286 196.152 162.908 193.934 160.69 193.872C156.015 194.336 151.319 193.225 147.348 190.716Z" fill="#191919"/>
<path d="M146.158 199.18C153.576 204.428 167.824 204.64 177.238 205.402C178.96 205.54 179.304 202.862 177.568 202.716C167.13 201.834 156.368 201.834 146.676 197.406C145.562 196.898 145.17 198.482 146.158 199.18Z" fill="#191919"/>
<path d="M180.862 176.956C176.865 174.758 172.675 172.93 168.344 171.496C165.808 171.212 165.808 172.764 168.116 173.636C171.04 174.742 178.086 179.366 180.152 179.198C181.23 179.112 181.812 177.49 180.862 176.956Z" fill="#191919"/>
<path d="M149.832 179.414C149.728 179.214 149.555 179.059 149.345 178.978C149.135 178.897 148.903 178.895 148.691 178.973C148.48 179.05 148.304 179.202 148.197 179.4C148.09 179.598 148.058 179.829 148.108 180.048C149.262 185.11 163.21 184.474 167.108 183.292C168.666 182.82 168.082 180.368 166.526 180.834C163.8 181.654 151.58 182.4 149.832 179.414Z" fill="#191919"/>
<path d="M381.346 245.884C255.084 246.83 132.284 249.246 11.3702 245.884C11.1981 245.877 11.0261 245.903 10.8642 245.962C10.7023 246.021 10.5535 246.111 10.4265 246.228C10.17 246.463 10.0173 246.79 10.0022 247.138C9.99473 247.31 10.0212 247.482 10.0802 247.644C10.1392 247.806 10.2294 247.955 10.3459 248.082C10.4623 248.209 10.6027 248.312 10.7589 248.384C10.915 248.457 11.0841 248.499 11.2562 248.506C133.944 252.382 259.38 250.446 381.232 248.836C383.132 248.81 383.246 245.868 381.346 245.884Z" fill="#191919"/>
<path d="M140.418 143.214C142.89 148.488 146.108 153.378 149.972 157.736C150.796 158.644 152.2 157.368 151.572 156.38C148.772 152.022 142.804 143.392 141.346 138.754L148.6 131.9C148.837 131.626 148.958 131.272 148.939 130.91C148.92 130.549 148.762 130.209 148.498 129.962C145.261 127.714 142.375 124.999 139.934 121.904C142.007 119.583 144.293 117.462 146.762 115.568C148.162 114.49 146.782 112.72 145.306 113.782C142.302 115.858 139.528 118.249 137.032 120.914C136.827 121.147 136.704 121.44 136.681 121.749C136.658 122.058 136.737 122.366 136.906 122.626C139.335 125.847 142.215 128.702 145.458 131.102C137.098 138.716 137.45 137.072 140.418 143.214Z" fill="#191919"/>
<path d="M200.918 182.138C200.62 188.12 200.082 200.632 199.956 206.212C199.93 207.352 201.732 207.732 201.984 206.554C202.888 202.324 203.846 186.496 202.692 182.228C202.4 181.15 200.986 180.8 200.918 182.138Z" fill="#191919"/>
<path d="M163.68 159.75C173.824 154.304 184.144 147.474 194.254 141.834C198.618 139.4 196.436 137.566 192.53 129.886C196.653 129.429 200.739 128.684 204.758 127.656C206.748 127.142 206.866 125.892 206.292 124.082L204.092 117.19C204.073 117.005 204.015 116.827 203.92 116.667C203.825 116.508 203.696 116.371 203.543 116.267C203.389 116.162 203.215 116.093 203.032 116.063C202.848 116.034 202.661 116.045 202.482 116.096C202.304 116.147 202.139 116.236 201.999 116.358C201.858 116.479 201.747 116.63 201.671 116.8C201.596 116.97 201.559 117.154 201.562 117.339C201.566 117.525 201.61 117.707 201.692 117.874C202.44 120.168 202.958 122.828 203.77 125.122C186.386 129.214 186.184 123.55 193.874 138.692C184.22 144.71 171.488 151.892 162.528 158.458C161.618 159.124 162.6 160.334 163.68 159.75Z" fill="#191919"/>
<path d="M194.266 109.2C178.542 121.839 165.928 137.919 157.396 156.2C156.866 157.38 158.214 157.92 158.892 156.77C171.444 135.49 177.618 126.868 197.292 110.156C227.208 119.888 250.428 153.996 255.854 184.228C259.806 206.228 244.186 210.372 225.654 211.088C208.828 211.74 192.558 208.162 182.454 206.438C184.781 196.928 186.274 187.232 186.914 177.462C196.974 179.996 213.396 178.652 223.658 176.536C223.814 176.529 223.967 176.491 224.108 176.424C224.249 176.356 224.375 176.261 224.479 176.144C224.583 176.027 224.662 175.891 224.711 175.743C224.761 175.595 224.781 175.438 224.769 175.282C224.757 175.126 224.714 174.974 224.642 174.836C224.57 174.697 224.471 174.574 224.351 174.474C224.231 174.374 224.092 174.3 223.942 174.255C223.793 174.21 223.635 174.195 223.48 174.212C223.28 174.228 219.658 175.056 214.358 175.624C212.507 169.77 210.185 164.075 207.414 158.596C206.702 157.33 205.656 158.088 205.97 159.064C208.454 166.798 210.874 172.026 211.874 175.864C203.802 176.634 195.66 176.206 187.712 174.596C184.086 173.856 184.13 175.56 183.912 178.676C183.261 187.34 182.05 195.952 180.288 204.46C179.586 207.928 179.198 208.694 182.556 209.326C196.06 211.866 208.404 214.064 224.646 213.81C225.52 223.15 227.546 234.082 228.51 243.498C228.69 245.246 230.82 244.98 230.64 243.232C230.028 237.288 228.106 218.632 227.066 213.748C247.124 212.924 262.99 206.69 258.616 183.348C253.158 154.206 228.95 116.454 199.724 108.112C196.418 107.172 196.75 107.218 194.266 109.2Z" fill="#191919"/>
<path d="M36.076 141.276C43.554 151.794 73.144 180.578 86.15 183.976C94.408 186.132 107.504 183.404 115.292 180.744C116.99 180.164 116.774 177.79 115.038 178.362C107.612 180.812 94.386 183.332 86.506 181.188C73.34 177.6 49.444 152.82 38.61 140.478C45.834 132.204 50.356 127.808 55.082 117.57L55.576 117.126C64.0034 124.802 73.1229 131.682 82.818 137.678C89.16 141.608 89.66 142.252 93.69 139.224C112.862 124.8 129.8 115.238 152.822 107.548C151.087 120.219 153.346 133.116 159.284 144.444C159.896 145.602 161.816 144.938 161.236 143.67C155.941 132.155 154.021 119.375 155.698 106.812C155.87 105.544 155.114 104.048 152.924 104.734C130.61 111.736 109.765 122.764 91.422 137.272C89.178 139.046 89.26 138.286 86.544 136.614C76.4778 130.369 66.8507 123.443 57.73 115.884C55.442 114.002 54.072 113.466 52.53 116.608C47.116 127.584 42.95 130.252 36.488 139.326C36.082 139.886 35.4 140.334 36.076 141.276Z" fill="#191919"/>
<path d="M124.326 143.95C117.811 176.935 114.216 210.43 113.582 244.046C113.554 245.312 115.698 245.236 115.812 244.046C118.988 210.774 120.4 178.954 126.378 144.204C126.66 142.57 124.632 142.354 124.326 143.95Z" fill="#191919"/>
<path d="M64.9519 130.038C59.7619 136.902 55.4119 141.56 50.8499 147.776C50.7023 147.998 50.636 148.264 50.6624 148.529C50.6888 148.795 50.8062 149.043 50.9947 149.231C51.1832 149.42 51.4312 149.537 51.6965 149.564C51.9617 149.59 52.228 149.524 52.4499 149.376C56.5979 146.258 65.5619 135.56 66.6919 130.522C66.9859 129.26 65.7199 129.022 64.9519 130.038Z" fill="#191919"/>
<path d="M32.2502 108.498C33.2102 107.62 32.4642 106.126 31.3002 106.712C27.7502 108.492 19.7382 109.594 14.8282 104.76C13.4502 103.402 11.7962 105.374 13.2062 107.13C17.4662 112.43 28.2002 112.218 32.2502 108.498Z" fill="#191919"/>
<path d="M13.9418 122.156C17.3178 124.356 25.5418 124.218 28.8678 122.448C31.2398 121.186 30.6938 119.784 28.3738 120.306C23.9456 121.685 19.1758 121.484 14.8798 119.736C13.1418 119.2 12.1718 121 13.9418 122.156Z" fill="#191919"/>
<path d="M33.6319 93.522C37.4319 95.122 38.8899 99.958 40.7399 103.304C42.3859 106.28 46.3579 113.426 49.4439 114.704C50.8659 115.304 52.1459 113.136 50.7119 112.284C47.8019 110.556 43.8799 103.416 42.2339 100.386C40.3439 96.904 38.2899 92.962 34.2139 91.772C34.0959 91.7204 33.9685 91.6939 33.8398 91.6943C33.711 91.6947 33.5838 91.7219 33.4661 91.7742C33.3485 91.8265 33.2431 91.9028 33.1566 91.9982C33.0701 92.0936 33.0045 92.2059 32.9638 92.3281C32.9232 92.4502 32.9085 92.5795 32.9206 92.7077C32.9328 92.8359 32.9715 92.9601 33.0344 93.0724C33.0973 93.1848 33.1829 93.2828 33.2857 93.3602C33.3886 93.4376 33.5065 93.4927 33.6319 93.522Z" fill="#191919"/>
<path d="M31.6418 115.656C32.5178 114.696 31.6418 113.272 30.4518 114.01C27.2398 116.01 18.0098 115.432 14.9418 113.022C13.5818 111.952 12.0358 113.822 13.8018 115.556C16.7458 118.44 28.6458 118.944 31.6418 115.656Z" fill="#191919"/>
<path d="M30.9459 103.582C32.5059 103.212 32.2879 101.182 30.6799 101.44C27.1559 102.04 17.1019 101.96 16.8299 97.146C16.7519 95.746 14.7419 95.79 14.4739 97.07C12.9419 104.37 25.4299 104.886 30.9459 103.582Z" fill="#191919"/>
<path d="M31.7441 128.428C33.5736 130.08 35.5318 131.585 37.6001 132.926C38.8661 133.648 39.4781 132.114 39.1321 131.356C38.5541 130.086 34.0061 127.064 32.8741 126.516C32.623 126.4 32.3376 126.381 32.0733 126.463C31.809 126.545 31.5846 126.722 31.4438 126.961C31.303 127.199 31.2557 127.481 31.3112 127.752C31.3667 128.023 31.521 128.264 31.7441 128.428Z" fill="#191919"/>
<path d="M312.546 192.642C311.946 207.606 312.546 225.382 312.964 240.498C305.83 240.6 300.686 240.498 297.564 241.284C296.298 241.602 296.298 244.364 297.64 244.426C303.14 244.682 327.492 243.792 332.64 243.996C335.84 244.122 336.44 239.974 332.386 240.068C327.104 240.188 321.618 240.358 316.878 240.434C315.612 224.234 315.902 208.542 315.066 192.434C314.98 190.78 312.6 191.07 312.546 192.642Z" fill="#191919"/>
<path d="M322.492 127.756C324.255 127.887 326.025 127.887 327.788 127.756C329.902 127.632 329.928 125.13 327.85 125.222C326.228 125.296 323.962 125.222 322.302 125.298C320.642 125.374 320.56 127.586 322.492 127.756Z" fill="#191919"/>
<path d="M323.416 183.684C335.53 184.13 356.536 184.622 367.522 183.848C369.168 183.732 368.422 181.308 367.066 181.314C353.432 181.378 338.014 181.408 323.644 181.314C322.288 181.306 322.01 183.632 323.416 183.684Z" fill="#191919"/>
<path d="M311.95 135.258C311.436 144.126 311.71 163.386 312.254 171.824C312.368 173.598 314.974 173.18 314.94 171.482C314.698 159.56 314.648 147.128 314.23 135.27C314.186 134 312.022 134 311.95 135.258Z" fill="#191919"/>
<path d="M270.58 126.6C275.852 127.46 294.134 127.682 303.308 127.626C304.93 127.626 304.576 125.086 303.13 125.002C293.33 124.442 280.146 124.674 270.73 124.154C270.456 124.209 270.208 124.353 270.025 124.564C269.841 124.775 269.732 125.04 269.715 125.319C269.698 125.598 269.774 125.875 269.93 126.107C270.087 126.338 270.315 126.512 270.58 126.6Z" fill="#191919"/>
<path d="M295.072 181.6C294.018 181.72 292.994 183.848 296.188 183.97C298.924 184.074 301.662 183.97 304.398 184.046C304.743 184.001 305.057 183.825 305.276 183.555C305.495 183.284 305.602 182.94 305.574 182.593C305.546 182.246 305.386 181.924 305.127 181.691C304.868 181.459 304.53 181.336 304.182 181.346C301.143 181.2 298.098 181.284 295.072 181.6Z" fill="#191919"/>
<path d="M313.534 117.228C313.55 114.858 313.71 112.476 313.534 110.12C313.494 109.772 313.325 109.453 313.06 109.224C312.796 108.994 312.455 108.873 312.105 108.882C311.756 108.892 311.422 109.032 311.17 109.275C310.919 109.518 310.768 109.847 310.746 110.196C310.546 112.524 310.762 114.858 310.746 117.196C310.773 117.544 310.93 117.869 311.184 118.108C311.439 118.347 311.774 118.482 312.123 118.487C312.472 118.492 312.81 118.366 313.071 118.134C313.332 117.902 313.497 117.581 313.534 117.234V117.228Z" fill="#191919"/>
<path d="M30.704 241.6C32.79 242.726 63.09 243.13 65.916 242C67.904 241.2 67.182 233.282 65.802 233.282C63.802 233.282 54.02 229.14 53.752 223.994C53.672 222.474 42.768 222.41 42.476 223.994C41.212 230.85 32.34 232.484 30.704 232.864C29.068 233.244 29.168 240.772 30.704 241.6Z" fill="#191919"/>
</svg>
