<svg width="38" height="39" viewBox="0 0 38 39" fill="none" xmlns="http://www.w3.org/2000/svg">
<g id="medical-mask 1" clipPath="url(#clip0_211_22966)">
<g id="g5874">
<g id="g5876">
<g id="Clip path group">
<mask id="mask0_211_22966" style="mask-type:luminance" maskUnits="userSpaceOnUse" x="0" y="0" width="38" height="39">
<g id="clipPath5882">
<path id="path5880" d="M0.563232 0.971176H37.6211V38.0291H0.563232V0.971176Z" fill="white"/>
</g>
</mask>
<g mask="url(#mask0_211_22966)">
<g id="g5878">
<g id="g5884">
<path id="path5886" d="M27.5282 13.6251C27.5282 13.6251 27.6512 17.6226 30.6757 20.7828C31.2663 21.3998 31.2326 22.3808 30.5906 22.944C28.8659 24.4568 25.1559 26.8816 19.0923 26.8816C13.0288 26.8816 9.3187 24.4568 7.59406 22.944C6.95191 22.3808 6.91833 21.3998 7.50887 20.7828C10.5334 17.6226 10.6564 13.6251 10.6564 13.6251" fill="#26457D"/>
</g>
<g id="g5888">
<path id="path5890" d="M31.1439 32.3801V37.2834C31.1439 37.695 30.8098 38.0291 30.3982 38.0291H7.78617C7.37463 38.0291 7.04053 37.695 7.04053 37.2834V32.3801C7.04053 28.5692 9.61373 25.3593 13.1167 24.3929H13.1174L19.0922 26.8819L25.0669 24.3929H25.0677C28.5706 25.3593 31.1439 28.5692 31.1439 32.3801Z" fill="#FFE07D"/>
</g>
<g id="g5892">
<path id="path5894" d="M26.5261 24.9495C27.8509 26.4182 28.6577 28.3632 28.6577 30.497V38.0291H30.3977C30.8095 38.0291 31.1433 37.6952 31.1433 37.2834V32.38C31.1433 29.1213 29.2617 26.3025 26.5261 24.9495Z" fill="#F1CB86"/>
</g>
<g id="g5896">
<path id="path5898" d="M16.8544 28.8273L19.0921 26.8815V24.0946H15.326C14.5607 24.0946 13.8198 24.1989 13.1162 24.3931C13.0675 26.1675 13.7512 27.5863 14.4174 28.5383C14.9783 29.3401 16.116 29.4694 16.8544 28.8273Z" fill="#E4F6FF"/>
</g>
<g id="g5900">
<path id="path5902" d="M21.3298 28.8273L19.092 26.8815V24.0946H22.8581C23.6235 24.0946 24.3644 24.1989 25.0679 24.3931C25.1167 26.1675 24.4329 27.5863 23.7668 28.5383C23.2058 29.3401 22.0681 29.4694 21.3298 28.8273Z" fill="#E4F6FF"/>
</g>
<g id="g5904">
<path id="path5906" d="M16.3052 21.0819V24.0947C16.3052 25.6339 17.5529 26.8816 19.092 26.8816C20.6312 26.8816 21.8789 25.6339 21.8789 24.0947V21.0819H16.3052Z" fill="#FFDDCE"/>
</g>
<g id="g5908">
<path id="path5910" d="M16.3052 23.0183C17.1781 23.3247 18.1158 23.4919 19.092 23.4919C20.0683 23.4919 21.006 23.3247 21.8789 23.0183V21.0817H16.3052V23.0183Z" fill="#FFCBBE"/>
</g>
<g id="g5912">
<path id="path5914" d="M13.0667 8.74571V15.8093C13.0667 19.1372 15.7644 21.835 19.0923 21.835C22.4202 21.835 25.118 19.1372 25.118 15.8093V8.74571H13.0667Z" fill="#FFDDCE"/>
</g>
<g id="g5916">
<path id="path5918" d="M23.4608 8.74588V16.6146C23.4608 18.6695 22.4314 20.4832 20.8608 21.5708C23.3256 20.8151 25.1179 18.5218 25.1179 15.8095V8.74588H23.4608Z" fill="#FFCBBE"/>
</g>
<g id="g5920">
<path id="path5922" d="M27.5281 9.40696V13.6249L25.1178 14.8301L21.9649 9.87091C21.8338 9.66463 21.5612 9.6018 21.3529 9.72999L13.0665 14.8301L10.6562 13.6249V9.40696C10.6562 4.74795 14.4331 0.97101 19.0921 0.97101C23.7512 0.97101 27.5281 4.74795 27.5281 9.40696Z" fill="#30579D"/>
</g>
<g id="g5924">
<path id="path5926" d="M22.4424 1.66329C24.0885 3.20279 25.1177 5.39369 25.1177 7.8254V12.4199H27.528V9.40709C27.528 5.93863 25.4345 2.9596 22.4424 1.66329Z" fill="#26457D"/>
</g>
<g id="g5928">
<path id="path5930" d="M26.323 14.8301H25.1179V11.9603C25.1179 11.5485 25.4517 11.2147 25.8635 11.2147H26.323C26.9886 11.2147 27.5281 11.7543 27.5281 12.4198V13.625C27.5281 14.2906 26.9886 14.8301 26.323 14.8301Z" fill="#FFDDCE"/>
</g>
<g id="g5932">
<path id="path5934" d="M11.8614 14.8301H13.0665V11.9603C13.0665 11.5485 12.7326 11.2147 12.3209 11.2147H11.8614C11.1958 11.2147 10.6562 11.7543 10.6562 12.4198V13.625C10.6562 14.2906 11.1958 14.8301 11.8614 14.8301Z" fill="#FFDDCE"/>
</g>
<g id="g5936">
<path id="path5938" d="M11.9369 33.7038C11.628 33.7038 11.3777 33.9541 11.3777 34.263V38.0291H12.4962V34.263C12.4962 33.9541 12.2457 33.7038 11.9369 33.7038Z" fill="#F1CB86"/>
</g>
<g id="g5940">
<path id="path5942" d="M26.2477 33.7038C25.9389 33.7038 25.6885 33.9541 25.6885 34.263V38.0291H26.8069V34.263C26.8069 33.9541 26.5566 33.7038 26.2477 33.7038Z" fill="#F1CB86"/>
</g>
<g id="g5944">
<path id="path5946" d="M25.1179 14.2087L22.3884 15.5321C22.1105 15.6668 21.9944 16.0014 22.1291 16.2793C22.2258 16.4786 22.4252 16.5947 22.6327 16.5947C22.7146 16.5947 22.7978 16.5766 22.8763 16.5385L25.1179 15.4517V14.2087Z" fill="#E4F6FF"/>
</g>
<g id="g5948">
<path id="path5950" d="M15.7962 15.5321L13.0667 14.2087V15.4517L15.3082 16.5385C15.3868 16.5766 15.4699 16.5947 15.5518 16.5947C15.7594 16.5947 15.9588 16.4786 16.0555 16.2793C16.1902 16.0014 16.0741 15.6668 15.7962 15.5321Z" fill="#E4F6FF"/>
</g>
<g id="g5952">
<path id="path5954" d="M21.965 9.87114L22.2877 10.3787V7.11221C22.2877 6.80598 22.0517 6.53905 21.7457 6.52985C21.429 6.5203 21.1692 6.7742 21.1692 7.08883V9.8432L21.353 9.73015C21.5612 9.60197 21.8338 9.66472 21.965 9.87114Z" fill="#26457D"/>
</g>
<g id="g5956">
<path id="path5958" d="M22.6323 15.4758H15.5521C15.2433 15.4758 14.9929 15.7262 14.9929 16.0351V20.2239C16.0683 21.2229 17.5085 21.8347 19.0922 21.8347C20.6759 21.8347 22.116 21.2229 23.1915 20.2239V16.0351C23.1915 15.7262 22.9411 15.4758 22.6323 15.4758Z" fill="#95D6A4"/>
</g>
</g>
</g>
</g>
</g>
</g>
</g>
<defs>
<clipPath id="clip0_211_22966">
<rect width="37.0579" height="37.0579" fill="white" transform="translate(0.563232 0.970947)"/>
</clipPath>
</defs>
</svg>
