<svg width="222" height="38" viewBox="0 0 222 38" fill="none" xmlns="http://www.w3.org/2000/svg">
<g clipPath="url(#clip0_63_4601)">
<path opacity="0.5" fillRule="evenodd" clipRule="evenodd" d="M0 19C0 8.78273 8.28273 0.5 18.5 0.5C28.7173 0.5 37 8.78273 37 19C37 29.2173 28.7173 37.5 18.5 37.5C8.28273 37.5 0 29.2173 0 19Z" fill="white"/>
<path fillRule="evenodd" clipRule="evenodd" d="M18.5004 9.13272C15.8208 9.13272 15.4845 9.14444 14.432 9.19233C13.3816 9.24043 12.6646 9.40673 12.0373 9.65073C11.3883 9.90274 10.8378 10.2399 10.2894 10.7885C9.74056 11.3369 9.40345 11.8874 9.15061 12.5361C8.906 13.1637 8.7395 13.8809 8.69222 14.9309C8.64515 15.9833 8.63281 16.3198 8.63281 18.9995C8.63281 21.6791 8.64473 22.0144 8.69242 23.0669C8.74073 24.1173 8.90703 24.8342 9.15082 25.4616C9.40304 26.1106 9.74015 26.661 10.2888 27.2095C10.837 27.7583 11.3875 28.0962 12.036 28.3483C12.6638 28.5923 13.381 28.7585 14.4312 28.8066C15.4836 28.8545 15.8197 28.8663 18.4992 28.8663C21.179 28.8663 21.5143 28.8545 22.5667 28.8066C23.6171 28.7585 24.335 28.5923 24.9627 28.3483C25.6115 28.0962 26.1611 27.7583 26.7094 27.2095C27.2582 26.661 27.5953 26.1106 27.8481 25.4618C28.0907 24.8342 28.2572 24.1171 28.3065 23.0671C28.3538 22.0146 28.3661 21.6791 28.3661 18.9995C28.3661 16.3198 28.3538 15.9835 28.3065 14.9311C28.2572 13.8807 28.0907 13.1637 27.8481 12.5363C27.5953 11.8874 27.2582 11.3369 26.7094 10.7885C26.1605 10.2396 25.6117 9.90253 24.9621 9.65073C24.3331 9.40673 23.6157 9.24043 22.5653 9.19233C21.5129 9.14444 21.1778 9.13272 18.4973 9.13272H18.5004ZM17.6152 10.9108C17.8779 10.9104 18.1711 10.9108 18.5004 10.9108C21.1348 10.9108 21.447 10.9202 22.4874 10.9675C23.4494 11.0115 23.9715 11.1722 24.3193 11.3073C24.7797 11.4861 25.108 11.6999 25.4531 12.0452C25.7985 12.3906 26.0123 12.7195 26.1915 13.1799C26.3266 13.5273 26.4875 14.0494 26.5313 15.0114C26.5786 16.0516 26.5889 16.364 26.5889 18.9972C26.5889 21.6304 26.5786 21.9428 26.5313 22.983C26.4873 23.945 26.3266 24.4671 26.1915 24.8145C26.0127 25.2749 25.7985 25.6028 25.4531 25.9479C25.1078 26.2933 24.7799 26.507 24.3193 26.6859C23.9719 26.8216 23.4494 26.9819 22.4874 27.0259C21.4472 27.0732 21.1348 27.0834 18.5004 27.0834C15.8657 27.0834 15.5535 27.0732 14.5134 27.0259C13.5514 26.9815 13.0292 26.8207 12.6812 26.6857C12.2208 26.5068 11.8919 26.2931 11.5466 25.9477C11.2012 25.6024 10.9874 25.2743 10.8082 24.8137C10.6731 24.4663 10.5122 23.9442 10.4684 22.9821C10.4211 21.942 10.4117 21.6296 10.4117 18.9947C10.4117 16.3599 10.4211 16.0491 10.4684 15.009C10.5124 14.047 10.6731 13.5248 10.8082 13.177C10.987 12.7166 11.2012 12.3877 11.5466 12.0424C11.8919 11.697 12.2208 11.4832 12.6812 11.304C13.029 11.1683 13.5514 11.008 14.5134 10.9638C15.4236 10.9227 15.7763 10.9104 17.6152 10.9083V10.9108ZM23.7672 12.5491C23.1135 12.5491 22.5832 13.0788 22.5832 13.7327C22.5832 14.3863 23.1135 14.9167 23.7672 14.9167C24.4208 14.9167 24.9512 14.3863 24.9512 13.7327C24.9512 13.079 24.4208 12.5491 23.7672 12.5491ZM18.5004 13.9325C15.7022 13.9325 13.4334 16.2012 13.4334 18.9995C13.4334 21.7977 15.7022 24.0654 18.5004 24.0654C21.2987 24.0654 23.5666 21.7977 23.5666 18.9995C23.5666 16.2012 21.2987 13.9325 18.5004 13.9325ZM18.5004 15.7105C20.3167 15.7105 21.7893 17.183 21.7893 18.9995C21.7893 20.8158 20.3167 22.2884 18.5004 22.2884C16.6839 22.2884 15.2115 20.8158 15.2115 18.9995C15.2115 17.183 16.6839 15.7105 18.5004 15.7105Z" fill="#0CAFF3"/>
<path opacity="0.5" fillRule="evenodd" clipRule="evenodd" d="M61.667 19C61.667 8.78273 69.9497 0.5 80.167 0.5C90.3843 0.5 98.667 8.78273 98.667 19C98.667 29.2173 90.3843 37.5 80.167 37.5C69.9497 37.5 61.667 29.2173 61.667 19Z" fill="white"/>
<path fillRule="evenodd" clipRule="evenodd" d="M79.6129 15.537L79.6517 16.1771L79.0047 16.0988C76.6496 15.7983 74.5921 14.7793 72.8451 13.0679L71.991 12.2187L71.7711 12.8458C71.3052 14.2437 71.6028 15.7199 72.5734 16.7128C73.091 17.2615 72.9745 17.3399 72.0816 17.0133C71.7711 16.9087 71.4993 16.8304 71.4734 16.8695C71.3828 16.961 71.6934 18.1498 71.9393 18.6201C72.2757 19.2733 72.9616 19.9135 73.7121 20.2923L74.3462 20.5928L73.5956 20.6059C72.871 20.6059 72.8451 20.6189 72.9227 20.8933C73.1816 21.7425 74.2038 22.6439 75.3426 23.0358L76.1449 23.3102L75.4461 23.7282C74.4109 24.3292 73.1945 24.6688 71.9781 24.695C71.3958 24.708 70.917 24.7603 70.917 24.7995C70.917 24.9301 72.4957 25.6617 73.4145 25.9491C76.1708 26.7983 79.4447 26.4325 81.9034 24.9824C83.6503 23.9503 85.3973 21.8992 86.2125 19.9135C86.6525 18.8553 87.0925 16.9218 87.0925 15.9943C87.0925 15.3933 87.1313 15.3149 87.8559 14.5964C88.283 14.1783 88.6841 13.7211 88.7618 13.5905C88.8912 13.3422 88.8782 13.3422 88.2183 13.5643C87.1183 13.9562 86.963 13.904 87.5065 13.3161C87.9077 12.8981 88.3865 12.1403 88.3865 11.9182C88.3865 11.8791 88.1924 11.9444 87.9724 12.062C87.7395 12.1926 87.2219 12.3886 86.8336 12.5061L86.1349 12.7282L85.5008 12.2971C85.1514 12.062 84.6597 11.8007 84.4009 11.7223C83.7409 11.5394 82.7315 11.5655 82.1363 11.7745C80.5187 12.3624 79.4965 13.8779 79.6129 15.537Z" fill="#0CAFF3"/>
<path opacity="0.5" fillRule="evenodd" clipRule="evenodd" d="M123.333 19C123.333 8.78273 131.616 0.5 141.833 0.5C152.05 0.5 160.333 8.78273 160.333 19C160.333 29.2173 152.05 37.5 141.833 37.5C131.616 37.5 123.333 29.2173 123.333 19Z" fill="white"/>
<path d="M139.466 20.2827C139.392 20.2827 137.764 20.2827 137.024 20.2827C136.629 20.2827 136.506 20.1347 136.506 19.7647C136.506 18.778 136.506 17.7667 136.506 16.78C136.506 16.3853 136.654 16.262 137.024 16.262H139.466C139.466 16.188 139.466 14.7573 139.466 14.0913C139.466 13.1047 139.639 12.1673 140.132 11.304C140.65 10.416 141.39 9.82399 142.327 9.47866C142.944 9.25666 143.561 9.15799 144.227 9.15799H146.644C146.989 9.15799 147.137 9.30599 147.137 9.65132V12.4633C147.137 12.8087 146.989 12.9567 146.644 12.9567C145.978 12.9567 145.312 12.9567 144.646 12.9813C143.98 12.9813 143.635 13.302 143.635 13.9927C143.61 14.7327 143.635 15.448 143.635 16.2127H146.496C146.891 16.2127 147.039 16.3607 147.039 16.7553V19.74C147.039 20.1347 146.915 20.258 146.496 20.258C145.608 20.258 143.709 20.258 143.635 20.258V28.2993C143.635 28.7187 143.511 28.8667 143.067 28.8667C142.031 28.8667 141.02 28.8667 139.984 28.8667C139.614 28.8667 139.466 28.7187 139.466 28.3487C139.466 25.7587 139.466 20.3567 139.466 20.2827Z" fill="#0CAFF3"/>
<path opacity="0.5" fillRule="evenodd" clipRule="evenodd" d="M185 19C185 8.78273 193.283 0.5 203.5 0.5C213.717 0.5 222 8.78273 222 19C222 29.2173 213.717 37.5 203.5 37.5C193.283 37.5 185 29.2173 185 19Z" fill="white"/>
<path d="M213.367 28.8658V21.6385C213.367 18.0865 212.602 15.3732 208.458 15.3732C206.46 15.3732 205.128 16.4585 204.586 17.4945H204.536V15.6938H200.614V28.8658H204.709V22.3292C204.709 20.6025 205.03 18.9498 207.151 18.9498C209.248 18.9498 209.272 20.8985 209.272 22.4278V28.8412H213.367V28.8658Z" fill="#0CAFF3"/>
<path d="M193.953 15.6941H198.048V28.8661H193.953V15.6941Z" fill="#0CAFF3"/>
<path d="M196.001 9.13275C194.693 9.13275 193.633 10.1934 193.633 11.5008C193.633 12.8081 194.693 13.8934 196.001 13.8934C197.308 13.8934 198.369 12.8081 198.369 11.5008C198.369 10.1934 197.308 9.13275 196.001 9.13275Z" fill="#0CAFF3"/>
</g>
<defs>
<clipPath id="clip0_63_4601">
<rect width="222" height="37" fill="white" transform="translate(0 0.5)"/>
</clipPath>
</defs>
</svg>
