<svg width="121" height="121" viewBox="0 0 121 121" fill="none" xmlns="http://www.w3.org/2000/svg">
<g opacity="0.62" clipPath="url(#clip0_367_4425)">
<path d="M35.6094 52.7364C35.7535 53.2743 36.5504 53.425 37.0103 53.5592C38.6425 53.968 40.3528 54.0986 42.0181 54.3744C47.0388 55.2254 51.7544 56.961 55.7332 60.1796C52.6561 55.8709 47.7832 52.4556 42.4725 51.5388C40.6507 51.2544 38.6274 51.1067 36.8733 51.7105C36.4198 51.8648 35.6207 52.159 35.6094 52.7364ZM64.5322 91.6559C63.4497 90.5495 62.7646 88.9294 62.2259 87.4023C60.7203 82.9266 60.9662 77.7269 62.4848 73.5332C62.0173 77.9562 62.7752 82.3282 64.2034 86.5651C64.6791 87.9613 65.2867 89.3427 65.6551 90.7774C65.7602 91.1839 65.9674 91.8526 65.6864 92.1955C65.3071 92.4443 64.8152 91.9502 64.5322 91.6559ZM39.5341 79.6431C39.9974 77.7571 41.2577 76.0219 42.5227 74.503C46.2975 70.1152 52.0066 67.2958 57.4719 66.5018C52.4327 68.621 48.289 72.0912 44.737 76.2216C43.5649 77.5942 42.5039 79.0965 41.2095 80.3756C40.8447 80.7323 40.2699 81.3823 39.7144 81.2743C39.215 80.9847 39.4245 80.1264 39.5341 79.6431ZM50.5576 36.523C50.9694 36.6582 51.1648 37.3392 51.294 37.7451C51.7462 39.166 51.9831 40.6397 52.3274 42.0749C53.3972 46.4159 55.1107 50.5022 57.8807 53.976C54.358 51.2643 51.3546 47.0261 50.2069 42.4223C49.8354 40.8434 49.5568 39.1181 49.8716 37.5842C49.9721 37.2333 50.1249 36.5325 50.5576 36.523ZM81.2269 38.01C81.3604 38.6082 80.7017 39.2721 80.3144 39.7015C78.9645 41.1861 77.3688 42.4358 75.9083 43.8147C71.5151 47.9637 67.9048 52.7207 65.7809 58.3586C66.4285 52.2963 69.2929 45.8846 73.9329 41.4776C75.5478 40.0111 77.4025 38.5153 79.4451 37.9051C79.9707 37.7492 80.8905 37.4764 81.2269 38.01ZM99.8397 45.0898C99.6238 45.6597 98.6325 45.9581 98.0353 46.1396C95.9703 46.8225 93.8027 47.2191 91.7105 47.7582C85.3744 49.4131 79.3699 51.9264 74.1905 55.8643C78.2778 50.9285 84.5683 46.6655 91.2745 44.8942C93.5825 44.3262 96.109 43.8496 98.2935 44.2222C98.8725 44.3056 99.8622 44.4761 99.8397 45.0898ZM87.5467 79.7251C87.1039 79.8191 86.5885 79.3495 86.2697 79.068C85.13 78.0952 84.1666 76.9381 83.122 75.9151C79.9503 72.7628 76.3218 70.1616 72.0672 68.6083C76.5992 69.1094 81.4423 71.1788 84.8106 74.5191C85.9422 75.6725 87.0899 77.0058 87.5912 78.4737C87.7071 78.8198 87.9383 79.488 87.5467 79.7251Z" fill="url(#paint0_radial_367_4425)"/>
<path d="M81.0566 23.7776L82.9898 26.3802L86.2095 26.261L84.3317 28.8875L85.4449 31.929L82.3573 30.9511L79.8162 32.9431L79.7808 29.7094L77.0955 27.893L80.1637 26.8995L81.0566 23.7776ZM33.2194 82.8245L35.1526 85.427L38.3846 85.3196L36.5068 87.9461L37.62 90.9876L34.5324 90.0097L31.9795 92.0139L31.9442 88.7803L29.2588 86.9639L32.3265 85.9463L33.2194 82.8245Z" fill="#50BADC"/>
<path d="M34.8508 36.3648L31.7832 37.3824L34.4685 39.1988L34.4798 42.433L37.021 40.441L40.1086 41.4189L38.9954 38.3775L40.8967 35.7263L37.6647 35.8338L35.7321 33.2553L34.8508 36.3648ZM62.9467 95.5505L64.8798 98.1531L68.1118 98.0456L66.234 100.672L67.3472 103.714L64.2596 102.736L61.7185 104.728L61.6831 101.494L58.9978 99.6777L62.0654 98.6601L62.9467 95.5505ZM99.3798 58.5786L101.313 61.1812L104.545 61.0737L102.667 63.7003L103.78 66.7418L100.693 65.7639L98.1517 67.7558L98.1163 64.5222L95.431 62.7058L98.4986 61.6882L99.3798 58.5786Z" fill="#AF85FF"/>
<path d="M80.2923 87.1596C80.4002 86.6042 79.7738 86.0048 79.4288 85.6276C78.1732 84.3087 76.7179 83.1986 75.3683 81.9779C71.3191 78.2919 67.9424 74.0259 65.8691 68.8894C66.6295 74.4637 69.3794 80.2946 73.6738 84.1916C75.1697 85.5053 76.8696 86.8024 78.6963 87.3031C79.1802 87.4367 80.0144 87.6467 80.2923 87.1596ZM45.7246 99.1651C45.2682 97.0109 45.6205 94.4541 46.0861 92.1233C47.5596 85.3454 51.5409 78.8729 56.2914 74.5717C52.5977 79.9076 50.3519 86.0172 48.9666 92.4324C48.5203 94.5464 48.2198 96.7293 47.6288 98.8225C47.4615 99.4153 47.2194 100.431 46.6596 100.672C46.0592 100.709 45.8452 99.7276 45.7246 99.1651ZM22.8926 66.5439C24.5822 65.196 26.9912 64.3011 29.2598 63.5777C35.9366 61.5666 43.5602 61.5906 49.6437 63.1997C43.1434 62.8623 36.6873 63.9788 30.3811 65.8976C28.3033 66.5446 26.2404 67.3236 24.0995 67.8398C23.4895 67.9856 22.4859 68.2723 21.9977 67.9464C21.6997 67.5201 22.4556 66.9022 22.8926 66.5439ZM66.0702 21.9082C66.4173 22.3815 66.1752 23.3968 66.0565 24.0126C65.6353 26.1742 64.9359 28.2577 64.3934 30.3739C62.7549 36.7586 61.9368 43.2695 62.5485 49.7368C60.6724 43.7302 60.3119 36.1151 62.0263 29.356C62.6489 27.0577 63.4483 24.5993 64.7085 22.8641C65.0467 22.3877 65.6306 21.6053 66.0702 21.9082ZM92.2353 64.4476C91.9052 64.7434 91.2279 64.566 90.8172 64.4789C89.3676 64.1742 87.9608 63.6282 86.5449 63.2145C82.2491 61.9748 77.848 61.4106 73.4499 62.0729C77.5602 60.3589 82.7322 59.896 87.294 61.2021C88.8435 61.6728 90.4805 62.298 91.6453 63.3183C91.9401 63.6004 92.4554 64.07 92.2353 64.4476Z" fill="url(#paint1_radial_367_4425)"/>
</g>
<defs>
<radialGradient id="paint0_radial_367_4425" cx="0" cy="0" r="1" gradientUnits="userSpaceOnUse" gradientTransform="translate(66.8896 60.3107) rotate(133.735) scale(31.2812 31.2812)">
<stop offset="0.1343" stopColor="#50BADC"/>
<stop offset="0.7869" stopColor="#AF85FF"/>
</radialGradient>
<radialGradient id="paint1_radial_367_4425" cx="0" cy="0" r="1" gradientUnits="userSpaceOnUse" gradientTransform="translate(61.5736 66.3864) rotate(133.735) scale(31.7871 31.7871)">
<stop offset="0.5654" stopColor="#2881D6"/>
<stop offset="1" stopColor="#50BADC"/>
</radialGradient>
<clipPath id="clip0_367_4425">
<rect width="85" height="85" fill="white" transform="matrix(-0.691324 0.722545 0.722545 0.691324 58.7627 0)"/>
</clipPath>
</defs>
</svg>
